<?xml version="1.0" encoding="utf-8"?>
<!-- Generator: Adobe Illustrator 16.0.0, SVG Export Plug-In . SVG Version: 6.00 Build 0)  -->
<!DOCTYPE svg PUBLIC "-//W3C//DTD SVG 1.1//EN" "http://www.w3.org/Graphics/SVG/1.1/DTD/svg11.dtd">
<svg version="1.1" id="Layer_1" xmlns="http://www.w3.org/2000/svg" xmlns:xlink="http://www.w3.org/1999/xlink" x="0px" y="0px"
	 width="1920px" height="200px" viewBox="0 0 1920 200" enable-background="new 0 0 1920 200" xml:space="preserve">
<polygon fill="#231F20" points="1341.836,100 1331.229,89.394 1320.623,100 1310.016,110.606 1299.41,100 1278.197,78.787 
	1256.984,100 1235.771,121.213 1214.559,100 1182.739,68.181 1150.919,100 1119.1,131.819 1087.279,100 1044.854,57.573 
	1002.427,100 960,142.427 917.573,100 875.146,57.573 832.72,100 800.9,131.819 769.081,100 737.261,68.181 705.441,100 
	684.228,121.213 663.014,100 641.801,78.787 620.587,100 609.981,110.606 599.375,100 588.768,89.394 578.162,100 0,100 0,200 
	1920,200 1920,100 "/>
</svg>
