<?xml version="1.0" encoding="utf-8"?>
<!-- Generator: Adobe Illustrator 16.0.0, SVG Export Plug-In . SVG Version: 6.00 Build 0)  -->
<!DOCTYPE svg PUBLIC "-//W3C//DTD SVG 1.1//EN" "http://www.w3.org/Graphics/SVG/1.1/DTD/svg11.dtd">
<svg version="1.1" id="Layer_1" xmlns="http://www.w3.org/2000/svg" xmlns:xlink="http://www.w3.org/1999/xlink" x="0px" y="0px"
	 width="113.386px" height="168.358px" viewBox="0 0 113.386 168.358" enable-background="new 0 0 113.386 168.358"
	 xml:space="preserve">
<g>
	<g>
		<polygon fill="#2AACE3" points="113.258,32.771 56.626,0 38.773,10.405 50.455,17.685 56.626,14.135 88.921,32.771 0,84.182 
			46.894,111.361 46.894,97.36 24.222,84.182 		"/>
		<polygon fill="#2AACE3" points="66.242,108.403 66.242,122.52 88.921,135.594 56.626,154.222 56.51,154.112 50.455,150.632 
			38.292,157.656 56.626,168.358 113.386,135.594 		"/>
		<polygon fill="#2F302F" points="62.688,65.541 50.455,72.668 50.455,138.795 62.688,131.737 		"/>
		<g>
			<polygon fill="#2F302F" points="50.455,38.28 50.455,51.534 62.688,44.417 62.688,31.233 62.658,31.233 			"/>
		</g>
	</g>
</g>
</svg>
