<svg version="1.1" xmlns="http://www.w3.org/2000/svg" xmlns:xlink="http://www.w3.org/1999/xlink" x="0px" y="0px" width="1920px" height="1080px" viewBox="0 0 1920 1080" enable-background="new 0 0 1920 1080" xml:space="preserve">
    <g id="svg-background">
        <image overflow="visible" width="1920" height="1080" xlink:href="../imgs/cam_01_D.jpg">
        </image>
    </g>
    <g id="svg-floors">
        <polygon id="floor-4" class="floor" points="441.529,313.65 491.5,323.5 551.25,314.25 
                                                    1039.5,400 1501.75,281.75 1501.754,281.887 1502,281.667 1601.334,256.334 1601.334,247.667 1470.668,236 1470.668,224.667 
                                                    1389.668,217 1389.334,187.334 1454.002,177 1454.668,166.667 1390.002,162.667 1389.334,161 1333.668,158 1333.002,152.667 
                                                    1011.668,131 572,171.667 571.667,174.334 504,180.667 504,189 648.333,207 648,226.334 439.667,251 438.667,268.334 
                                                    330.667,282.667 330.667,293.667 439.667,313 	"/>
        <polygon id="floor-3" class="floor" points="321.5,393.25 321.5,347.5 439.5,329.75 
                                                    439.5,313.25 491.5,323.5 551.25,314.25 1039.5,400 1501.75,281.75 1502,290.25 1601.5,300.25 1601.5,344.75 1451.5,390.75 
                                                    1412,385.667 1192,456.667 1209,459.75 1209.5,470.75 1024.75,533 694,456.25 693.833,426.333 609.333,406.833 479,432.25 	"/>
        <polygon id="floor-2" class="floor" points="1505.764,374.109 1451.5,390.75 1412,385.667 
                                                    1192.452,456.521 1209,459.75 1209.5,470.75 1024.75,533 694,456.25 693.834,426.333 609.333,406.833 479,432.25 442,423.088 
                                                    442,425.5 325,447 325,493 481,541.5 610.5,507.5 696.25,536.75 696.25,570 1024,664.75 1208.75,588.5 1208.75,563.75 
                                                    1411.75,482.5 1449.5,488.75 1601.5,433 1601.5,385.75 	"/>
        <polygon id="floor-1" class="floor" points="1509,467.171 1449.5,488.75 1411.75,482.5 
                                                    1208.75,563.75 1208.75,588.5 1024,664.75 696.25,570 696.25,536.75 610.5,507.5 481,541.5 421.416,522.976 326.5,546 326.5,592 
                                                    483.5,649 612,610 697,638.5 697,682 1024,794.5 1207,705 1207.5,669 1409,578.5 1447,587 1601.5,515 1601.5,473.167 1509,470 	"/>
        <polygon id="floor-0" class="floor" points="1506.5,600 1506.006,559.481 1447,587 
                                                    1409,578.5 1207.5,669 1207,705 1024,794.5 697,682 697,638.5 612,610 483.5,649 445.5,635.204 445.5,642.5 330.5,677.5 
                                                    526.5,761.5 659,713 711,734 645,761 1021,911 1312,747 1271.5,737 1341,699.5 1403.5,716 1601.5,617 	"/>
    </g>
</svg>
