<?xml version="1.0" encoding="utf-8"?>
<!-- Generator: Adobe Illustrator 15.1.0, SVG Export Plug-In . SVG Version: 6.00 Build 0)  -->
<!DOCTYPE svg PUBLIC "-//W3C//DTD SVG 1.1//EN" "http://www.w3.org/Graphics/SVG/1.1/DTD/svg11.dtd">
<svg version="1.1" id="Layer_1" xmlns="http://www.w3.org/2000/svg" xmlns:xlink="http://www.w3.org/1999/xlink" x="0px" y="0px"
	 width="1294px" height="895px" viewBox="0 0 1294 895" enable-background="new 0 0 1294 895" xml:space="preserve">
<g id="svg-floors">
	<polygon id="floor-5" fill="#FFFFFF" stroke="#000000" stroke-miterlimit="10" points="-525.5,1159 -525.5,1242 126.5,1526 
		528.5,1253 528.5,1209 550.273,1198 590.5,1208 637.5,1176.235 637.5,1142 623.5,1129 623.5,1070 118,1366 118,1411 	"/>
	<polygon id="floor-4" points="-422.34,823.659 -372.34,815.409 48.021,893.21 551.129,759.141 551.129,751.596 433.378,739.439 
		433.378,732.573 361.717,724.899 361.717,700.073 418.874,690.075 418.874,681.159 361.717,675.598 361.717,674.2 312.408,669.534 
		312.408,666.892 24.793,643.03 -357.108,686.434 -357.108,688.755 -416.161,694.268 -416.161,704.522 -292.025,720.193 
		-292.025,734.194 -473.102,758.495 -473.102,773.587 -567.058,786.066 -567.058,794.641 	"/>
	<polygon id="floor-3" points="195.16,935.284 195.16,952.409 35.746,1004.993 -245.101,938.284 -245.101,912.159 -323.35,894.156 
		-433.423,917.743 -575.038,882.332 -575.038,842.505 -472.313,827.053 -472.254,813.651 -422.34,823.659 -372.34,815.409 
		48.235,893.02 463.651,782.074 463.654,789.666 550.273,798.371 550.273,834.112 412.69,880.156 379.305,874.731 	"/>
	<polygon id="floor-2" points="195.16,935.284 195.16,952.409 35.746,1004.993 -245.101,938.284 -245.101,912.159 -323.35,894.156 
		-433.423,917.743 -470.135,908.565 -470.135,910.407 -571.991,929.125 -571.991,969.172 -431.715,1011.409 -323.35,981.794 
		-245.101,1003.258 -245.101,1037.034 35.746,1115.69 194.364,1053.31 194.364,1031.764 377.535,960.409 410.41,966.409 
		550.273,910.409 550.273,875.909 464.932,862.67 412.69,880.156 379.305,874.731 	"/>
	<polygon id="floor-1" points="410.41,966.409 377.535,960.409 194.364,1031.764 194.364,1053.31 35.746,1115.69 -245.101,1037.034 
		-245.101,1003.258 -323.35,981.794 -431.715,1011.409 -487.076,994.74 -570.686,1015.311 -570.686,1055.356 -429.84,1104.159 
		-323.35,1071.027 -245.101,1095.837 -245.101,1133.705 35.746,1224.644 193.844,1150.73 193.844,1122.473 376.088,1043.973 
		409.66,1051.909 547.66,987.159 547.66,952.405 478.72,939.06 	"/>
	<polygon id="floor-0" points="458.379,1038.243 458.362,1029.059 409.66,1051.909 376.088,1043.973 193.844,1122.473 
		193.844,1150.73 35.746,1224.644 -245.101,1133.705 -245.101,1095.837 -323.35,1071.027 -429.84,1104.159 -467.089,1091.356 
		-467.089,1099.321 -570.686,1132.492 -396.673,1199.659 -286.682,1162.534 -235.956,1178.976 -293.413,1202.48 34.91,1323.409 
		285.327,1192.16 250.827,1182.66 314.303,1149.418 368.16,1164.16 372.666,1161.865 372.666,1147.451 544.661,1056.825 	"/>
</g>
</svg>
