<svg version="1.1" xmlns="http://www.w3.org/2000/svg" xmlns:xlink="http://www.w3.org/1999/xlink" x="0px" y="0px" width="1294px" height="895px" viewBox="0 0 1294 895" enable-background="new 0 0 1294 895" xml:space="preserve">
    <g id="svg-background">
        <image overflow="visible" width="1294" height="895" xlink:href="facade2.png">
        </image>
    </g>
    <g>
        <g id="svg-floors">
            <polygon id="floor-4" class="floor" points="555.5,303 
                                                        605.5,294.75 1025.86,372.55 1528.969,238.481 1528.969,230.935 1411.218,218.779 1411.218,211.912 1339.557,204.238 
                                                        1339.557,179.412 1396.714,169.416 1396.714,160.5 1339.557,154.938 1339.557,153.542 1290.248,148.875 1290.248,146.232 
                                                        1002.633,122.37 620.731,165.773 620.731,168.095 561.679,173.608 561.679,183.862 685.814,199.532 685.814,213.533 
                                                        504.738,237.837 504.738,252.927 410.782,265.406 410.782,273.981"/>
            <polygon id="floor-3" class="floor" points="1173,414.625 
                                                        1173,431.75 1013.586,484.334 732.739,417.625 732.739,391.5 654.49,373.497 544.417,397.084 402.802,361.673 402.802,321.845 505.527,306.393 505.585,292.991 555.5,303 605.5,294.75 1026.075,372.359 1441.491,261.415 1441.494,269.006 1528.114,277.712 1528.114,313.451 1390.53,359.497 1357.145,354.071"/>
            <polygon id="floor-2" class="floor" points="1173,414.625 
                                                        1173,431.75 1013.586,484.334 732.739,417.625 732.739,391.5 654.49,373.497 544.417,397.084 507.705,387.904 507.705,389.749 405.849,408.466 405.849,448.511 546.125,490.75 654.49,461.134 732.739,482.598 732.739,516.375 1013.586,595.03 1172.204,532.65 1172.204,511.103 1355.375,439.75 1388.25,445.75 1528.114,389.75 1528.114,355.25 1442.771,342.01 1390.53,359.497 1357.145,354.071"/>
            <polygon id="floor-1" class="floor" points="1388.25,445.75 
                                                        1355.375,439.75 1172.204,511.103 1172.204,532.65 1013.586,595.03 732.739,516.375 732.739,482.598 654.49,461.134 
                                                        546.125,490.75 490.764,474.08 407.154,494.651 407.154,534.696 548,583.5 654.49,550.366 732.739,575.177 732.739,613.046 
                                                        1013.586,703.984 1171.684,630.07 1171.684,601.813 1353.928,523.313 1387.5,531.25 1525.5,466.5 1525.5,431.744 1456.56,418.4"/>
            <polygon id="floor-0" class="floor" points="1436.219,517.584 
                                                        1436.202,508.399 1387.5,531.25 1353.928,523.313 1171.684,601.813 1171.684,630.07 1013.586,703.984 732.739,613.046 
                                                        732.739,575.177 654.49,550.366 548,583.5 510.75,570.696 510.75,578.66 407.154,611.833 581.167,679 691.158,641.875 
                                                        741.884,658.316 684.427,681.82 1012.75,802.75 1263.167,671.501 1228.667,662.001 1292.143,628.759 1346,643.501 
                                                        1350.506,641.205 1350.506,626.792 1522.501,536.167"/>
        </g>
    </g>
</svg>
