<?xml version="1.0" encoding="utf-8"?>
<!-- Generator: Adobe Illustrator 26.0.3, SVG Export Plug-In . SVG Version: 6.00 Build 0)  -->
<svg version="1.1" id="Layer_1" xmlns="http://www.w3.org/2000/svg" xmlns:xlink="http://www.w3.org/1999/xlink" x="0px" y="0px"
	 viewBox="0 0 128 128" style="enable-background:new 0 0 128 128;" xml:space="preserve">
<path d="M75.9,92.3c1.3-0.2,2.6-0.4,3.9-0.6C84,91,88,89.8,91.7,87.8c5.5-3,9.2-7.6,11.2-13.5c1-3,1.6-6.1,1.8-9.3
	c0.2-2.4,0.3-4.9,0-7.3c-0.5-5.1-2.5-9.6-5.8-13.4c-0.5-0.6-0.5-1-0.3-1.7c1.3-4.1,1.3-8.3,0.2-12.4c-0.3-1-0.7-2.1-1-3.1
	c-0.1-0.4-0.3-0.6-0.8-0.6c-1.3-0.1-2.6,0-3.9,0.3c-3.2,0.7-6.2,2.1-9,3.8c-1.2,0.7-2.4,1.4-3.5,2.2c-0.4,0.2-0.7,0.3-1.2,0.2
	C73.5,31.2,67.3,30.7,61,31c-4.1,0.2-8.1,0.8-12,1.9c-0.6,0.2-1.1,0.1-1.7-0.3c-3.3-2.2-6.8-4.1-10.6-5.3c-1.8-0.6-3.7-1-5.6-0.8
	c-0.2,0-0.4,0-0.6,0.1c-0.1,0.3-0.3,0.6-0.4,1c-1.3,3.6-1.9,7.2-1.4,11c0.2,1.5,0.6,2.9,0.9,4.4c0.1,0.5,0.1,0.8-0.2,1.2
	c-3,3.4-4.9,7.4-5.7,11.9c-0.4,2.3-0.5,4.6-0.4,6.9c0.2,3.2,0.5,6.4,1.4,9.5c1.3,4.6,3.4,8.6,6.9,11.9c2.8,2.6,6.1,4.4,9.6,5.7
	c3.4,1.2,6.9,1.9,10.5,2.3c0.1,0,0.3,0,0.5,0.1c0,0.1,0,0.2-0.1,0.3c-2.1,2.1-3.1,4.6-3.6,7.5c-0.1,0.6-0.3,0.9-0.9,1.2
	c-2,0.7-4,1.3-6.1,1.3c-4.3,0.1-7.7-1.6-10.4-5c-0.5-0.6-0.9-1.3-1.4-2c-1.5-2.3-3.4-4.4-5.9-5.6c-1.7-0.9-3.5-1.1-5.4-0.8
	c-1.5,0.3-1.8,1.1-0.8,2.2c0.5,0.6,1.2,1.1,1.9,1.5c1.3,0.8,2.4,1.8,3.3,2.9c1.6,2.1,3,4.3,3.9,6.7c1.3,3.3,3.7,5.5,7,6.8
	c2.5,0.9,5.1,1.2,7.8,1.1c2-0.1,4-0.4,6-0.6c0.1,0,0.3,0,0.5,0c0,0.2,0.1,0.5,0.1,0.7c0,3.6,0.1,7.2,0.1,10.8c0,0.4,0,0.7-0.1,1.1
	c-0.3,1.3-1.2,2.2-2.5,2.3c-0.7,0.1-1.5,0-2.2-0.2c-8.4-2.8-15.8-7.3-22.4-13.2c-5.5-5-10-10.8-13.5-17.4
	c-3.3-6.3-5.5-12.9-6.6-19.9C0.3,70.7,0,67.3,0,63.9c0-8.7,1.7-17.1,5.2-25c6-13.7,15.5-24.1,28.6-31.3C40.4,4,47.4,1.7,54.9,0.7
	c4.6-0.7,9.2-0.8,13.8-0.5C79.4,1,89.4,4.2,98.4,10.1c10.1,6.5,17.8,15.1,23.1,25.9c2.9,5.9,4.8,12.1,5.8,18.6
	c0.7,5,0.9,9.9,0.5,14.9c-0.6,7.4-2.5,14.4-5.5,21.1c-3.3,7.2-7.8,13.6-13.5,19.2c-6.8,6.6-14.6,11.5-23.6,14.7
	c-0.7,0.3-1.5,0.4-2.3,0.4c-1.6-0.1-2.8-1.1-2.9-2.8c-0.1-1.6,0-3.2,0-4.8c0-4.7,0.1-9.4,0-14.1c0-3.1-0.7-6-2.4-8.7
	C77.2,93.7,76.6,93.1,75.9,92.3z"/>
</svg>
