<?xml version="1.0" encoding="utf-8"?>
<!-- Generator: Adobe Illustrator 16.0.0, SVG Export Plug-In . SVG Version: 6.00 Build 0)  -->
<!DOCTYPE svg PUBLIC "-//W3C//DTD SVG 1.1//EN" "http://www.w3.org/Graphics/SVG/1.1/DTD/svg11.dtd">
<svg version="1.1" id="Layer_1" xmlns="http://www.w3.org/2000/svg" xmlns:xlink="http://www.w3.org/1999/xlink" x="0px" y="0px"
	 width="64px" height="64px" viewBox="0 0 64 64" enable-background="new 0 0 64 64" xml:space="preserve">
<path fill="#2AACE3" d="M31.992,0C14.322,0,0,14.323,0,32.004C0,49.676,14.322,64,31.992,64C49.671,64,64,49.676,64,32.004
	C64,14.323,49.671,0,31.992,0z M39.855,55.382c-1.232,0.247-1.694-0.522-1.694-1.17c0-0.832,0.031-3.481,0.031-6.777
	c0-2.311-0.771-3.789-1.664-4.56c5.484-0.616,11.244-2.711,11.244-12.168c0-2.711-0.954-4.898-2.525-6.623
	c0.246-0.616,1.108-3.143-0.247-6.531c0,0-2.063-0.678-6.776,2.526c-1.972-0.554-4.067-0.832-6.162-0.832
	c-2.095,0-4.19,0.277-6.162,0.832c-4.713-3.173-6.777-2.526-6.777-2.526c-1.355,3.389-0.493,5.915-0.246,6.531
	c-1.572,1.725-2.527,3.943-2.527,6.623c0,9.426,5.73,11.552,11.213,12.168c-0.708,0.616-1.355,1.694-1.571,3.296
	c-1.417,0.647-4.959,1.694-7.178-2.032c-0.462-0.739-1.849-2.558-3.789-2.526c-2.064,0.03-0.832,1.17,0.031,1.633
	c1.047,0.585,2.249,2.771,2.526,3.48c0.493,1.387,2.095,4.036,8.287,2.896c0,2.064,0.031,4.006,0.031,4.591
	c0,0.647-0.462,1.387-1.694,1.17C14.41,52.116,7.355,42.906,7.355,32C7.355,18.384,18.384,7.355,32,7.355S56.645,18.384,56.645,32
	C56.645,42.875,49.59,52.116,39.855,55.382z"/>
</svg>
