<?xml version="1.0" encoding="utf-8"?>
<!-- Generator: Adobe Illustrator 16.0.0, SVG Export Plug-In . SVG Version: 6.00 Build 0)  -->
<!DOCTYPE svg PUBLIC "-//W3C//DTD SVG 1.1//EN" "http://www.w3.org/Graphics/SVG/1.1/DTD/svg11.dtd">
<svg version="1.1" id="Layer_1" xmlns="http://www.w3.org/2000/svg" xmlns:xlink="http://www.w3.org/1999/xlink" x="0px" y="0px"
	 width="64px" height="64px" viewBox="0 0 64 64" enable-background="new 0 0 64 64" xml:space="preserve">
<g>
	<path fill-rule="evenodd" clip-rule="evenodd" fill="#2AACE3" d="M31.992,0C14.322,0,0,14.323,0,32.004
		C0,49.676,14.322,64,31.992,64C49.671,64,64,49.676,64,32.004C64,14.323,49.671,0,31.992,0z M54.131,36.448
		c-0.479,1.536-1.173,2.855-2.053,3.982c-0.896,1.111-1.976,1.976-3.256,2.593c-1.289,0.618-2.74,0.919-4.36,0.919
		c-1.952,0-3.58-0.371-4.885-1.111c-1.288-0.741-2.206-1.536-2.7-2.4l-0.108-0.17c-0.718,0.949-1.729,1.798-2.979,2.555
		c-1.273,0.756-2.662,1.127-4.174,1.127c-1.489,0-2.84-0.301-4.059-0.88c-1.242-0.603-2.276-1.428-3.148-2.47
		c-0.88-1.058-1.551-2.308-2.037-3.781c-0.486-1.459-0.726-3.025-0.726-4.746s0.239-3.311,0.726-4.762
		c0.486-1.443,1.157-2.693,2.037-3.751c0.872-1.08,1.906-1.906,3.148-2.508c1.219-0.579,2.57-0.888,4.059-0.888
		c1.512,0,2.801,0.271,3.834,0.818c1.065,0.524,1.853,1.204,2.385,1.991l0.439-2.377h7.377v15.396c0,0.617,0.124,1.143,0.363,1.629
		c0.27,0.455,0.779,0.702,1.582,0.702c1.126,0,1.968-0.625,2.554-1.853c0.579-1.219,0.864-2.909,0.864-5.023
		c0-2.446-0.394-4.661-1.149-6.676c-0.765-2.021-1.867-3.773-3.318-5.24c-1.458-1.458-3.264-2.593-5.378-3.38
		c-2.1-0.795-4.515-1.188-7.23-1.188c-2.523,0-4.831,0.425-6.898,1.273c-2.083,0.841-3.874,2.029-5.378,3.55
		c-1.497,1.521-2.647,3.326-3.457,5.41c-0.818,2.099-1.219,4.398-1.219,6.876c0,2.508,0.386,4.784,1.188,6.868
		c0.794,2.076,1.921,3.866,3.364,5.363s3.179,2.663,5.17,3.488c2.006,0.826,4.229,1.25,6.706,1.25s4.792-0.439,6.929-1.304
		l1.412,5.155c-2.616,1.042-5.394,1.566-8.341,1.566c-3.272,0-6.25-0.563-8.943-1.675c-2.724-1.127-5.062-2.678-7.061-4.653
		c-1.976-1.991-3.526-4.337-4.614-7.077c-1.111-2.731-1.659-5.711-1.659-8.982c0-3.241,0.563-6.235,1.706-8.976
		c1.126-2.747,2.716-5.132,4.746-7.123c2.014-2.014,4.406-3.581,7.199-4.73c2.786-1.127,5.841-1.69,9.152-1.69
		c3.41,0,6.513,0.533,9.329,1.582c2.809,1.081,5.239,2.555,7.253,4.484c2.029,1.906,3.596,4.213,4.692,6.899
		c1.096,2.693,1.658,5.664,1.658,8.929C54.871,33.238,54.617,34.913,54.131,36.448z"/>
	<path fill-rule="evenodd" clip-rule="evenodd" fill="#2AACE3" d="M31.776,27.304c-1.142,0-2.083,0.409-2.771,1.22
		c-0.679,0.81-1.019,1.99-1.019,3.542c0,1.521,0.34,2.708,1.019,3.511c0.687,0.811,1.628,1.22,2.771,1.22
		c0.902,0,1.644-0.193,2.191-0.595c0.563-0.408,1.034-0.902,1.443-1.52v-5.256c-0.409-0.617-0.88-1.134-1.443-1.513
		C33.42,27.505,32.679,27.304,31.776,27.304z"/>
</g>
</svg>
