<?xml version="1.0" encoding="utf-8"?>
<!-- Generator: Adobe Illustrator 16.0.0, SVG Export Plug-In . SVG Version: 6.00 Build 0)  -->
<!DOCTYPE svg PUBLIC "-//W3C//DTD SVG 1.1//EN" "http://www.w3.org/Graphics/SVG/1.1/DTD/svg11.dtd">
<svg version="1.1" id="Layer_1" xmlns="http://www.w3.org/2000/svg" xmlns:xlink="http://www.w3.org/1999/xlink" x="0px" y="0px"
	 width="64px" height="64px" viewBox="0 0 64 64" enable-background="new 0 0 64 64" xml:space="preserve">
<path fill-rule="evenodd" clip-rule="evenodd" fill="#2AACE3" d="M31.992,0C14.322,0,0,14.323,0,32.004
	C0,49.676,14.322,64,31.992,64C49.671,64,64,49.676,64,32.004C64,14.323,49.671,0,31.992,0z M22.015,47.416h-7.532V23.082h7.532
	V47.416z M18.213,19.895c-2.46,0-4.454-2.011-4.454-4.49c0-2.479,1.994-4.49,4.454-4.49c2.459,0,4.453,2.011,4.453,4.49
	C22.667,17.884,20.673,19.895,18.213,19.895z M50.24,47.416h-7.495V34.644c0-3.505-1.33-5.46-4.102-5.46
	c-3.014,0-4.589,2.036-4.589,5.46v12.772h-7.224V23.082h7.224v3.278c0,0,2.173-4.02,7.333-4.02c5.159,0,8.853,3.15,8.853,9.668
	V47.416z"/>
</svg>
