<?xml version="1.0" encoding="utf-8"?>
<!-- Generator: Adobe Illustrator 26.0.3, SVG Export Plug-In . SVG Version: 6.00 Build 0)  -->
<svg version="1.1" id="Layer_1" xmlns="http://www.w3.org/2000/svg" xmlns:xlink="http://www.w3.org/1999/xlink" x="0px" y="0px"
	 viewBox="0 0 128 128" style="enable-background:new 0 0 128 128;" xml:space="preserve">
<style type="text/css">
	.st0{fill:#0A66C2;}
</style>
<path class="st0" d="M0,0v128h128V0H0z M75.1,63.8h-0.5c-4.8,0.4-8.4,4.7-8,9.5v22.6H53.4V53.4h12.5v5.8h0.4
	c2.9-4.5,8.1-7.1,13.4-6.9c8.1,0,16.2,5,16.2,17.8l-0.1,25.8H82.5V73.1C82.5,66.4,79.4,63.8,75.1,63.8z M38.8,46.5
	c-4.3,0-7.7-3.4-7.7-7.7c0-4.3,3.4-7.7,7.7-7.7H39c0,0,0,0,0,0c4.2,0,7.6,3.5,7.6,7.7V39c0,0,0,0,0,0C46.5,43.2,43,46.6,38.8,46.5z
	 M45.4,53.4v42.5H32.1V53.4H45.4z"/>
</svg>
