<?xml version="1.0" encoding="utf-8"?>
<!-- Generator: Adobe Illustrator 15.1.0, SVG Export Plug-In . SVG Version: 6.00 Build 0)  -->
<!DOCTYPE svg PUBLIC "-//W3C//DTD SVG 1.1//EN" "http://www.w3.org/Graphics/SVG/1.1/DTD/svg11.dtd">
<svg version="1.1" id="Layer_1" xmlns="http://www.w3.org/2000/svg" xmlns:xlink="http://www.w3.org/1999/xlink" x="0px" y="0px"
	 width="434px" height="285px" viewBox="-7.71 0 434 285" enable-background="new -7.71 0 434 285" xml:space="preserve">
<g>
	<g>
		<path fill="#131B28" d="M116.532,144.945c-0.315,0-0.635-0.042-0.953-0.132c-1.86-0.525-2.943-2.459-2.418-4.319l3.353-11.879
			c0.435-1.541,1.837-2.55,3.367-2.55c0.298,0,0.602,0.039,0.904,0.119c1.849,0.493,2.959,2.379,2.493,4.235
			c-0.008,0.033-3.378,11.977-3.378,11.977C119.463,143.938,118.059,144.945,116.532,144.945z"/>
		<path fill="#343F54" d="M119.883,129.566h0.005 M119.883,129.566l-0.001,0.004l-3.352,11.875L119.883,129.566 M119.887,122.566
			h-0.005c-1.702,0-3.263,0.607-4.476,1.618c-0.685,0.568-1.266,1.271-1.698,2.081c-0.26,0.485-0.464,1.004-0.604,1.548
			l-3.311,11.73c-1.05,3.721,1.115,7.588,4.835,8.638c0.636,0.18,1.275,0.265,1.905,0.265c3.055,0,5.863-2.015,6.733-5.1
			l3.289-11.655c0.214-0.67,0.329-1.385,0.329-2.126C126.885,125.7,123.754,122.566,119.887,122.566L119.887,122.566z"/>
	</g>
	<g>
		<path fill="#131B28" d="M133.407,158.84c-1.933-0.012-3.491-1.587-3.479-3.521c0.011-1.926,1.576-3.479,3.5-3.479
			c0.007,0,3.715,0.021,3.715,0.021c1.933,0.012,3.491,1.587,3.479,3.521c-0.011,1.926-1.576,3.479-3.5,3.479
			C137.115,158.861,133.407,158.84,133.407,158.84z"/>
		<path fill="#343F54" d="M133.427,155.34l3.694,0.021L133.427,155.34 M133.427,148.34c-3.847,0-6.977,3.107-6.999,6.959
			c-0.022,3.866,3.093,7.019,6.959,7.041l3.694,0.021c0.014,0,0.028,0,0.042,0c3.847,0,6.977-3.107,6.999-6.959
			c0.022-3.866-3.093-7.019-6.959-7.041l-3.694-0.021C133.454,148.34,133.44,148.34,133.427,148.34L133.427,148.34z"/>
	</g>
	<g>
		<path fill="#131B28" d="M114.044,176.684c-1.927,0-3.493-1.559-3.5-3.487c-0.007-1.933,1.554-3.506,3.487-3.513l22.127-0.08
			l0.029,7C136.188,176.604,114.049,176.684,114.044,176.684z"/>
		<path fill="#343F54" d="M136.176,173.104l-22.131,0.08l22.127-0.08H136.176 M136.176,166.104h-0.004l-22.152,0.08
			c-3.866,0.014-6.989,3.159-6.975,7.025c0.014,3.857,3.146,6.975,7,6.975c0.009,0,0.017,0,0.026,0l22.131-0.08
			c3.861-0.014,6.981-3.151,6.975-7.013S140.036,166.104,136.176,166.104L136.176,166.104z"/>
	</g>
	<g>
		<path fill="#131B28" d="M137.095,158.861c-1.933-0.012-3.49-1.588-3.479-3.521c0.012-1.926,1.577-3.479,3.5-3.479
			c0.007,0,3.717,0.022,3.717,0.022c1.933,0.012,3.49,1.588,3.479,3.521c-0.012,1.926-1.577,3.479-3.5,3.479
			C140.805,158.884,137.095,158.861,137.095,158.861z"/>
		<path fill="#343F54" d="M137.117,155.361l3.695,0.022L137.117,155.361 M137.116,148.361c-3.846,0-6.976,3.105-6.999,6.957
			c-0.023,3.866,3.091,7.02,6.958,7.043l3.695,0.022c0.014,0,0.029,0,0.043,0c3.846,0,6.976-3.105,6.999-6.957
			c0.023-3.866-3.091-7.02-6.958-7.043l-3.695-0.022C137.145,148.361,137.131,148.361,137.116,148.361L137.116,148.361z"/>
	</g>
	<g>
		<path fill="#131B28" d="M138.114,175.098c-0.149,0-0.299-0.009-0.45-0.028c-1.746-0.226-3.053-1.712-3.053-3.472v-0.003
			c0-0.3,0.039-0.598,0.114-0.888l3.854-14.702c0.413-1.572,1.831-2.613,3.383-2.613c0.294,0,0.592,0.037,0.89,0.115
			c1.87,0.49,2.988,2.403,2.498,4.273l-3.854,14.705C141.089,174.04,139.684,175.098,138.114,175.098z"/>
		<path fill="#343F54" d="M141.966,156.893l-3.854,14.705v-0.003L141.966,156.893 M141.961,149.891
			c-3.105,0-5.942,2.082-6.766,5.227l-3.854,14.702c-0.152,0.58-0.229,1.177-0.229,1.775c0,3.521,2.614,6.494,6.105,6.944
			c0.302,0.039,0.603,0.058,0.901,0.058c3.141,0,5.95-2.114,6.765-5.225l3.854-14.705c0.98-3.739-1.256-7.565-4.996-8.546
			C143.146,149.966,142.548,149.891,141.961,149.891L141.961,149.891z"/>
	</g>
	<g>
		<path fill="#131B28" d="M212.415,141.151c-0.241,0-0.486-0.025-0.732-0.077c-1.89-0.402-3.097-2.261-2.695-4.151l7.18-33.761
			c0.351-1.646,1.804-2.772,3.42-2.772c0.241,0,0.486,0.025,0.732,0.077c1.891,0.402,3.097,2.261,2.695,4.151l-7.181,33.761
			C215.484,140.024,214.032,141.151,212.415,141.151z"/>
		<path fill="#343F54" d="M219.592,103.89l-7.181,33.761L219.592,103.89 M219.585,96.889c-3.234,0-6.14,2.254-6.84,5.545
			l-7.181,33.761c-0.805,3.781,1.609,7.499,5.391,8.303c0.49,0.104,0.98,0.154,1.463,0.154c3.234,0,6.14-2.254,6.84-5.545
			l7.181-33.761c0.805-3.781-1.609-7.499-5.391-8.303C220.557,96.939,220.067,96.889,219.585,96.889L219.585,96.889z"/>
	</g>
	<g>
		<path fill="#131B28" d="M195.684,132.61c-0.245,0-0.494-0.025-0.743-0.08c-1.89-0.408-3.09-2.271-2.682-4.16l5.451-25.222
			c0.351-1.625,1.789-2.761,3.418-2.761c0.124,0,0.249,0.006,0.375,0.02c1.779,0.19,3.128,1.691,3.128,3.48
			c0,0.249-0.026,0.499-0.079,0.742l-5.451,25.22C198.747,131.489,197.296,132.61,195.684,132.61z"/>
		<path fill="#343F54" d="M201.132,103.888v0.002l-5.451,25.22L201.132,103.888 M201.125,96.889c-3.258,0-6.133,2.271-6.835,5.521
			l-5.451,25.222c-0.817,3.778,1.584,7.504,5.363,8.32c0.499,0.108,0.996,0.16,1.486,0.16c3.225,0,6.126-2.242,6.835-5.522
			l5.451-25.22c0.105-0.486,0.158-0.982,0.158-1.479c0-3.578-2.699-6.582-6.256-6.961C201.623,96.902,201.373,96.889,201.125,96.889
			L201.125,96.889z"/>
	</g>
	<g>
		<path fill="#131B28" d="M170.05,176.429c-0.025,0-0.325-0.002-0.713-0.013c-8.454-0.213-14.759-2.889-18.73-7.953
			c-5.19-6.618-6.151-16.97-2.938-31.645l7.093-33.647c0.511-2.446,2.788-4.297,5.295-4.297h15.762c1.461,0,2.815,0.632,3.715,1.733
			c0.899,1.102,1.248,2.556,0.955,3.989l-4.958,24.217c-0.158,0.766-0.396,1.975-0.552,2.802l-1.302,6.941l-0.086,0.407
			c-0.94,4.348-2.229,10.311-0.73,12.167c0.81,1.003,2.959,1.214,4.619,1.214h9.595l10.633-49.198
			c0.536-2.443,2.814-4.277,5.301-4.277h15.356c1.472,0.002,2.825,0.639,3.721,1.747c0.896,1.108,1.235,2.567,0.931,4.002
			l-14.364,67.519c-0.524,2.448-2.801,4.29-5.296,4.29H170.05z"/>
		<path fill="#343F54" d="M218.362,102.371c0.852,0.001,1.405,0.685,1.228,1.522l-7.181,33.76l-7.183,33.757
			c-0.179,0.834-1.021,1.519-1.873,1.519H170.05c0,0-0.268-0.002-0.614-0.012c-21.216-0.534-22.25-17.528-18.348-35.35l0.315-1.494
			c0.001-0.007,0.002-0.017,0.005-0.024l3.389-16.077l3.39-16.079c0.174-0.833,1.017-1.519,1.87-1.519h15.762
			c0.852,0,1.411,0.685,1.24,1.521l-2.48,12.109l-2.478,12.108c-0.16,0.776-0.403,2.011-0.563,2.856l-0.526,2.803l-0.49,2.615
			c-0.014,0.075-0.03,0.158-0.045,0.241l-0.241,1.284c-0.022,0.106-0.044,0.205-0.066,0.308
			c-2.202,10.189-3.445,17.627,7.309,17.627h10.867c0.854,0,1.697-0.681,1.879-1.514l5.45-25.222l5.452-25.223
			c0.183-0.832,1.027-1.516,1.88-1.516H218.362 M218.374,95.371c-0.004,0-0.008,0-0.012,0h-15.356c-4.159,0-7.825,2.951-8.717,7.016
			l-5.457,25.245l-4.584,21.215h-6.77c-0.859,0-1.436-0.068-1.798-0.137c-0.179-2.02,0.861-6.833,1.332-9.012l0.074-0.341
			c0.011-0.051,0.021-0.102,0.03-0.153l0.241-1.284c0.005-0.025,0.009-0.05,0.014-0.075l0.009-0.051l0.029-0.157l0.483-2.575
			l0.526-2.801c0.151-0.805,0.385-1.989,0.538-2.733l2.48-12.12l2.48-12.107c0.505-2.47-0.104-4.985-1.671-6.905
			c-1.567-1.919-3.909-3.021-6.426-3.021h-15.762c-4.197,0-7.865,2.981-8.723,7.089l-3.387,16.064l-3.385,16.063
			c-0.006,0.029-0.013,0.058-0.019,0.087l-0.299,1.418c-3.443,15.746-2.263,27.04,3.608,34.528
			c4.646,5.925,11.849,9.051,21.407,9.292c0.408,0.012,0.74,0.014,0.74,0.014c0.016,0,0.035,0,0.051,0h33.304
			c4.176,0,7.842-2.966,8.718-7.052l7.185-33.767l7.181-33.76c0.525-2.475-0.069-5.001-1.632-6.933
			C223.243,96.485,220.899,95.375,218.374,95.371L218.374,95.371z"/>
	</g>
	
		<path fill="#131B28" stroke="#343F54" stroke-width="7" stroke-linecap="round" stroke-linejoin="round" stroke-miterlimit="10" d="
		M279.622,156.021c0.854,0,1.411,0.685,1.24,1.519l-1.492,7.288"/>
	<g>
		<polygon fill="#131B28" points="277.882,172.119 279.372,164.826 277.881,172.121 277.882,172.119 		"/>
		<path fill="#343F54" d="M279.372,164.826h0.005 M279.372,164.826l-1.49,7.293c0,0,0,0-0.001,0L279.372,164.826 M277.881,172.119
			v0.002C277.881,172.12,277.881,172.12,277.881,172.119 M279.365,157.825c-0.578,0-1.146,0.071-1.692,0.209
			c-0.984,0.245-1.888,0.699-2.658,1.313c-0.828,0.659-1.512,1.507-1.977,2.496c-0.253,0.536-0.44,1.109-0.551,1.71l-1.464,7.165
			c-0.207,1.013-0.185,2.019,0.032,2.965c0.656,2.875,3.087,5.103,6.136,5.404c0.233,0.023,0.466,0.034,0.695,0.034
			c2.176,0,4.177-1.012,5.477-2.646c0.453-0.569,0.822-1.216,1.083-1.924c0.001-0.002,0.002-0.004,0.002-0.006
			c0.001,0,0.001-0.001,0.001-0.002c0.122-0.331,0.22-0.676,0.292-1.031l1.442-7.055c0.125-0.523,0.191-1.069,0.191-1.631
			c0-3.686-2.847-6.706-6.461-6.979C279.729,157.832,279.547,157.825,279.365,157.825L279.365,157.825z"/>
	</g>
	<g>
		<path fill="#131B28" d="M247.713,177.29c-1.933,0-3.5-1.567-3.5-3.5s1.567-3.5,3.5-3.5c10.472,0,24.292-0.106,28.278-0.14
			l0.028,3.5l1.43,3.194c-0.45,0.202-0.942,0.308-1.437,0.308C275.381,177.158,259.856,177.29,247.713,177.29z"/>
		<path fill="#343F54" d="M276.019,173.65h0.005 M276.019,173.65c-0.002,0-0.004,0.002-0.007,0.002
			c-0.002,0-15.77,0.137-28.172,0.138C258.032,173.789,271.518,173.688,276.019,173.65 M247.841,173.79c-0.043,0-0.086,0-0.128,0
			C247.755,173.79,247.798,173.79,247.841,173.79 M276.024,166.65h-0.005c-0.02,0-0.038,0-0.058,0l0,0
			c-3.954,0.033-17.668,0.139-28.122,0.14h-0.127c-3.866,0-7,3.134-7,7s3.134,7,7,7h0.127c0.001,0,0.001,0,0.001,0
			c12.14-0.001,27.573-0.132,28.225-0.138c0.307-0.003,0.613-0.025,0.916-0.067c3.411-0.47,6.041-3.396,6.041-6.935
			C283.022,169.784,279.89,166.65,276.024,166.65L276.024,166.65z"/>
	</g>
	<g>
		<path fill="#131B28" d="M238.063,152.46c-0.987-0.002-1.936-0.425-2.597-1.157c-1.156-1.278-1.077-2.07-0.565-7.219
			c0.178-1.793,1.687-3.154,3.481-3.154c0.02,0,1.976,0.032,1.976,0.032c1.922,0.031,3.459,1.606,3.443,3.528
			c-0.011,1.326-0.758,2.476-1.852,3.061c-0.385,2.375-0.933,4.91-3.876,4.91C238.07,152.46,238.066,152.46,238.063,152.46z"/>
		<path fill="#343F54" d="M238.384,144.43l1.918,0.031c-0.854,0-1.762,1.375-1.75,2.173c0,0-0.37,2.326-0.481,2.326
			C237.996,148.96,238.037,147.916,238.384,144.43 M238.382,137.43c-3.591,0-6.607,2.723-6.964,6.309
			c-0.541,5.448-0.743,7.487,1.457,9.917c1.327,1.466,3.219,2.305,5.195,2.305c2.587,0,5.957-1.516,6.943-5.789
			c0.044-0.19,0.092-0.42,0.14-0.664c1.312-1.261,2.132-3.028,2.148-4.989c0.031-3.843-3.043-6.993-6.886-7.056l-1.918-0.031
			C238.459,137.43,238.421,137.43,238.382,137.43L238.382,137.43z"/>
	</g>
	<g>
		<path fill="#131B28" d="M248.815,177.289c-1.9,0-3.46-1.521-3.498-3.43c-0.039-1.933,1.496-3.531,3.429-3.569l0.366-0.003
			c1.933,0,3.5,1.567,3.5,3.5s-1.567,3.5-3.5,3.5C249.112,177.287,248.839,177.289,248.815,177.289z"/>
		<path fill="#343F54" d="M249.112,173.787h0.005 M249.112,173.787c-0.013,0-0.026,0-0.04,0
			C249.086,173.787,249.099,173.787,249.112,173.787 M249.072,173.787c-0.001,0-0.001,0-0.002,0
			C249.071,173.787,249.071,173.787,249.072,173.787 M249.07,173.787c-0.067,0-0.135,0-0.202,0.001
			C248.934,173.787,249.003,173.787,249.07,173.787 M248.868,173.788c-0.001,0-0.002,0-0.002,0S248.867,173.788,248.868,173.788
			 M248.866,173.788c-0.002,0-0.005,0-0.007,0C248.861,173.788,248.864,173.788,248.866,173.788 M248.859,173.788
			c-0.001,0-0.003,0-0.004,0C248.856,173.788,248.858,173.788,248.859,173.788 M248.855,173.788c-0.001,0-0.003,0-0.004,0
			C248.852,173.788,248.854,173.788,248.855,173.788 M248.851,173.788c-0.002,0-0.004,0-0.006,0
			C248.847,173.788,248.849,173.788,248.851,173.788 M248.845,173.788c-0.001,0-0.002,0-0.003,0.001
			C248.844,173.788,248.844,173.788,248.845,173.788 M248.843,173.789c-0.003,0-0.005,0-0.008,0
			C248.838,173.789,248.84,173.789,248.843,173.789 M248.835,173.789C248.835,173.789,248.835,173.789,248.835,173.789
			S248.835,173.789,248.835,173.789 M248.834,173.789c-0.003,0-0.006,0-0.008,0C248.828,173.789,248.831,173.789,248.834,173.789
			 M248.826,173.789C248.825,173.789,248.825,173.789,248.826,173.789C248.825,173.789,248.825,173.789,248.826,173.789
			 M248.825,173.789c-0.003,0-0.006,0-0.009,0C248.819,173.789,248.822,173.789,248.825,173.789 M249.07,166.787
			c-0.002,0-0.003,0-0.004,0h-0.001c-0.025,0-0.051,0-0.076,0l-0.11,0.001c-0.004,0-0.008,0-0.011,0c-0.016,0-0.031,0-0.047,0
			c-0.02,0-0.039,0.001-0.06,0.001c-0.009,0-0.019,0-0.027,0c-0.002,0-0.005,0-0.008,0c-0.014,0.001-0.028,0.001-0.042,0.001
			c-0.005,0-0.009,0-0.012,0.001c-3.861,0.081-6.929,3.274-6.853,7.136c0.075,3.817,3.191,6.862,6.993,6.862
			c0.044,0,0.087,0,0.13-0.001c0.002,0,0.003,0,0.004,0c0.005,0,0.009,0,0.014,0c0.001-0.001,0.002-0.001,0.002-0.001h0.111h-0.002
			h0.002h0.001c0.006,0,0.012,0,0.018,0s0.013,0,0.02,0c3.866,0,7.003-3.134,7.003-7s-3.132-7-6.998-7h-0.005h-0.04H249.07
			L249.07,166.787L249.07,166.787z"/>
	</g>
	
		<path fill="#131B28" stroke="#343F54" stroke-width="7" stroke-linecap="round" stroke-linejoin="round" stroke-miterlimit="10" d="
		M279.622,156.021c0.854,0,1.411,0.685,1.24,1.519l-1.492,7.288l-0.242,1.188"/>
	<g>
		<path fill="#131B28" d="M256.319,177.27c-1.933,0-3.5-1.567-3.5-3.5s1.567-3.5,3.5-3.5s3.531,1.567,3.531,3.5
			s-1.536,3.5-3.469,3.5H256.319z"/>
		<path fill="#343F54" d="M256.382,173.77h-0.063H256.382 M256.382,166.77h-0.063c-3.866,0-7,3.134-7,7s3.134,7,7,7h0.063
			c3.866,0,7-3.134,7-7S260.248,166.77,256.382,166.77L256.382,166.77z"/>
	</g>
	<g>
		<path fill="#131B28" d="M252.393,177.281c-1.933,0-3.5-1.567-3.5-3.5s1.567-3.5,3.5-3.5h0.219c1.933,0,3.5,1.567,3.5,3.5
			s-1.567,3.5-3.5,3.5H252.393z"/>
		<path fill="#343F54" d="M252.612,173.781h-0.219H252.612 M252.612,166.781h-0.219c-3.866,0-7,3.134-7,7s3.134,7,7,7h0.219
			c3.866,0,7-3.134,7-7S256.478,166.781,252.612,166.781L252.612,166.781z"/>
	</g>
	<g>
		<path fill="#131B28" d="M251.1,177.287c-1.906,0-3.467-1.529-3.499-3.442c-0.031-1.933,1.509-3.525,3.442-3.558l0.418-0.002
			c1.933,0,3.5,1.567,3.5,3.5s-1.567,3.5-3.5,3.5C251.462,177.285,251.12,177.287,251.1,177.287z"/>
		<path fill="#343F54" d="M251.462,173.785c-0.122,0-0.242,0-0.36,0.002C251.219,173.785,251.34,173.785,251.462,173.785
			 M251.462,166.785c-0.161,0-0.32,0-0.477,0.003c-3.865,0.064-6.947,3.25-6.883,7.115c0.063,3.826,3.185,6.884,6.997,6.884
			c0.039,0,0.079,0,0.118-0.001l0.244-0.001c3.866,0,7-3.134,7-7S255.328,166.785,251.462,166.785L251.462,166.785z"/>
	</g>
	<g>
		<path fill="#131B28" d="M249.975,177.287c-1.933,0-3.5-1.567-3.5-3.5s1.567-3.5,3.5-3.5h0.316c1.933,0,3.5,1.567,3.5,3.5
			s-1.567,3.5-3.5,3.5H249.975z"/>
		<path fill="#343F54" d="M250.292,173.787h-0.316H250.292 M250.292,166.787h-0.316c-3.866,0-7,3.134-7,7s3.134,7,7,7h0.316
			c3.866,0,7-3.134,7-7S254.158,166.787,250.292,166.787L250.292,166.787z"/>
	</g>
	<g>
		<path fill="#131B28" d="M251.462,177.283c-1.933,0-3.5-1.567-3.5-3.5s1.567-3.5,3.5-3.5l0.931-0.002c1.933,0,3.5,1.567,3.5,3.5
			s-1.567,3.5-3.5,3.5L251.462,177.283z"/>
		<path fill="#343F54" d="M252.392,173.781c-0.312,0-0.622,0.002-0.931,0.002C251.77,173.783,252.081,173.781,252.392,173.781
			 M252.392,166.781l-0.489,0.001l-0.441,0.001c-3.866,0-7,3.134-7,7s3.134,7,7,7l0.485-0.001l0.445-0.001c3.866,0,7-3.134,7-7
			S256.259,166.781,252.392,166.781L252.392,166.781z"/>
	</g>
	<g>
		<path fill="#131B28" d="M252.617,177.283c-1.928,0-3.494-1.56-3.5-3.489c-0.006-1.933,1.556-3.505,3.489-3.511
			c0,0,3.71-0.014,3.715-0.014c1.926,0,3.491,1.556,3.5,3.483c0.009,1.933-1.551,3.508-3.483,3.517
			C256.338,177.27,252.621,177.283,252.617,177.283z"/>
		<path fill="#343F54" d="M256.321,173.77h0.005 M256.321,173.77c-1.24,0.006-2.482,0.01-3.704,0.014
			C253.839,173.779,255.079,173.775,256.321,173.77 M256.322,166.77c-0.012,0-0.022,0-0.034,0c-1.201,0.006-2.401,0.01-3.585,0.014
			h-0.108c-3.866,0.013-6.99,3.156-6.978,7.022c0.013,3.858,3.145,6.978,7,6.978c0.007,0,0.015,0,0.022,0h0.119
			c1.187-0.004,2.392-0.008,3.596-0.014c0.012,0,0.022,0,0.034,0c3.835-0.037,6.936-3.156,6.936-7c0-3.863-3.127-6.995-6.989-7
			C256.331,166.77,256.326,166.77,256.322,166.77L256.322,166.77z"/>
	</g>
	<g>
		<path fill="#131B28" d="M256.377,177.27c-1.928,0-3.493-1.559-3.5-3.487c-0.007-1.933,1.554-3.505,3.486-3.513
			c8.152-0.031,16.323-0.094,19.634-0.119c0.009,0,0.018,0,0.027,0c1.92,0,3.484,1.549,3.499,3.473
			c0.015,1.933-1.539,3.512-3.472,3.527c-3.317,0.026-11.505,0.09-19.662,0.119C256.385,177.27,256.381,177.27,256.377,177.27z"/>
		<path fill="#343F54" d="M276.023,173.65h0.005 M276.023,173.65c-3.314,0.026-11.495,0.09-19.646,0.119
			C264.534,173.738,272.711,173.676,276.023,173.65 M276.024,166.65c-0.019,0-0.036,0-0.055,0
			c-3.124,0.024-11.424,0.088-19.619,0.119c-3.866,0.015-6.988,3.16-6.974,7.026c0.015,3.856,3.146,6.974,6.999,6.974
			c0.009,0,0.018,0,0.026,0c5.666-0.021,12.285-0.061,19.674-0.119c3.842-0.028,6.95-3.151,6.95-7c0-3.859-3.121-6.989-6.979-7
			C276.04,166.65,276.032,166.65,276.024,166.65L276.024,166.65z"/>
	</g>
	<g>
		<path fill="#131B28" d="M277.882,175.626c-0.338,0-0.681-0.05-1.02-0.152c-1.728-0.526-2.772-2.28-2.41-4.05l1.25-6.109
			c0.339-1.657,1.797-2.8,3.425-2.8c0.232,0,0.469,0.023,0.705,0.072c1.894,0.387,3.115,2.236,2.728,4.13l-1.247,6.1
			c-0.031,0.152-0.072,0.304-0.123,0.451c-0.041,0.12-0.089,0.237-0.143,0.351C280.46,174.864,279.211,175.626,277.882,175.626z"/>
		<path fill="#343F54" d="M279.131,166.016l-1.249,6.106l0,0L279.131,166.016 M277.882,172.122c0,0.002,0,0.003-0.001,0.003
			L277.882,172.122 M277.881,172.125v0.002C277.881,172.126,277.881,172.126,277.881,172.125 M279.124,159.015
			c-3.257,0-6.173,2.284-6.852,5.599l-1.249,6.106c-0.003,0.017-0.007,0.033-0.01,0.05c-0.159,0.806-0.173,1.608-0.059,2.381
			c0.459,3.124,2.988,5.611,6.216,5.94c0.24,0.024,0.479,0.036,0.716,0.036c3.273,0,6.154-2.291,6.843-5.554
			c0.005-0.021,0.01-0.043,0.014-0.065l1.246-6.09c0.774-3.787-1.668-7.485-5.456-8.261
			C280.06,159.061,279.589,159.015,279.124,159.015L279.124,159.015z"/>
	</g>
	<g>
		<path fill="#131B28" d="M250.292,177.287c-1.933,0-3.5-1.567-3.5-3.5s1.567-3.5,3.5-3.5h0.812c1.933,0,3.5,1.567,3.5,3.5
			s-1.567,3.5-3.5,3.5H250.292z"/>
		<path fill="#343F54" d="M251.103,173.787h-0.812H251.103 M251.103,166.787h-0.812c-3.866,0-7,3.134-7,7s3.134,7,7,7h0.812
			c3.866,0,7-3.134,7-7S254.969,166.787,251.103,166.787L251.103,166.787z"/>
	</g>
	<g>
		<path fill="#131B28" d="M247.716,177.289c-1.933,0-3.5-1.567-3.5-3.5s1.567-3.5,3.5-3.5h1.097c1.933,0,3.5,1.567,3.5,3.5
			s-1.567,3.5-3.5,3.5H247.716z"/>
		<path fill="#343F54" d="M248.812,173.789h-1.097H248.812 M248.812,166.789h-1.097c-3.866,0-7,3.134-7,7s3.134,7,7,7h1.097
			c3.866,0,7-3.134,7-7S252.678,166.789,248.812,166.789L248.812,166.789z"/>
	</g>
	<g>
		<path fill="#131B28" d="M249.108,177.287c-1.933,0-3.5-1.567-3.5-3.5s1.567-3.5,3.5-3.5h0.864c1.933,0,3.5,1.567,3.5,3.5
			s-1.567,3.5-3.5,3.5H249.108z"/>
		<path fill="#343F54" d="M249.972,173.787h-0.864H249.972 M249.972,166.787h-0.864c-3.866,0-7,3.134-7,7s3.134,7,7,7h0.864
			c3.866,0,7-3.134,7-7S253.839,166.787,249.972,166.787L249.972,166.787z"/>
	</g>
	<g>
		<path fill="#131B28" d="M22.39,164.144c-0.241,0-0.486-0.025-0.731-0.077c-1.891-0.402-3.097-2.261-2.695-4.151l2.617-12.313
			l2.737-12.129c0.367-1.626,1.811-2.73,3.411-2.73c0.255,0,0.514,0.028,0.774,0.087c1.885,0.425,3.069,2.299,2.644,4.184
			l-2.385,10.573c-0.186,0.821-0.481,2.161-0.654,2.983l-2.297,10.8C25.46,163.016,24.007,164.144,22.39,164.144z"/>
		<path fill="#343F54" d="M27.731,136.244h0.005 M27.731,136.244l-2.385,10.573c-0.188,0.834-0.489,2.197-0.665,3.033l-2.295,10.793
			l2.617-12.313L27.731,136.244 M27.725,129.242c-0.55,0-1.091,0.065-1.613,0.19c-1.017,0.241-1.947,0.703-2.738,1.333
			c-0.803,0.638-1.47,1.454-1.934,2.406c-0.256,0.522-0.448,1.081-0.567,1.667l-2.697,11.951c-0.007,0.028-0.013,0.057-0.019,0.086
			l-2.617,12.313c-0.804,3.781,1.61,7.498,5.392,8.302c0.491,0.104,0.98,0.154,1.462,0.154c3.234,0,6.141-2.255,6.84-5.545
			l2.295-10.793c0.173-0.823,0.464-2.141,0.646-2.946l2.334-10.346c0.147-0.565,0.226-1.159,0.226-1.77
			c0-3.664-2.813-6.67-6.396-6.975C28.132,129.251,27.927,129.242,27.725,129.242L27.725,129.242z"/>
	</g>
	<g>
		<path fill="#131B28" d="M33.146,122.835c-1.477,0-2.836-0.642-3.73-1.761c-0.893-1.119-1.218-2.586-0.891-4.026l3.198-14.118
			c0.559-2.421,2.84-4.237,5.309-4.237h16.864c1.473,0,2.831,0.639,3.727,1.753c0.895,1.114,1.226,2.578,0.909,4.015l-3.09,14.108
			c-0.537,2.434-2.815,4.266-5.301,4.266H33.146z"/>
		<path fill="#343F54" d="M53.896,102.193c0.853,0,1.401,0.682,1.218,1.514v0.002l-1.545,7.053l-1.546,7.059
			c-0.184,0.832-1.03,1.514-1.882,1.514H33.146c-0.854,0-1.396-0.682-1.208-1.512l1.599-7.061l1.6-7.058
			c0.191-0.83,1.041-1.511,1.896-1.511H53.896 M53.896,95.193H37.032c-4.123,0-7.789,2.917-8.716,6.937l-1.605,7.084l-1.599,7.063
			c-0.563,2.48,0.009,5.026,1.57,6.981c1.562,1.955,3.918,3.077,6.465,3.077h16.995c4.155,0,7.822-2.946,8.717-7.006l1.548-7.07
			l1.545-7.052c0.011-0.05,0.021-0.101,0.031-0.151c0.488-2.428-0.103-4.898-1.632-6.801C58.788,96.309,56.435,95.193,53.896,95.193
			L53.896,95.193z"/>
	</g>
	<g>
		<path fill="#131B28" d="M45.283,152.054c-0.245,0-0.494-0.026-0.743-0.08c-1.89-0.408-3.09-2.271-2.682-4.16l4.946-22.883
			c0.354-1.641,1.805-2.762,3.417-2.762c0.245,0,0.494,0.026,0.743,0.08c1.89,0.408,3.09,2.271,2.682,4.16l-4.946,22.883
			C48.346,150.933,46.896,152.054,45.283,152.054z"/>
		<path fill="#343F54" d="M50.226,125.67v0.002l-4.946,22.881L50.226,125.67 M50.22,118.67c-3.258,0-6.133,2.271-6.835,5.521
			l-4.946,22.883c-0.817,3.778,1.584,7.504,5.363,8.32c0.498,0.107,0.996,0.159,1.486,0.159c3.225,0,6.126-2.241,6.835-5.521
			l4.946-22.881c0.105-0.486,0.158-0.982,0.158-1.479c0-3.578-2.698-6.581-6.256-6.961C50.719,118.684,50.468,118.67,50.22,118.67
			L50.22,118.67z"/>
	</g>
	<g>
		<path fill="#131B28" d="M15.089,205.1c-5.367-0.001-13.814-0.108-13.898-0.109c-0.473-0.007-0.936-0.108-1.361-0.295
			c-1.258-0.549-2.126-1.813-2.101-3.271c0.034-1.911,1.593-3.438,3.499-3.438c0.015,0,0.029,0,0.043,0
			c2.754,0.034,9.613,0.112,13.818,0.113c0.001,0,0.068,0.001,0.068,0.001c1.902,0.036,3.458,1.589,3.457,3.499
			c0,1.934-1.541,3.5-3.474,3.5H15.089z"/>
		<path fill="#343F54" d="M1.228,201.486c3.014,0.037,9.75,0.112,13.86,0.113c-5.406-0.001-13.854-0.109-13.854-0.109
			C1.233,201.488,1.231,201.486,1.228,201.486 M15.089,201.6c0.018,0,0.035,0,0.052,0C15.123,201.6,15.106,201.6,15.089,201.6"/>
	</g>
	<g>
		<path fill="#131B28" d="M27.732,139.744c-0.256,0-0.515-0.028-0.774-0.087c-1.885-0.426-3.069-2.299-2.643-4.185l2.388-10.574
			c0.367-1.626,1.811-2.73,3.411-2.73c0.256,0,0.515,0.028,0.774,0.087c1.885,0.426,3.069,2.299,2.643,4.185l-2.388,10.574
			C30.775,138.64,29.331,139.744,27.732,139.744z"/>
		<path fill="#343F54" d="M30.116,125.669l-2.388,10.574L30.116,125.669 M30.11,118.667c-3.2,0-6.087,2.208-6.822,5.459
			L20.9,134.701c-0.852,3.771,1.515,7.519,5.286,8.37c0.519,0.117,1.038,0.174,1.548,0.174c3.2,0,6.087-2.208,6.822-5.459
			l2.388-10.574c0.852-3.771-1.515-7.519-5.286-8.37C31.139,118.724,30.62,118.667,30.11,118.667L30.11,118.667z"/>
	</g>
	<g>
		<path fill="#131B28" d="M15.14,205.098c-4.237,0-11.17-0.079-13.955-0.113c-1.48-0.022-2.827-0.681-3.703-1.806
			c-0.876-1.126-1.185-2.594-0.845-4.026l3.525-14.818c0.569-2.379,2.842-4.17,5.288-4.17l5.371,0.099
			c1.597,0,4.019-3.676,5.139-6.963c0.225-0.668,0.557-1.882,0.708-2.594l4.586-21.584c0.18-0.848,0.484-2.229,0.674-3.073
			l4.774-21.15c0.551-2.421,2.832-4.243,5.307-4.243h16.997c1.469,0,2.825,0.637,3.721,1.748c0.896,1.11,1.232,2.57,0.921,4.005
			l-10.22,47.282C38.701,195.994,30.505,205.098,15.14,205.098z"/>
		<path fill="#343F54" d="M49.006,124.156c0.851,0,1.401,0.682,1.222,1.513l-4.946,22.883l-5.273,24.399
			c-4.506,21.258-11.533,28.646-24.867,28.646c-4.105,0-10.886-0.076-13.912-0.113c-0.849-0.013-1.382-0.696-1.186-1.524
			l1.762-7.407l1.763-7.408c0.196-0.821,1.039-1.48,1.883-1.48c0.007,0,0.015,0,0.022,0h0.004c0,0,2.031,0.037,4.618,0.086
			c0.22,0.006,0.439,0.008,0.666,0.012c0.03,0.001,0.06,0.001,0.09,0.001c5.285,0,8.424-9.341,8.424-9.341
			c0.272-0.809,0.639-2.152,0.816-2.986l2.292-10.793l2.294-10.793c0.178-0.836,0.478-2.199,0.665-3.033l2.386-10.573l2.388-10.574
			c0.189-0.833,1.04-1.514,1.893-1.514H49.006 M49.006,117.156H32.009c-4.134,0-7.801,2.928-8.718,6.962l-2.39,10.584l-2.386,10.574
			c-0.194,0.861-0.501,2.261-0.684,3.118l-2.294,10.794l-2.292,10.794c-0.124,0.58-0.417,1.654-0.603,2.205
			c-0.583,1.685-1.742,3.748-2.531,4.563l-4.506-0.084c-0.032,0-0.065-0.001-0.097-0.001c-0.021,0-0.042,0-0.057,0
			c-4.085,0-7.74,2.881-8.691,6.851l-1.765,7.418l-1.762,7.407c-0.587,2.476-0.044,5.021,1.488,6.988
			c1.532,1.968,3.866,3.117,6.403,3.155c2.81,0.034,9.761,0.114,14.017,0.114c21.56,0,28.131-17.286,31.715-34.195l5.268-24.372
			l4.946-22.882c0.535-2.474-0.055-5.005-1.618-6.943C53.887,118.267,51.538,117.156,49.006,117.156L49.006,117.156z"/>
	</g>
	
		<path fill="#131B28" stroke="#343F54" stroke-width="7" stroke-linecap="round" stroke-linejoin="round" stroke-miterlimit="10" d="
		M290.452,172.925c-0.852,0-1.405-0.685-1.226-1.519l12.786-59.891"/>
	<g>
		<path fill="#131B28" d="M308.226,174.905c-0.23,0-0.464-0.023-0.698-0.07c-1.895-0.384-3.119-2.229-2.736-4.125l5.171-25.563
			c0.336-1.66,1.796-2.806,3.427-2.806c0.23,0,0.464,0.022,0.698,0.07c1.895,0.383,3.119,2.229,2.736,4.125l-5.171,25.563
			C311.317,173.759,309.857,174.905,308.226,174.905z"/>
		<path fill="#343F54" d="M313.393,145.841l-5.171,25.563L313.393,145.841 M313.385,138.839c-3.262,0-6.182,2.292-6.854,5.614
			l-5.171,25.563c-0.767,3.789,1.685,7.482,5.474,8.249c0.468,0.095,0.936,0.14,1.396,0.14c3.262,0,6.182-2.292,6.854-5.613
			l5.171-25.563c0.767-3.789-1.685-7.482-5.474-8.249C314.313,138.885,313.845,138.839,313.385,138.839L313.385,138.839z"/>
	</g>
	<g>
		<path fill="#131B28" d="M290.45,176.426c-1.47,0-2.827-0.638-3.724-1.75c-0.897-1.111-1.232-2.573-0.922-4.011l6.391-29.933
			c0.351-1.644,1.804-2.77,3.419-2.77c0.242,0,0.488,0.025,0.734,0.078c1.891,0.403,3.096,2.263,2.692,4.153l-5.859,27.449
			c1.347,0.497,2.311,1.792,2.302,3.304c-0.012,1.925-1.556,3.479-3.48,3.479H290.45z"/>
		<path fill="#343F54" d="M295.618,141.463h0.005 M295.618,141.463l-6.068,28.428c-0.181,0.836-0.241,1.857-0.138,2.275
			s1.738,0.76,2.591,0.76h-1.553c-0.852,0-1.405-0.686-1.225-1.52L295.618,141.463 M295.611,134.461c-0.565,0-1.121,0.069-1.656,0.2
			c-0.998,0.243-1.913,0.701-2.692,1.321c-0.819,0.65-1.497,1.486-1.962,2.461c-0.254,0.53-0.442,1.096-0.557,1.689l-6.364,29.811
			c-0.532,2.456,0.058,4.989,1.622,6.929c1.564,1.94,3.915,3.053,6.448,3.053h1.553c3.866,0,7-3.134,7-7
			c0-1.864-0.729-3.558-1.916-4.812l5.328-24.961c0.135-0.542,0.206-1.107,0.206-1.69c0-3.677-2.833-6.692-6.437-6.978
			C295.992,134.469,295.802,134.461,295.611,134.461L295.611,134.461z"/>
	</g>
	<g>
		<path fill="#131B28" d="M304.816,176.425c-1.933,0-3.5-1.567-3.5-3.5s1.567-3.5,3.5-3.5c0.073,0,0.147-0.002,0.222-0.005
			c0.031-0.093,0.055-0.176,0.068-0.237c0.351-1.646,1.808-2.785,3.428-2.785c0.234,0,0.472,0.023,0.71,0.073
			c1.886,0.392,3.104,2.22,2.722,4.107l-0.308,1.521c-0.499,2.466-2.772,4.326-5.289,4.326H304.816z"/>
		<path fill="#343F54" d="M308.535,169.884h0.005 M308.535,169.884l-0.308,1.521c-0.169,0.836-1.005,1.521-1.858,1.521h-1.553
			c0.853,0,1.932-0.153,2.396-0.342S308.364,170.721,308.535,169.884 M308.528,162.883c-0.577,0-1.144,0.071-1.688,0.208
			c-0.989,0.246-1.896,0.703-2.669,1.32c-0.657,0.522-1.222,1.165-1.658,1.901c-2.734,0.953-4.696,3.554-4.696,6.612
			c0,3.866,3.134,7,7,7h1.553c4.217,0,7.884-3,8.72-7.134l0.261-1.29c0.123-0.52,0.188-1.061,0.188-1.617
			c0-3.687-2.849-6.708-6.466-6.98C308.89,162.89,308.708,162.883,308.528,162.883L308.528,162.883z"/>
	</g>
	<g>
		<path fill="#131B28" d="M310.816,162.124c-0.23,0-0.464-0.023-0.698-0.07c-1.895-0.384-3.119-2.23-2.736-4.125l2.283-11.282
			c0.335-1.656,1.791-2.807,3.427-2.807c0.197,0,0.396,0.018,0.598,0.052c1.865,0.321,3.138,2.067,2.871,3.941
			c-0.01,0.073-0.023,0.148-0.039,0.225l-2.278,11.26C313.907,160.978,312.447,162.124,310.816,162.124z"/>
		<path fill="#343F54" d="M313.095,147.341c-0.001,0.007-0.002,0.017-0.004,0.022l-2.279,11.26L313.095,147.341 M313.088,140.34
			c-3.271,0-6.183,2.3-6.854,5.612l-2.283,11.282c-0.767,3.789,1.684,7.482,5.473,8.25c0.469,0.095,0.936,0.14,1.396,0.14
			c3.262,0,6.181-2.292,6.853-5.612l2.279-11.26l0,0c0.031-0.154,0.058-0.309,0.079-0.462c0.511-3.733-2.026-7.205-5.744-7.847
			C313.885,140.374,313.483,140.34,313.088,140.34L313.088,140.34z"/>
	</g>
	
		<path fill="#131B28" stroke="#343F54" stroke-width="7" stroke-linecap="round" stroke-linejoin="round" stroke-miterlimit="10" d="
		M361.262,115.527l0.704,2.91c0.193,0.833-0.345,1.51-1.194,1.512"/>
	<g>
		<path fill="#131B28" d="M308.536,173.387c-0.23,0-0.463-0.023-0.697-0.07c-1.895-0.383-3.12-2.229-2.737-4.124l2.276-11.262
			c0.336-1.661,1.796-2.808,3.427-2.808c0.23,0,0.463,0.023,0.697,0.07c1.895,0.383,3.12,2.229,2.737,4.124l-2.276,11.262
			C311.627,172.24,310.167,173.387,308.536,173.387z"/>
		<path fill="#343F54" d="M310.808,158.624l-2.276,11.262L310.808,158.624 M310.801,151.623c-3.263,0-6.182,2.293-6.854,5.614
			l-2.276,11.262c-0.766,3.789,1.686,7.482,5.475,8.248c0.468,0.095,0.935,0.14,1.395,0.14c3.263,0,6.182-2.293,6.854-5.614
			l2.276-11.262c0.766-3.789-1.686-7.482-5.475-8.248C311.727,151.668,311.26,151.623,310.801,151.623L310.801,151.623z"/>
	</g>
	<g>
		<path fill="#131B28" d="M361.257,119.028c-1.589,0-3.027-1.089-3.405-2.704l-0.697-2.98c-0.44-1.882,0.729-3.765,2.61-4.205
			c0.269-0.063,0.537-0.093,0.801-0.093c1.589,0,3.027,1.089,3.405,2.704l0.697,2.98c0.44,1.882-0.729,3.765-2.61,4.205
			C361.789,118.998,361.52,119.028,361.257,119.028z"/>
		<path fill="#343F54" d="M360.562,112.547l0.697,2.98L360.562,112.547 M360.568,105.545c-0.528,0-1.064,0.06-1.601,0.186
			c-3.765,0.881-6.102,4.646-5.221,8.411l0.697,2.98c0.755,3.228,3.632,5.407,6.81,5.407c0.528,0,1.064-0.06,1.601-0.186
			c3.765-0.881,6.102-4.646,5.221-8.411l-0.697-2.98C366.623,107.724,363.746,105.545,360.568,105.545L360.568,105.545z"/>
	</g>
	<g>
		<path fill="#131B28" d="M313.096,150.843c-0.231,0-0.465-0.023-0.7-0.071c-1.894-0.384-3.118-2.23-2.734-4.125l0.304-1.499
			l2.77-12.972c0.351-1.644,1.804-2.77,3.419-2.77c0.242,0,0.488,0.025,0.734,0.078c1.891,0.403,3.096,2.263,2.692,4.153
			l-2.438,11.42c-0.178,0.825-0.453,2.159-0.621,2.983C316.184,149.698,314.725,150.843,313.096,150.843z"/>
		<path fill="#343F54" d="M316.158,132.906h0.005 M316.158,132.906l-2.438,11.42c-0.179,0.828-0.458,2.181-0.628,3.016l0.304-1.499
			L316.158,132.906 M316.151,125.904c-0.564,0-1.118,0.068-1.652,0.199c-1.005,0.244-1.926,0.706-2.709,1.332
			c-0.813,0.648-1.485,1.48-1.948,2.45c-0.254,0.53-0.443,1.097-0.558,1.69l-2.733,12.806c-0.005,0.023-0.01,0.047-0.015,0.071
			l-0.304,1.499c-0.768,3.787,1.68,7.48,5.468,8.25c0.47,0.095,0.938,0.141,1.4,0.141c3.259,0,6.177-2.288,6.852-5.605
			c0.165-0.813,0.438-2.129,0.611-2.935l2.392-11.206c0.135-0.542,0.206-1.108,0.206-1.691c0-3.677-2.833-6.692-6.437-6.978
			C316.533,125.912,316.342,125.904,316.151,125.904L316.151,125.904z"/>
	</g>
	<g>
		<path fill="#131B28" d="M295.628,144.964c-0.242,0-0.488-0.025-0.734-0.078c-1.891-0.403-3.096-2.263-2.692-4.153l6.598-30.923
			c0.349-1.646,1.802-2.775,3.42-2.775c0.239,0,0.481,0.024,0.725,0.076c1.89,0.397,3.1,2.25,2.705,4.14l-0.205,0.982l-6.396,29.961
			C298.696,143.838,297.243,144.964,295.628,144.964z"/>
		<path fill="#343F54" d="M302.222,110.535h0.005 M302.222,110.535l-0.205,0.982l-6.394,29.946l6.067-28.43
			C301.835,112.358,302.052,111.341,302.222,110.535 M302.216,103.533c-0.564,0-1.119,0.069-1.654,0.2
			c-1.008,0.245-1.931,0.709-2.716,1.338c-0.808,0.646-1.477,1.474-1.938,2.438c-0.256,0.533-0.446,1.104-0.561,1.702l-0.374,1.757
			l-0.129,0.608l-6.066,28.426c-0.807,3.78,1.604,7.5,5.385,8.307c0.492,0.105,0.983,0.155,1.468,0.155
			c3.232,0,6.137-2.251,6.839-5.54l6.394-29.946l0.164-0.784c0.129-0.532,0.198-1.088,0.198-1.66c0-3.68-2.838-6.696-6.444-6.979
			C302.592,103.541,302.403,103.533,302.216,103.533L302.216,103.533z"/>
	</g>
	<g>
		<path fill="#131B28" d="M292.008,176.426c-0.858,0-5.184-0.165-5.989-3.418c-0.364-1.484,0.031-3.473,0.114-3.856l12.46-58.365
			l1.574-7.446c0.515-2.444,2.791-4.291,5.295-4.291h14.196l26.321,0.03c9.795,0,15.724,3.73,17.618,11.088l1.069,4.564l0.698,2.884
			c0.343,1.469,0.025,2.94-0.864,4.063c-0.891,1.123-2.249,1.768-3.729,1.77l-39.021,0.02l-4.932,23.106l-4.856,24.006
			c-0.144,0.707-0.981,4.258-3.441,5.251c-1.088,0.439-2.677,0.596-3.706,0.596H292.008z"/>
		<path fill="#343F54" d="M319.658,102.549l12.617,0.016l13.7,0.014c8.799,0,12.852,3.096,14.232,8.46l0.354,1.509l0.697,2.98
			l0.704,2.91c0.194,0.832-0.345,1.509-1.194,1.51l-40.3,0.02c-0.851,0.002-1.69,0.681-1.871,1.511l-2.439,11.426l-2.761,12.938
			l-0.304,1.499c-0.002,0.008-0.004,0.016-0.004,0.021l-2.279,11.26l-2.277,11.263c-0.17,0.835-0.855,2.511-1.32,2.698
			c-0.464,0.188-1.542,0.342-2.396,0.342h-12.809c-0.854,0-2.488-0.342-2.592-0.76c-0.103-0.418-0.043-1.439,0.138-2.275
			l6.068-28.428l6.394-29.946l0.205-0.981l0.741-3.504l0.629-2.966c0.176-0.835,1.019-1.517,1.871-1.517H319.658 M319.667,95.549
			c-0.003,0-0.006,0-0.009,0h-14.196c-4.19,0-7.857,2.976-8.721,7.075l-0.627,2.956l-0.742,3.507l-0.208,0.999l-6.388,29.916
			l-6.068,28.428c-0.197,0.91-0.607,3.296-0.091,5.404c1.114,4.495,5.581,6.092,9.391,6.092h12.809c0.684,0,3.064-0.062,5.02-0.852
			c4.014-1.619,5.268-6.374,5.557-7.793l2.279-11.271l2.279-11.259c0.005-0.025,0.01-0.051,0.015-0.076l0.285-1.406l2.753-12.904
			l1.58-7.4l36.188-0.018c2.558-0.003,4.914-1.131,6.472-3.096c1.557-1.965,2.116-4.518,1.535-7.006
			c-0.004-0.018-0.009-0.036-0.013-0.054l-0.698-2.886l-0.691-2.953l-0.354-1.511c-0.012-0.05-0.023-0.099-0.036-0.148
			c-1.611-6.257-6.563-13.715-21.012-13.715l-13.693-0.014L319.667,95.549L319.667,95.549z"/>
	</g>
	<g>
		<path fill="#131B28" d="M348.055,176.457c-1.497,0-2.863-0.655-3.749-1.797s-1.18-2.629-0.807-4.078l3.581-13.932
			c0.058-0.253,0.048-0.911-0.019-1.168l-8.214-28.777c-0.415-1.462-0.148-2.963,0.729-4.124c0.878-1.16,2.248-1.826,3.762-1.826
			h18.338c2.479,0,4.763,1.823,5.31,4.24l0.66,2.895l24.878-36.447c1.131-1.654,3.316-2.807,5.317-2.807h12.898
			c0.847,0,2.231-0.005,3.078-0.011l4.862-0.032c1.788,0,3.26,0.858,3.977,2.296c0.718,1.44,0.516,3.137-0.542,4.54l-46.306,61.459
			c-0.236,0.313-0.626,1.123-0.723,1.502l-3.585,13.936c-0.6,2.352-2.889,4.132-5.323,4.132H348.055z"/>
		<path fill="#343F54" d="M418.719,92.093c0.839,0,1.111,0.552,0.601,1.229l-46.306,61.459c-0.515,0.68-1.107,1.916-1.318,2.74
			l-3.584,13.932c-0.211,0.828-1.082,1.504-1.934,1.504h-18.123c-0.854,0-1.379-0.676-1.166-1.504l3.581-13.932
			c0.212-0.824,0.193-2.172-0.04-2.992l-8.217-28.785c-0.232-0.82,0.271-1.489,1.125-1.489h18.338c0.852,0,1.707,0.679,1.896,1.512
			l2.1,9.206c0.104,0.459,0.32,0.696,0.573,0.696c0.204,0,0.433-0.153,0.647-0.468l28.522-41.787c0.481-0.704,1.572-1.28,2.427-1.28
			h12.898c0.854,0,2.249-0.005,3.103-0.011l4.861-0.032C418.709,92.093,418.715,92.093,418.719,92.093 M418.719,85.093
			c-0.024,0-0.065,0-0.09,0l-4.834,0.032c-0.842,0.006-2.215,0.011-3.056,0.011h-12.898c-3.187,0-6.407,1.699-8.205,4.329
			l-21.139,30.969c-1.665-1.954-4.145-3.178-6.821-3.178h-18.338c-2.62,0-5.009,1.172-6.554,3.215s-2.021,4.662-1.306,7.183
			l8.125,28.463l-3.494,13.594c-0.645,2.505-0.123,5.091,1.431,7.094c1.554,2.004,3.928,3.152,6.515,3.152h18.123
			c4.051,0,7.717-2.85,8.717-6.776l3.559-13.832c0.045-0.118,0.14-0.314,0.203-0.424l46.254-61.391
			c1.845-2.448,2.182-5.593,0.878-8.208C424.487,86.715,421.778,85.093,418.719,85.093L418.719,85.093z"/>
	</g>
	<g>
		<path fill="#131B28" d="M247.716,177.29c-13.372,0-22.393-3.114-27.579-9.521c-6.731-8.315-5.343-20.217-3.097-30.763
			c4.416-20.349,12.837-39.166,44.302-39.166c0.04,0,0.08,0,0.12,0.002c12.284,0.02,20.598,3.073,25.413,9.332
			c7.272,9.452,4.608,24.412,1.431,36.451c-0.058,0.316-0.149,0.635-0.279,0.966c-0.767,1.912-2.577,3.227-4.566,3.361
			c-0.113,0.011-0.228,0.017-0.34,0.017c-0.068,0-0.136-0.002-0.203-0.006h-40.896c0.051,1.234,0.312,2.127,0.781,2.667
			c1.094,1.257,4.141,1.895,9.057,1.895h27.761c1.463,0,2.816,0.632,3.716,1.733s1.246,2.555,0.953,3.987l-2.985,14.585
			c-0.511,2.437-2.758,4.287-5.229,4.321c-3.336,0.027-11.521,0.088-19.682,0.121l-5.206,0.016c0,0-2.351,0.003-2.374,0.003H247.716
			z M264.778,126.26c-0.019-1.217-0.3-2.14-0.84-2.751c-1.021-1.156-3.292-1.767-6.564-1.768c-4.945,0-8.28,1.417-10.435,4.519
			H264.778z"/>
		<path fill="#343F54" d="M261.342,101.34h0.005 M261.342,101.34l-0.002,0.002c28.228,0,30.118,16.738,23.528,41.592l0.005-0.006
			c-0.016,0.135-0.058,0.264-0.106,0.389c-0.26,0.647-0.911,1.133-1.616,1.146c-0.009,0-0.02,0.006-0.03,0.006l0.004-0.006h-44.377
			c-1.208,8.626,2.071,11.562,13.112,11.562h27.761c0.853,0,1.411,0.684,1.24,1.519l-1.492,7.288l-0.243,1.188l-1.25,6.11
			c-0.174,0.828-1.003,1.511-1.85,1.522c-3.313,0.027-11.492,0.088-19.647,0.121h-0.063c-1.242,0.004-2.483,0.01-3.704,0.012h-0.219
			c-0.313,0-0.623,0.002-0.932,0.002c-0.122,0-0.241,0-0.36,0.003h-1.992c-0.099,0-0.198,0-0.296,0.002h-1.097
			c-30.879,0-31.221-17.423-27.253-36.055C224.43,119.453,231.501,101.34,261.342,101.34 M242.012,128.492
			c0.007-0.005,0.015-0.007,0.015-0.007c-0.011,0.018-0.015,0.034-0.021,0.054c-0.118,0.674,0.29,1.221,1.095,1.221h23.248
			c0.852,0,1.706-0.678,1.813-1.604l0.001,0.018c0.651-5.256-1.218-9.932-10.788-9.933c-8.5,0-13.022,3.874-15.244,9.777
			c-0.061,0.233-0.104,0.396-0.104,0.396C242.017,128.441,242.017,128.466,242.012,128.492 M261.346,94.34h-0.005
			c-34.035,0-43.222,21.186-47.72,41.91c-2.424,11.38-3.863,24.262,3.794,33.721c5.894,7.28,15.805,10.819,30.3,10.819h1.097
			c0.047,0,0.095,0,0.142-0.001l0.154-0.001h1.992c0.058,0,0.114-0.001,0.172-0.002l0.188-0.001l0.485-0.001l0.446-0.001h0.219
			c0.822-0.001,1.643-0.004,2.466-0.008l1.26-0.004h0.041c9.582-0.039,18.697-0.113,19.705-0.121
			c4.175-0.058,7.793-3.037,8.643-7.084l1.258-6.146l0.242-1.187l1.492-7.288c0.505-2.467-0.104-4.982-1.67-6.902
			c-0.247-0.302-0.514-0.585-0.797-0.846c2.688-0.676,4.941-2.607,6.013-5.275c0.008-0.02,0.016-0.039,0.022-0.059
			c0.193-0.494,0.337-0.978,0.435-1.465c3.368-12.794,6.104-28.735-2.071-39.36c-5.514-7.166-14.714-10.666-28.126-10.697
			C261.465,94.34,261.406,94.34,261.346,94.34L261.346,94.34z"/>
	</g>
	<g>
		<path fill="#131B28" d="M90.01,176.772c-13.156-0.001-22.958-3.858-29.132-11.466c-6.925-8.531-8.825-21.415-5.496-37.258
			c6.667-31.5,24.553-48.147,51.724-48.147c17.039,0,26.429,6.856,31.306,12.608c6.666,7.861,9.569,19.049,7.767,29.929
			c-1.488,9.183-6.65,23.065-9.134,29.422l3.796,0.022c1.49,0.007,2.852,0.667,3.732,1.813c0.881,1.145,1.17,2.631,0.792,4.078
			l-3.855,14.71c-0.624,2.366-2.85,4.098-5.294,4.12L90.01,176.772z M105.537,105.426c-0.74,0-1.52,0.03-2.317,0.091
			c-10.56,0.796-16.473,7.961-19.773,23.958c-1.852,8.774-1.374,15.197,1.378,18.591c1.77,2.183,4.599,3.244,8.647,3.244h16.638
			l6.823-24.184c2.288-7.693,2.042-13.914-0.679-17.563C114.206,106.818,110.6,105.426,105.537,105.426z"/>
		<path fill="#343F54" d="M107.106,83.401c30.359,0,38.221,22.767,35.62,38.465c-1.9,11.728-10.262,32.031-10.262,32.031h0.007
			c-0.05,0.119-0.074,0.234-0.092,0.346c-0.088,0.623,0.327,1.092,1.054,1.097l3.692,0.022l3.695,0.021
			c0.851,0.004,1.373,0.684,1.158,1.508l-3.854,14.705c-0.217,0.823-1.088,1.5-1.94,1.508l-22.132,0.08l-23.679,0.088
			c-0.123,0.001-0.241,0.001-0.363,0.001c-29.701,0-36.184-20.802-31.204-44.504C63.809,105.137,76.918,83.401,107.106,83.401
			 M93.472,154.811h17.734c0.855,0,1.741-0.673,1.974-1.492l3.35-11.874l3.351-11.875c0,0,0.001,0,0.001-0.005l0.42-1.486
			c4.153-13.962,1.09-26.154-14.764-26.152c-0.824,0-1.686,0.033-2.581,0.101c-13.241,0.999-19.663,10.867-22.938,26.741
			C76.743,144.289,80.019,154.811,93.472,154.811 M132.471,153.896h0.005 M107.106,76.401c-15.944,0-28.984,5.416-38.758,16.096
			c-7.785,8.506-13.299,20.222-16.389,34.821c-3.556,16.922-1.41,30.817,6.202,40.195c6.872,8.466,17.588,12.759,31.85,12.759
			l0.403-0.001l23.665-0.088l22.131-0.08c4.032-0.037,7.667-2.865,8.684-6.725l3.857-14.714c0.654-2.51,0.142-5.096-1.402-7.104
			c-1.296-1.686-3.172-2.772-5.27-3.085c2.694-7.251,6.323-17.875,7.557-25.491c1.964-11.857-1.232-24.105-8.554-32.74
			C135.726,83.93,125.485,76.401,107.106,76.401L107.106,76.401z M93.472,147.811c-4.348,0-5.538-1.467-5.928-1.948
			c-0.949-1.171-2.916-5.039-0.676-15.648c3.675-17.817,10.157-20.72,16.615-21.207c0.709-0.053,1.4-0.081,2.055-0.081
			c0,0,0.001,0,0.002,0c3.896,0,6.557,0.918,7.908,2.73c1.985,2.662,2.04,8.055,0.144,14.427c-0.009,0.031-0.018,0.062-0.027,0.092
			l-0.42,1.486c-0.007,0.024-0.014,0.049-0.02,0.073l-3.332,11.809l-2.332,8.267H93.472L93.472,147.811z"/>
	</g>
	<g>
		<path fill="#131B28" d="M280.883,144.827c-2.491,0-4.518-2.027-4.518-4.518c0-2.49,2.026-4.516,4.518-4.516
			s4.519,2.026,4.519,4.516C285.401,142.8,283.374,144.827,280.883,144.827z"/>
		<path fill="#343F54" d="M280.883,139.293c0.563,0,1.019,0.453,1.019,1.016c0,0.561-0.455,1.018-1.019,1.018
			c-0.562,0-1.018-0.457-1.018-1.018C279.865,139.746,280.321,139.293,280.883,139.293 M280.883,132.293
			c-4.421,0-8.018,3.596-8.018,8.016c0,4.421,3.597,8.018,8.018,8.018c4.422,0,8.019-3.597,8.019-8.018
			C288.901,135.889,285.304,132.293,280.883,132.293L280.883,132.293z"/>
	</g>
</g>
</svg>
