<?xml version="1.0" encoding="utf-8"?>
<!-- Generator: Adobe Illustrator 15.1.0, SVG Export Plug-In . SVG Version: 6.00 Build 0)  -->
<!DOCTYPE svg PUBLIC "-//W3C//DTD SVG 1.1//EN" "http://www.w3.org/Graphics/SVG/1.1/DTD/svg11.dtd">
<svg version="1.1" id="Layer_1" xmlns="http://www.w3.org/2000/svg" xmlns:xlink="http://www.w3.org/1999/xlink" x="0px" y="0px"
	 width="1920px" height="1391.722px" viewBox="0 -135.003 1920 1391.722" enable-background="new 0 -135.003 1920 1391.722"
	 xml:space="preserve">
<ellipse fill="#6E7FAF" cx="960" cy="539.826" rx="884.408" ry="465.073"/>
<ellipse fill="#7082B5" cx="960" cy="539.826" rx="849.863" ry="430.529"/>
<g>
	<path fill="#FFFFFF" d="M1132.084,679.283l42.221-216.862c9.598-48.939,1.601-85.403-23.669-108.434
		c-24.309-22.39-65.571-33.265-126.344-33.265h-72.928l20.79-107.472c0.64-4.158-0.319-8.317-2.879-11.516
		c-2.56-3.197-6.396-5.117-10.556-5.117H857.965c-6.717,0-12.154,4.798-13.434,11.195l-44.78,230.297
		c-4.158-25.909-14.075-48.299-30.067-66.53c-29.427-33.904-76.445-50.856-138.817-50.856H435.432
		c-6.717,0-12.153,4.798-13.434,11.195l-90.84,466.032c-0.64,4.158,0.32,8.316,2.878,11.516c2.559,3.198,6.397,5.117,10.556,5.117
		h101.715c6.718,0,12.154-4.798,13.435-11.194l22.069-112.91h75.486c39.663,0,72.928-4.158,99.156-12.794
		c26.548-8.636,51.178-23.35,72.609-43.5c17.592-15.993,31.984-33.905,42.859-53.416l-18.23,93.078
		c-0.641,4.158,0.319,8.315,2.879,11.515c2.559,3.199,6.396,5.117,10.556,5.117H867.88c6.718,0,12.156-4.798,13.435-11.194
		l49.578-255.887h69.09c29.427,0,38.063,5.758,40.302,8.317c2.239,2.237,6.717,10.555,1.6,35.823l-39.981,206.31
		c-0.641,4.158,0.319,8.315,2.879,11.515c2.559,3.199,6.396,5.117,10.556,5.117h102.354
		C1125.047,690.479,1130.805,685.681,1132.084,679.283L1132.084,679.283z M665.091,499.844
		c-6.397,32.626-18.232,55.656-35.504,69.09c-17.592,13.434-45.421,20.15-83.164,20.15h-45.1l32.625-167.605h58.214
		c42.861,0,60.133,9.276,66.85,16.953C668.609,448.986,670.848,470.416,665.091,499.844L665.091,499.844z M1562.934,371.58
		c-29.428-33.904-76.446-50.856-138.818-50.856h-195.435c-6.717,0-12.153,4.798-13.434,11.195l-90.521,466.354
		c-0.64,4.158,0.319,8.316,2.88,11.515c2.559,3.198,6.396,5.117,10.555,5.117h101.715c6.718,0,12.155-4.798,13.436-11.193
		l22.068-112.91h75.487c39.662,0,72.927-4.158,99.156-12.794c26.548-8.638,51.177-23.351,72.607-43.501
		c17.911-16.633,32.944-35.186,44.141-55.335c11.195-20.151,19.191-42.542,23.988-66.531
		C1601.955,452.824,1592.68,405.486,1562.934,371.58L1562.934,371.58z M1457.699,499.844c-6.396,32.626-18.231,55.656-35.504,69.09
		c-17.594,13.434-45.42,20.15-83.163,20.15h-44.78l32.626-167.605h58.214c42.861,0,60.134,9.276,66.852,16.953
		C1461.218,448.986,1463.457,470.416,1457.699,499.844L1457.699,499.844z"/>
</g>
<path d="M592.163,407.725c38.703,0,64.291,7.037,77.085,21.43c12.795,14.395,15.993,38.704,9.276,73.248
	c-7.037,36.145-20.472,61.732-40.622,77.406c-20.152,15.353-50.538,23.029-91.48,23.029H484.69l38.063-195.113H592.163
	L592.163,407.725z M344.593,800.511h101.715l23.989-124.105h87.001c38.383,0,70.049-4.158,94.678-12.153
	c24.949-7.996,47.339-21.432,67.49-40.622c16.953-15.673,30.706-32.945,41.263-51.816c10.555-18.873,17.911-39.663,22.39-62.374
	c10.875-55.335,2.559-98.196-24.31-129.223c-26.869-30.707-69.729-46.379-128.583-46.379H434.792L344.593,800.511z M857.965,210.372
	H958.72L934.73,334.477h89.88c56.614,0,95.317,9.915,116.749,29.426c21.43,19.832,27.826,51.498,19.189,95.639l-42.221,216.863
	h-102.354l39.981-206.309c4.479-23.35,2.88-39.342-5.117-47.979c-7.997-8.636-24.629-12.794-50.537-12.794h-80.285l-51.816,267.081
	H767.445L857.965,210.372L857.965,210.372z M1384.771,407.725c38.702,0,64.291,7.037,77.086,21.43
	c12.795,14.395,15.992,38.704,9.274,73.248c-7.036,36.145-20.47,61.732-40.621,77.406c-20.15,15.353-50.537,23.029-91.479,23.029
	H1277.3l38.063-195.113H1384.771L1384.771,407.725z M1137.521,800.511h101.715l23.988-124.105h87.001
	c38.385,0,70.05-4.158,94.68-12.153c24.947-7.996,47.339-21.432,67.489-40.622c16.952-15.673,30.707-32.945,41.262-51.816
	c10.557-18.873,17.912-39.663,22.391-62.374c10.875-55.335,2.561-98.196-24.311-129.223
	c-26.866-30.707-69.729-46.379-128.582-46.379H1227.72L1137.521,800.511z"/>
</svg>
