<?xml version="1.0" encoding="utf-8"?>
<!-- Generator: Adobe Illustrator 26.0.2, SVG Export Plug-In . SVG Version: 6.00 Build 0)  -->
<svg version="1.1"
	 id="svg4155" xmlns:cc="http://creativecommons.org/ns#" xmlns:dc="http://purl.org/dc/elements/1.1/" xmlns:inkscape="http://www.inkscape.org/namespaces/inkscape" xmlns:rdf="http://www.w3.org/1999/02/22-rdf-syntax-ns#" xmlns:sodipodi="http://sodipodi.sourceforge.net/DTD/sodipodi-0.dtd" xmlns:svg="http://www.w3.org/2000/svg"
	 xmlns="http://www.w3.org/2000/svg" xmlns:xlink="http://www.w3.org/1999/xlink" x="0px" y="0px" viewBox="0 0 180.9 147.7"
	 style="enable-background:new 0 0 180.9 147.7;" xml:space="preserve">
<style type="text/css">
	.st0{fill:#FFFFFF;}
	.st1{fill:#005385;}
	.st2{fill:#FF7021;}
</style>
<sodipodi:namedview  bordercolor="#666666" borderopacity="1" fit-margin-bottom="2" fit-margin-left="2" fit-margin-right="2" fit-margin-top="2" gridtolerance="10" guidetolerance="10" id="namedview4197" inkscape:current-layer="svg4155" inkscape:cx="242.41298" inkscape:cy="67.053133" inkscape:pageopacity="0" inkscape:pageshadow="2" inkscape:window-height="2130" inkscape:window-maximized="1" inkscape:window-width="3840" inkscape:window-x="0" inkscape:window-y="30" inkscape:zoom="2.8641304" objecttolerance="10" pagecolor="#ffffff" showgrid="false">
	</sodipodi:namedview>
<ellipse class="st0" cx="113.9" cy="83" rx="36.1" ry="34.8"/>
<g id="g4161" transform="translate(-0.63683287,1.5502632)">
	<path id="path4163" inkscape:connector-curvature="0" class="st1" d="M94.3,79.9c0.3-5,2.7-9.5,6.5-12.6l0,0c3.7-3.1,8.6-5,13.9-5
		l0,0c5.4,0,10.3,1.9,13.9,5l0,0c3.7,3.1,6.2,7.6,6.5,12.6c0.3,5.2-1.8,10-5.4,13.6l0,0c-3.7,3.6-9,5.9-14.9,5.9l0,0
		c-5.9,0-11.2-2.3-15-5.9l0,0C96.1,89.9,94,85.1,94.3,79.9L94.3,79.9z"/>
</g>
<g id="g4165" transform="translate(-0.63683287,1.5502632)">
	<path id="path4167" inkscape:connector-curvature="0" class="st2" d="M61.8,90.1c0,2,0.7,5.8,1.6,8.8l0,0c2,6.3,5.3,12.2,10,17.4
		l0,0c4.8,5.3,10.7,9.6,17.5,12.6l0,0c7.2,3.2,15,4.8,23,4.8l0,0c8.1,0,15.8-1.7,23-4.9l0,0c6.8-3.1,12.7-7.3,17.5-12.6l0,0
		c4.7-5.2,8-11.1,10-17.4l0,0c1-3.2,1.6-6.4,1.9-9.7l0,0c0.3-3.2,0.1-6.4-0.3-9.6l0,0c-0.9-6.3-3.1-12.1-6.4-17.5
		c-3.1-4.9-7-9.2-11.7-12.9l0,0l0,0l0,0L101,12.8l0,0c0,0-0.1-0.1-0.1-0.1l0,0c-3.1-2.4-8.3-2.4-11.7,0l0,0
		c-3.4,2.4-3.8,6.4-0.8,8.9l0,0l0,0l0,0l19.7,16l-60,0.1l0,0c0,0-0.1,0-0.1,0l0,0c-5,0-9.7,3.3-10.7,7.4l0,0c-1,4.2,2.4,7.7,7.6,7.7
		l0,0l0,0l0,0l30.4-0.1L21,94.4l0,0c-0.1,0.1-0.1,0.1-0.2,0.2l0,0c-5.1,3.9-6.8,10.4-3.5,14.6l0,0c3.3,4.2,10.2,4.2,15.4,0l0,0
		l29.6-24.2C62.2,84.9,61.8,88.2,61.8,90.1L61.8,90.1z M137.9,101.1c-6.1,6.2-14.6,9.7-23.9,9.8l0,0c-9.3,0-17.8-3.5-23.9-9.7l0,0
		c-3-3-5.2-6.5-6.5-10.2l0,0c-1.3-3.6-1.8-7.5-1.5-11.4l0,0c0.3-3.8,1.5-7.5,3.3-10.7l0,0c1.8-3.2,4.2-6.2,7.3-8.6l0,0
		c5.9-4.8,13.5-7.5,21.4-7.5l0,0c7.9,0,15.5,2.6,21.4,7.4l0,0c3,2.5,5.5,5.4,7.3,8.6l0,0c1.8,3.3,2.9,6.9,3.3,10.7l0,0
		c0.3,3.9-0.2,7.8-1.5,11.4l0,0C143.1,94.6,140.9,98.1,137.9,101.1L137.9,101.1z"/>
</g>
</svg>
