<?xml version="1.0" encoding="utf-8"?>
<!-- Generator: Adobe Illustrator 26.0.2, SVG Export Plug-In . SVG Version: 6.00 Build 0)  -->
<svg version="1.1" id="Layer_1" xmlns="http://www.w3.org/2000/svg" xmlns:xlink="http://www.w3.org/1999/xlink" x="0px" y="0px"
	 viewBox="0 0 511.1 709.7" style="enable-background:new 0 0 511.1 709.7;" xml:space="preserve">
<style type="text/css">
	.st0{fill:#61A706;}
	.st1{fill:#979797;}
</style>
<g>
	<polygon class="st0" points="206.3,620.5 220.4,677 288.2,677 301.4,619.6 	"/>
	<path class="st1" d="M241.6,580.6l2.6,8l1.6,3.6l16.4,0.1l1.9-0.9l2.4-5.6c10.1-26,36.6-136.8,42.1-165.1
		c14.9-76.7,26.1-154.9,20.7-233.3c-2.1-29.6-7.6-62.7-18.7-90.4c-8.5-21.2-21.2-45.6-43.5-55c-24.3-10.3-47.7,14.6-58.2,34.8
		c-55.6,107.1-20.1,291.7,5.9,401.2l8.8,37.6C229.2,537.3,235.7,556.6,241.6,580.6L241.6,580.6z"/>
	<path class="st1" d="M234.7,586L225,578C109.7,469.7-48.5,105.5,200.8,38.4c10.2-2.7,8.1-2.1,17.9-2.6
		C22.8,120.2,155,449.3,234.7,586L234.7,586z"/>
	<path class="st1" d="M276.4,586l9.7-7.9c115.4-108.3,273.5-472.5,24.2-539.7c-10.2-2.7-8.1-2.1-17.9-2.6
		C488.3,120.2,356.1,449.3,276.4,586L276.4,586z"/>
	<path class="st1" d="M120.4,64.7c-49.1,22.8-86.7,72.4-94.8,126.2l-1.9,22.8l0.2,18.4l2.6,20.3l1.4,9.7
		c19.3,106.3,107.6,245.6,185.4,319.5C105.7,438.1-56.4,211.3,120.4,64.7L120.4,64.7z"/>
	<path class="st1" d="M390.7,64.7c49.1,22.8,86.7,72.4,94.8,126.2l1.9,22.8l-0.3,18.4l-2.6,20.3l-1.4,9.7
		c-19.3,106.3-107.6,245.6-185.4,319.5C405.4,438.1,567.5,211.3,390.7,64.7L390.7,64.7z"/>
</g>
</svg>
