<?xml version="1.0" encoding="utf-8"?>
<!-- Generator: Adobe Illustrator 26.0.2, SVG Export Plug-In . SVG Version: 6.00 Build 0)  -->
<svg version="1.1" id="Layer_1" xmlns="http://www.w3.org/2000/svg" xmlns:xlink="http://www.w3.org/1999/xlink" x="0px" y="0px"
	 viewBox="0 0 800 800" style="enable-background:new 0 0 800 800;" xml:space="preserve">
<style type="text/css">
	.st0{fill:#2E0013;}
	.st1{fill:#FF3F94;}
</style>
<rect class="st0" width="800" height="800"/>
<rect id="XMLID_5_" x="35.2" y="35.2" class="st0" width="729.6" height="729.6"/>
<g id="XMLID_10_">
	<g>
		<path id="XMLID_26_" class="st1" d="M296.4,547.4c0,3.3-0.9,5-4.3,5h-49.2c-2.8,0-3.8-1.7-3.8-5v-350c0-3.3,1.4-3.9,3.8-3.9h49.7
			c2.8,0,3.8,0.6,3.8,3.9L296.4,547.4L296.4,547.4z"/>
	</g>
</g>
<g id="XMLID_6_">
	<g>
		<path id="XMLID_36_" class="st1" d="M354.2,424c0-78.5,49.8-144.6,128.8-144.6c10.7,0,18.6,1.1,26.5,3.8v-87.8
			c0-2.7,0.9-3.8,2.8-3.8h50.7c1.9,0,2.3,1.1,2.3,3.2v296.8c0,11.4,0.9,26,1.4,34.6c0.5,2.7,0,3.8-2.3,5.4
			c-29.3,16.8-62.3,26.5-93,26.5C403.1,558.2,354.2,514.4,354.2,424z M509.6,334.6c-7-3.2-16.7-4.9-27.4-4.9
			c-41.9,0-70.2,35.7-70.2,91c0,61.2,30.7,85.5,66.1,85.5c11.6,0,23.3-2.2,31.6-5.4L509.6,334.6L509.6,334.6z"/>
	</g>
</g>
</svg>
