<?xml version="1.0" encoding="utf-8"?>
<!-- Generator: Adobe Illustrator 26.0.2, SVG Export Plug-In . SVG Version: 6.00 Build 0)  -->
<svg version="1.1" id="Layer_1" xmlns="http://www.w3.org/2000/svg" xmlns:xlink="http://www.w3.org/1999/xlink" x="0px" y="0px"
	 viewBox="0 0 2719.1 2500" style="enable-background:new 0 0 2719.1 2500;" xml:space="preserve">
<style type="text/css">
	.st0{fill:#FFFFFF;stroke:#000000;stroke-miterlimit:10;}
	.st1{fill:#222C37;}
</style>
<polyline class="st0" points="1056.6,614.7 1933.9,350.2 2160.7,1247.2 1893.4,2156.1 1056.6,1875.4 354.7,1227.5 "/>
<path class="st1" d="M1548.9,1247.3l392.6-677.9l189.7,677.9L1941.4,1925L1548.9,1247.3L1548.9,1247.3z M1357.5,1357.3l392.6,677.8
	l-683.8-175.2l-494-502.6H1357.5z M1750.1,459.2l-392.5,677.9H572.4l494-502.6L1750.1,459.2z M2310.5,1016.6l-239.5-891
	l-893.9,238.8L1044.8,597l-268.5-1.9L122,1247.3l654.3,652.1h0l268.4-2l132.5,232.6l893.8,238.7l239.5-890.8l-136-230.7
	L2310.5,1016.6L2310.5,1016.6z"/>
</svg>
