<?xml version="1.0" encoding="utf-8"?>
<!-- Generator: Adobe Illustrator 26.0.2, SVG Export Plug-In . SVG Version: 6.00 Build 0)  -->
<svg version="1.1" id="Layer_1" xmlns="http://www.w3.org/2000/svg" xmlns:xlink="http://www.w3.org/1999/xlink" x="0px" y="0px"
	 viewBox="0 0 401.3 366.5" style="enable-background:new 0 0 401.3 366.5;" xml:space="preserve">
<style type="text/css">
	.st0{fill:#383838;}
</style>
<g>
	<g>
		<path d="M236.6,76.7c-3,0-5.8-0.2-8.2-0.5c-15.1-1.9-24.7-11.4-25.6-25.4c-1-13.7,7.6-30.9,25.3-35.7c0.2-0.1,0.5-0.1,0.7-0.1h8.7
			c0.3,0,0.6,0,0.9,0.1c9.1,3,16.8,8.8,22.8,17.1c0.7,0.9,15.9,22.2,8.2,35.2C265.1,74.7,246.8,76.7,236.6,76.7z"/>
		<path class="st0" d="M237.5,17.8c8.9,2.9,16,8.6,21.5,16.1c4,5.5,13.9,22.3,8,32.2c-3.1,5.2-18.3,7.8-30.3,7.8
			c-2.9,0-5.6-0.1-7.9-0.4c-33.9-4.3-28-48,0-55.7C231.7,17.8,234.6,17.8,237.5,17.8 M237.5,12.2h-8.7c-0.5,0-1,0.1-1.5,0.2
			C208.2,17.6,198.9,36.2,200,51c1.1,15.2,11.8,25.9,28.1,28c2.5,0.3,5.4,0.5,8.6,0.5c4.8,0,29.2-0.5,35.2-10.6
			c8.5-14.4-6.6-35.9-8.3-38.3c-6.4-8.8-14.6-14.9-24.2-18.1C238.7,12.3,238.1,12.2,237.5,12.2L237.5,12.2z"/>
	</g>
	<g>
		<path d="M373.6,337c-0.4,0-0.8-0.1-1.2-0.3c-10.8-5-19.4-11.1-30.7-19.8c-1.3-1-2.8-2.1-4.4-3.3c-8.1-5.9-19.3-13.9-20.7-23.3
			c-0.7-4.6,0.4-7.9,1.4-10.9c0.8-2.4,1.6-4.5,1.2-7.3c-0.6-4.9-6.3-11-11.6-14.8c-17.1-12.4-51.4-20.8-99.1-24.3
			c-1.7-0.1-3.5-0.3-5.4-0.4c-6.7-0.5-14.2-1.2-20.9-1.2c-5.8,0-10.1,0.5-12.8,1.4c-2,0.7-5.7,5.3-8.5,8.7c-1.9,2.3-3.6,4.5-5.2,6.1
			c-24.1,24.1-50.5,48.8-86,64.3c-11.2,4.9-23.3,9.4-36.3,9.4c-4.8,0-9.4-0.6-13.8-1.8c-1.3-0.4-2.1-1.5-2-2.9c0,0,0,0,0,0
			c-0.4-0.5-0.7-1.1-0.7-1.8v-7.4c0-0.3,0.1-0.7,0.2-1c0.4-0.9,0.7-2,1.1-3c1.8-4.8,3.8-10.2,6.5-14.3c13.1-20.1,34-38.8,63.9-57.2
			c16-9.9,37.3-22.2,60.2-30.4c2.9-1.1,6.6-1.9,10.2-2.7c4.8-1.1,9.9-2.2,12.9-3.9c2.3-1.2,4.8-5.1,7.3-8.9c1.5-2.2,3-4.6,4.6-6.5
			c10.6-13.1,21.3-24.2,35.8-37.2c0.4-0.3,0.8-0.7,1.2-1c0.7-0.6,1.8-1.5,2.6-2.3c-5.8-3.3-11.6-7.5-17.7-12
			c-14.5-10.6-29.6-21.6-47.6-21.6c-1.3,0-2.7,0.1-4.1,0.2c-14.6,1.4-37.6,14.4-41.9,26.3c-0.7,1.9-0.7,4.6-0.8,7.4
			c0,3.4-0.1,6.8-1.2,10.1c-2.6,7.1-11.3,10.5-18.9,13.4c-1.4,0.6-2.8,1.1-4.1,1.6c-1.2,0.5-2.3,1-3.5,1.5
			c-6.5,2.8-12.7,5.5-18.9,5.5c-2,0-3.9-0.3-5.7-0.9c-1.1-0.4-1.9-1.4-1.9-2.6c-0.3-9.7,6.5-18.2,12-25c0.4-0.5,0.9-1.1,1.3-1.6
			c20.3-25.4,43-43.3,67.5-53.1c11.9-4.8,24.9-7.2,38.7-7.2c31.2,0,62.1,12.1,88.4,24.2c3.7-1.7,7.3-4.2,11.1-6.9
			c6.9-4.8,14.7-10.3,24.7-11.6c2.1-0.3,4.2-0.4,6.2-0.4c13.6,0,23.2,6.4,25.1,16.8c3.7,19.8-26.1,39.9-32.1,43.8
			c-9.4,6-20.8,9.4-32.1,9.4c-9.9,0-19-2.6-26.3-7.6c-10.3,8.2-19.8,19.7-28.2,29.8c-1.3,1.6-2.6,3.1-3.9,4.7
			c-1.1,1.3-2.3,2.5-3.5,3.6c-1.2,1.2-2.8,2.8-3.7,4.1c91.8,7.1,142.2,60.9,168.4,105c0.6,1,1.2,2,1.8,3.1
			c6.7,11.1,14.2,23.6,9.8,36.1c-0.4,1.1-1.4,1.9-2.6,1.9L373.6,337L373.6,337z M42.8,299.8c1.9,0.7,3.8,1.1,5.9,1.1
			c7.1,0,14.5-4.2,20.5-7.6c0.7-0.4,1.3-0.7,1.9-1.1c23.4-13,41.3-29.3,61-49.8c0.2-0.2,0.7-0.7,1.4-1.3c1.6-1.5,3-2.9,4.1-4
			c-13.3,2.6-29.2,7.9-45.2,15.1C67.3,263.6,47.6,274.3,42.8,299.8z M287,112.2c4.4,0.8,8.8,1.2,12.7,1.2c0,0,0,0,0,0
			c6.9,0,15.4-1.3,18.2-7.1c-2.4-1.1-5.2-1.6-8.2-1.6C302.1,104.7,293.4,108.1,287,112.2z"/>
		<path class="st0" d="M176.6,83.9c31.9,0,63.5,13,88.4,24.4c11.5-4.8,21.1-16.8,36.2-18.8c2-0.3,3.9-0.4,5.8-0.4
			c11.6,0,20.6,5,22.4,14.5c2.8,15.1-17.1,32.1-30.8,40.9c-8.8,5.6-19.8,8.9-30.6,8.9c-9.5,0-18.8-2.5-26.4-8.2
			c-12.8,9.6-24.1,24.1-34.2,36.2c-3.4,4.1-9.3,8.1-8.7,12.1c81.3,5.2,136.5,48.1,169.6,103.9c6.9,11.6,15.8,24.5,11.4,36.9
			c-2,0-4,0-6,0c-11.1-5.2-20-11.6-30.2-19.4c-7.5-5.8-22.6-14.8-24.1-24.8c-1.2-7.7,3.6-11,2.7-18.1c-0.8-6.7-8.2-13.5-12.7-16.8
			c-21.2-15.3-63.1-22-100.6-24.8c-7.5-0.6-17.7-1.6-26.5-1.6c-5.5,0-10.4,0.4-13.7,1.6c-4.1,1.5-10.4,11-14.8,15.4
			c-25.2,25.2-50.6,48.7-85.2,63.7c-10.3,4.5-22.4,9.1-35.2,9.1c-4.3,0-8.7-0.5-13.1-1.7c0.1-1,0.1-1.9-0.7-2c0-2.5,0-4.9,0-7.4
			c2-5.1,4.3-12,7.4-16.8c15-23,38.7-41.4,63-56.3c18.9-11.6,38.6-22.6,59.7-30.2c6.7-2.4,17.7-3.6,23.5-6.7
			c4.5-2.4,8.4-10.8,12.7-16.1c11.9-14.6,22.9-25.6,35.5-36.9c2.3-2.1,6.4-5.2,5.4-6.7c-20.4-10.6-41.2-35.1-68.8-35.1
			c-1.4,0-2.9,0.1-4.3,0.2c-15.7,1.5-39.6,15.1-44.3,28.2c-1.8,4.9,0,12-2,17.4c-2.6,7.1-13.8,10.2-21.5,13.4
			c-7.4,3.1-14.6,6.8-21.3,6.8c-1.7,0-3.3-0.2-4.9-0.7c-0.3-9.4,7.1-17.7,12.7-24.8c17.5-21.9,39.6-41.5,66.4-52.3
			C151.3,85.9,163.9,83.9,176.6,83.9 M299.7,116.2c10.2,0,19.6-2.7,21.6-11.3c-3.5-2.1-7.5-3-11.7-3c-11.1,0-23.1,6.4-29.2,11.7
			C285.8,115.1,292.9,116.2,299.7,116.2 M48.7,303.7c8.6,0,17.2-5.3,23.8-9c24.6-13.7,43.2-31,61.7-50.3c1.3-1.4,12.2-10.8,8-10.8
			c-0.2,0-0.4,0-0.6,0.1c-15.8,2.5-34,8.8-50.3,16.1c-25.2,11.3-47.2,22.8-51.6,51.6C42.6,303,45.7,303.7,48.7,303.7 M176.6,78.3
			c-14.2,0-27.5,2.5-39.8,7.4c-25,10-48.1,28.2-68.7,54c-0.4,0.5-0.9,1.1-1.3,1.6c-5.8,7.2-13,16.1-12.7,26.9
			c0.1,2.4,1.6,4.4,3.9,5.1c2.1,0.7,4.3,1,6.6,1c6.8,0,13.5-2.9,20-5.7c1.2-0.5,2.3-1,3.5-1.5c1.2-0.5,2.6-1,4-1.6
			c7.8-3,17.5-6.8,20.5-15.1c1.3-3.7,1.4-7.6,1.4-11c0-2.4,0.1-4.9,0.6-6.5c3.6-10.1,24.7-23.1,39.5-24.5c1.3-0.1,2.5-0.2,3.8-0.2
			c17.1,0,31.7,10.7,45.9,21.1c5,3.7,9.8,7.2,14.7,10.2c-0.3,0.3-0.6,0.5-0.9,0.8c-14.6,13.1-25.4,24.3-36.1,37.5
			c-1.7,2.1-3.3,4.5-4.8,6.8c-1.9,3-4.6,7-6.3,7.9c-2.7,1.5-7.5,2.5-12.2,3.6c-3.6,0.8-7.4,1.7-10.5,2.8
			c-23.1,8.3-44.6,20.8-60.7,30.7c-30.2,18.6-51.4,37.6-64.8,58c-2.9,4.4-4.9,9.9-6.8,14.8c-0.4,1-0.8,2-1.1,3
			c-0.3,0.6-0.4,1.3-0.4,2v7.4c0,1,0.3,1.9,0.7,2.7c0.3,2.2,1.9,4,4,4.7c4.7,1.3,9.6,1.9,14.6,1.9c13.5,0,26-4.6,37.4-9.6
			c35.9-15.6,62.6-40.6,86.9-64.9c1.7-1.7,3.5-3.9,5.4-6.3c2-2.5,5.8-7.1,7.3-7.8c1.6-0.6,5-1.3,11.8-1.3c6.6,0,14.1,0.6,20.7,1.2
			c1.9,0.2,3.7,0.3,5.4,0.4c47.2,3.5,81,11.7,97.7,23.8c4.8,3.5,10,9,10.5,12.9c0.3,2.2-0.3,3.8-1.1,6.1c-1.1,3.1-2.4,6.9-1.6,12.2
			c1.6,10.6,13.3,19,21.9,25.2c1.6,1.2,3.1,2.3,4.4,3.2c11.4,8.8,20.2,15,31.2,20.1c0.7,0.3,1.5,0.5,2.4,0.5h6
			c2.4,0,4.5-1.5,5.3-3.7c4.9-13.8-3-26.9-10-38.5c-0.6-1-1.2-2.1-1.8-3.1c-18-30.4-41-54.9-68.5-72.8
			c-28.2-18.4-60.6-29.5-96.4-33.1c1.2-1.2,2.4-2.4,3.5-3.7c1.3-1.5,2.6-3.1,3.9-4.7c7.9-9.6,16.8-20.3,26.3-28.2
			c7.5,4.5,16.4,6.9,26.1,6.9c11.8,0,23.7-3.5,33.6-9.8c8.8-5.6,37.2-25.6,33.3-46.6c-2.2-11.7-12.9-19-27.9-19
			c-2.1,0-4.3,0.1-6.5,0.4c-10.7,1.4-18.8,7.1-25.9,12.1c-3.3,2.3-6.4,4.5-9.5,6.1C238.7,90.2,207.8,78.3,176.6,78.3L176.6,78.3z
			 M296.2,110.5c4.4-1.8,9.1-3,13.4-3c1.2,0,2.3,0.1,3.3,0.3c-3.3,2.3-8.7,2.9-13.3,2.9C298.6,110.6,297.4,110.6,296.2,110.5
			L296.2,110.5z M46.1,297.8c5.3-22.4,23.2-32.1,47.5-43c12.1-5.4,24.1-9.8,35-12.7c-18.9,19.5-36.3,35.1-58.8,47.6
			c-0.6,0.3-1.3,0.7-1.9,1.1c-5.7,3.2-12.8,7.2-19.2,7.2C47.8,298.1,46.9,298,46.1,297.8L46.1,297.8z"/>
	</g>
</g>
</svg>
