<?xml version="1.0" encoding="utf-8"?>
<!-- Generator: Adobe Illustrator 26.0.2, SVG Export Plug-In . SVG Version: 6.00 Build 0)  -->
<svg version="1.1" id="Layer_1" xmlns="http://www.w3.org/2000/svg" xmlns:xlink="http://www.w3.org/1999/xlink" x="0px" y="0px"
	 viewBox="0 0 246.7 204" style="enable-background:new 0 0 246.7 204;" xml:space="preserve">
<style type="text/css">
	.st0{opacity:0.6;fill:#547373;enable-background:new    ;}
	.st1{opacity:0.5;fill:#547373;enable-background:new    ;}
	.st2{fill:#FFFFFF;}
</style>
<g>
	<polygon class="st0" points="50.1,140.4 37.7,52.1 130.6,41.1 194.5,70.7 177.2,162.3 	"/>
	<polygon class="st1" points="153.6,34.1 210.5,103.9 136,162 65.3,169.9 32.3,81.7 	"/>
	<polygon class="st1" points="173.6,41.4 214.4,121.7 129.2,162.8 58.5,155.4 45,62.2 	"/>
	<path class="st2" d="M102.6,138.2c0,1.2,0.7,2,1.7,2c0.6,0,1.2-0.3,1.5-0.9v-2.1c-0.3-0.6-0.9-0.9-1.5-1
		C103.3,136.2,102.6,137,102.6,138.2L102.6,138.2L102.6,138.2z M105.9,135.3l0.1-0.9h2v7.5h-2l-0.1-0.8c-0.5,0.7-1.4,1-2.2,1
		c-2,0-3.4-1.6-3.4-3.9c0-2.3,1.4-3.9,3.4-3.9C104.6,134.2,105.4,134.6,105.9,135.3z"/>
	<path class="st2" d="M115.7,136.5h-0.2c-0.8,0-1.5,0.4-1.9,1v4.5h-2.1v-7.5h1.9l0.1,1c0.5-0.7,1.3-1.2,2.2-1.1L115.7,136.5z"/>
	<path class="st2" d="M121.4,134.4h2.1v1.8h-2.1v2.8c0,0.5,0.4,1,0.9,1h0.2c0.3,0,0.7-0.1,1-0.2l0.5,1.7c-0.5,0.3-1.1,0.5-1.7,0.5
		c-1.5,0.2-2.8-0.9-3-2.4c0-0.2,0-0.3,0-0.5v-2.9h-1.4v-1.8h1.4V132h2.2L121.4,134.4C121.4,134.4,121.4,134.4,121.4,134.4z"/>
	<path class="st2" d="M128.7,142h-2.2v-7.5h2.2L128.7,142z M128.9,132.1c0,0.7-0.6,1.3-1.3,1.3c-0.7,0-1.3-0.6-1.3-1.3
		c0-0.7,0.6-1.3,1.3-1.3h0.1C128.3,130.8,128.9,131.3,128.9,132.1L128.9,132.1z"/>
	<path class="st2" d="M133.8,138.1c-0.1,0.9,0.5,1.8,1.5,1.9l0.2,0c0.7,0,1.2-0.4,1.6-0.9v-1.9c-0.3-0.6-0.9-0.9-1.6-1
		c-0.9,0-1.7,0.8-1.7,1.7L133.8,138.1L133.8,138.1z M137.1,135.3l0.1-0.9h2v7.2c0.1,2-1.5,3.8-3.5,3.9c-0.2,0-0.4,0-0.5,0
		c-1.4,0.1-2.8-0.5-3.7-1.6l1.4-1.4c0.5,0.7,1.4,1.1,2.3,1.1c1,0.1,1.9-0.7,1.9-1.7v-0.2v-0.5c-0.5,0.6-1.3,0.9-2.1,0.8
		c-2,0-3.4-1.6-3.4-3.8c0-2.2,1.4-3.8,3.4-3.8C135.8,134.2,136.6,134.6,137.1,135.3z"/>
	<path class="st2" d="M149.7,137.6v4.3h-2.2v-4.2c0.1-0.7-0.4-1.3-1.1-1.4l-0.2,0c-0.6,0-1.1,0.4-1.4,0.9v4.7h-2.2v-7.5h2l0.1,0.8
		c0.5-0.7,1.3-1,2.1-1C148.7,134.3,149.7,135.6,149.7,137.6z"/>
	<polygon class="st2" points="154.2,145.4 151.7,145.4 154.7,140.1 151.7,134.4 154.2,134.4 155.9,138.1 157.6,134.4 160,134.4 	"/>
	<polygon class="st2" points="88.6,86.4 74.8,86.4 74.8,119.2 66.1,119.2 66.1,86.4 52.4,86.4 52.4,79.1 88.6,79.1 	"/>
	<path class="st2" d="M90.6,105.4c0,4.5,2.7,7.4,6.6,7.4c2.5,0,4.8-1.3,6-3.4v-7.8c-1.2-2.2-3.5-3.5-6-3.4
		C93.3,98,90.6,100.8,90.6,105.4z M103.6,94.7l0.5-3.1h7.6v27.6H104l-0.5-3.1c-1.5,2-4.3,3.6-8.5,3.6c-7.8,0-13-6.1-13-14.4
		S87.3,91,95,91C99.2,91,102.1,92.6,103.6,94.7z"/>
	<path class="st2" d="M124.2,105.5c0,4.2,2.9,7.3,6.8,7.3c3.9,0,6.9-3.1,6.9-7.3c0-4.2-2.9-7.5-6.9-7.5
		C126.9,98,124.2,101.2,124.2,105.5z M146.4,105.5c0,8.3-6.6,14.3-15.4,14.3s-15.3-6-15.3-14.3S122.1,91,131,91
		C139.8,91,146.4,97.2,146.4,105.5z"/>
	<path class="st2" d="M167.1,88h-7.3l-9.9-7.9h9.5L167.1,88z M176.7,119.2h-7.6l-0.4-3c-1.5,2-4.3,3.5-8.5,3.5
		c-6.9,0-10.5-4.7-10.5-12.2V91.5h8.5v15.6c0,3,1.6,5.1,4.5,5.1c2.3,0,4.4-1.3,5.6-3.3V91.6h8.5L176.7,119.2L176.7,119.2z"/>
	<polygon class="st2" points="97.4,142 95.1,142 95.1,137.4 92,142.1 91.9,142.1 88.7,137.4 88.7,142 86.4,142 86.4,130.9 
		86.4,130.9 91.9,138.6 97.3,130.9 97.4,130.9 	"/>
</g>
</svg>
