<?xml version="1.0" encoding="utf-8"?>
<!-- Generator: Adobe Illustrator 26.0.2, SVG Export Plug-In . SVG Version: 6.00 Build 0)  -->
<svg version="1.1" id="Layer_1" xmlns="http://www.w3.org/2000/svg" xmlns:xlink="http://www.w3.org/1999/xlink" x="0px" y="0px"
	 viewBox="0 0 295 122.1" style="enable-background:new 0 0 295 122.1;" xml:space="preserve">
<style type="text/css">
	.st0{fill:#303438;}
	.st1{fill:#01848E;}
</style>
<path class="st0" d="M92.6,57.9V31.5h5.8V54h6.1v3.9L92.6,57.9L92.6,57.9z M106.8,57.9V31.5h11.9v4h-6v6.5h4.6v4h-4.6V54h6.1v3.9
	L106.8,57.9L106.8,57.9z M128.3,58.3c-1.6,0-3-0.3-4.1-0.9c-1.1-0.6-1.9-1.5-2.5-2.7c-0.6-1.2-0.9-2.8-0.9-4.8l5-0.8
	c0,1.1,0.1,2,0.3,2.7c0.2,0.7,0.4,1.2,0.8,1.5c0.3,0.3,0.7,0.5,1.2,0.5c0.6,0,1-0.2,1.2-0.6c0.2-0.4,0.3-0.8,0.3-1.3
	c0-1.1-0.3-2-0.8-2.8s-1.2-1.5-2.1-2.3l-2.3-2c-1-0.8-1.8-1.8-2.5-2.9c-0.7-1.1-1-2.4-1-4c0-2.2,0.7-3.9,2-5.1
	c1.3-1.2,3.1-1.8,5.4-1.8c1.4,0,2.5,0.2,3.4,0.7c0.9,0.5,1.5,1.1,2,1.9c0.4,0.8,0.8,1.6,0.9,2.4c0.2,0.9,0.3,1.7,0.3,2.5l-5,0.6
	c0-0.8-0.1-1.5-0.1-2c-0.1-0.6-0.2-1-0.5-1.3c-0.2-0.3-0.6-0.5-1.1-0.5c-0.5,0-0.9,0.2-1.2,0.7c-0.2,0.5-0.4,0.9-0.4,1.4
	c0,1,0.2,1.8,0.7,2.4c0.5,0.6,1.1,1.3,1.8,1.9l2.2,1.9c1.1,1,2.1,2.1,2.9,3.3c0.8,1.2,1.2,2.8,1.2,4.6c0,1.2-0.3,2.4-0.8,3.4
	c-0.6,1-1.4,1.8-2.4,2.4C130.9,58,129.7,58.3,128.3,58.3 M153.4,58.3c-2,0-3.6-0.4-4.7-1.1c-1.2-0.7-2-1.7-2.5-3.1
	c-0.5-1.3-0.7-2.9-0.7-4.6V40c0-1.8,0.2-3.4,0.7-4.7c0.5-1.3,1.3-2.3,2.5-3c1.2-0.7,2.7-1.1,4.7-1.1c2,0,3.5,0.3,4.6,1
	c1.1,0.6,1.9,1.5,2.3,2.7c0.5,1.2,0.7,2.5,0.7,4v2.3h-5.7v-2.6c0-0.5,0-1-0.1-1.5c-0.1-0.5-0.2-0.9-0.5-1.2
	c-0.3-0.3-0.7-0.5-1.3-0.5c-0.6,0-1.1,0.2-1.4,0.5c-0.3,0.3-0.5,0.7-0.6,1.2c-0.1,0.5-0.1,1-0.1,1.5V51c0,0.6,0,1.1,0.1,1.6
	c0.1,0.5,0.3,0.9,0.6,1.2c0.3,0.3,0.7,0.4,1.3,0.4c0.6,0,1-0.2,1.3-0.5c0.3-0.3,0.4-0.7,0.5-1.2c0.1-0.5,0.1-1,0.1-1.5v-2.8h5.7v2.3
	c0,1.5-0.2,2.8-0.7,4c-0.4,1.2-1.2,2.1-2.3,2.8C156.9,58,155.4,58.3,153.4,58.3 M171.8,58.3c-2,0-3.5-0.3-4.7-1
	c-1.1-0.7-2-1.7-2.5-3c-0.5-1.3-0.7-2.9-0.7-4.7v-9.8c0-1.8,0.2-3.4,0.7-4.7c0.5-1.3,1.3-2.3,2.5-2.9c1.2-0.7,2.7-1,4.7-1
	c2,0,3.6,0.3,4.7,1c1.2,0.7,2,1.7,2.5,2.9c0.5,1.3,0.8,2.8,0.8,4.7v9.8c0,1.8-0.2,3.4-0.8,4.7c-0.5,1.3-1.3,2.3-2.5,3
	C175.3,58,173.8,58.3,171.8,58.3 M171.8,54.2c0.6,0,1.1-0.1,1.3-0.5c0.3-0.3,0.5-0.7,0.6-1.2c0.1-0.5,0.1-1,0.1-1.5V38.4
	c0-0.5,0-1-0.1-1.5c-0.1-0.5-0.3-0.9-0.6-1.2c-0.3-0.3-0.7-0.5-1.3-0.5c-0.6,0-1,0.1-1.3,0.5c-0.3,0.3-0.5,0.7-0.6,1.2
	c-0.1,0.5-0.1,1-0.1,1.5v12.7c0,0.5,0,1,0.1,1.5c0.1,0.5,0.3,0.9,0.5,1.2C170.7,54,171.2,54.2,171.8,54.2 M185.4,57.9v-22h-4v-4.3
	h13.8v4.3h-3.9v22H185.4z M197.5,57.9V31.5h11.9v4h-6v6.5h4.6v4h-4.6V54h6.1v3.9L197.5,57.9L197.5,57.9z M210.8,57.9l5-26.4h6.6
	l4.9,26.4H222l-0.9-5.6h-3.9l-0.9,5.6C216.3,57.9,210.8,57.9,210.8,57.9z M217.8,48.9h2.8l-1.4-10.3L217.8,48.9z M236.8,58.3
	c-2,0-3.6-0.3-4.7-1c-1.1-0.7-1.9-1.6-2.4-2.9c-0.5-1.3-0.7-2.8-0.7-4.7V31.5h5.8v19.1c0,0.5,0,1.1,0.1,1.6c0.1,0.5,0.3,1,0.6,1.3
	c0.3,0.3,0.7,0.5,1.4,0.5c0.6,0,1.1-0.2,1.4-0.5c0.3-0.3,0.5-0.8,0.5-1.3c0.1-0.5,0.1-1.1,0.1-1.6V31.5h5.8v18.2
	c0,1.8-0.2,3.4-0.7,4.7c-0.5,1.3-1.3,2.2-2.4,2.9C240.4,58,238.9,58.3,236.8,58.3 M246.6,57.9l5.1-14.2l-4.9-12.2h5.5l2.9,7.1
	l2.3-7.1h4.9l-4.6,13.7l5.1,12.7h-5.5l-3.2-7.9l-2.8,7.9L246.6,57.9L246.6,57.9z M92.6,90.5V64.1h6.7c2.3,0,4.1,0.3,5.4,0.9
	c1.3,0.6,2.2,1.5,2.7,2.7c0.5,1.2,0.8,2.8,0.8,4.8V82c0,2-0.3,3.6-0.8,4.8c-0.5,1.2-1.4,2.2-2.7,2.8c-1.3,0.6-3,0.9-5.3,0.9
	L92.6,90.5L92.6,90.5z M98.4,86.5h0.9c0.9,0,1.5-0.1,1.9-0.4c0.4-0.3,0.6-0.7,0.7-1.2c0.1-0.5,0.1-1.2,0.1-2V71.4
	c0-0.8-0.1-1.4-0.2-1.9c-0.1-0.5-0.4-0.8-0.8-1c-0.4-0.2-1-0.3-1.9-0.3h-0.9V86.5z M118.5,90.9c-2,0-3.6-0.3-4.7-1
	c-1.1-0.7-1.9-1.6-2.4-2.9c-0.5-1.3-0.7-2.8-0.7-4.7V64.1h5.8v19.1c0,0.5,0,1.1,0.1,1.6s0.3,1,0.6,1.3c0.3,0.3,0.7,0.5,1.4,0.5
	c0.6,0,1.1-0.2,1.4-0.5c0.3-0.3,0.5-0.8,0.5-1.3c0.1-0.5,0.1-1.1,0.1-1.6V64.1h5.8v18.2c0,1.8-0.2,3.4-0.7,4.7
	c-0.5,1.3-1.3,2.2-2.4,2.9C122.1,90.6,120.5,90.9,118.5,90.9 M138.3,90.5V64.1h5.8v22.4h6.1v3.9L138.3,90.5L138.3,90.5z M151.5,90.5
	l5-26.4h6.6l4.9,26.4h-5.4l-0.9-5.6h-3.9l-0.9,5.6H151.5z M158.4,81.4h2.8l-1.4-10.3L158.4,81.4z M176.6,90.9c-2,0-3.6-0.4-4.7-1.1
	c-1.2-0.7-2-1.7-2.5-3.1c-0.5-1.3-0.7-2.9-0.7-4.6v-9.5c0-1.8,0.2-3.4,0.7-4.7c0.5-1.3,1.3-2.3,2.5-3c1.2-0.7,2.7-1.1,4.7-1.1
	c2,0,3.5,0.3,4.6,1c1.1,0.6,1.9,1.5,2.3,2.7c0.5,1.2,0.7,2.5,0.7,4v2.3h-5.7V71c0-0.5,0-1-0.1-1.5c-0.1-0.5-0.2-0.9-0.5-1.2
	c-0.3-0.3-0.7-0.5-1.3-0.5c-0.6,0-1.1,0.2-1.4,0.5c-0.3,0.3-0.5,0.7-0.6,1.2c-0.1,0.5-0.1,1-0.1,1.5v12.4c0,0.6,0,1.1,0.1,1.6
	c0.1,0.5,0.3,0.9,0.6,1.2c0.3,0.3,0.7,0.4,1.3,0.4c0.6,0,1-0.2,1.3-0.5c0.3-0.3,0.4-0.7,0.5-1.2c0.1-0.5,0.1-1,0.1-1.5v-2.8h5.7V83
	c0,1.5-0.2,2.8-0.7,4c-0.4,1.2-1.2,2.1-2.3,2.8C180.2,90.5,178.6,90.9,176.6,90.9"/>
<path class="st1" d="M85.1,31.5v6.6c-12.8,0-23.2,10.4-23.2,23.2h-6.6c0-12.8-10.4-23.2-23.2-23.2v-6.6c11.6,0,21.7,6.6,26.6,16.2
	C63.5,38.1,73.5,31.5,85.1,31.5 M68.5,61.4h6.6c0-5.5,4.5-10,10-10v-6.6C76,44.8,68.5,52.3,68.5,61.4 M42,61.4h6.6
	c0-9.2-7.4-16.6-16.6-16.6v6.6C37.5,51.5,42,55.9,42,61.4 M71.8,70.6c-2.2,0-3.1-0.7-4.6-1.9c-1.8-1.4-4.2-3.4-8.7-3.4
	c-4.5,0-6.9,2-8.7,3.4c-1.5,1.2-2.4,1.9-4.6,1.9c-2.2,0-3.1-0.7-4.6-1.9c-1.8-1.4-4.2-3.4-8.7-3.4V72c2.2,0,3.1,0.7,4.6,1.9
	c1.8,1.4,4.2,3.4,8.7,3.4c4.5,0,6.9-2,8.7-3.4c1.5-1.2,2.4-1.9,4.6-1.9c2.2,0,3.1,0.7,4.6,1.9c1.8,1.4,4.2,3.4,8.7,3.4
	c4.5,0,6.9-2,8.7-3.4c1.5-1.2,2.4-1.9,4.6-1.9v-6.6c-4.5,0-6.9,2-8.7,3.4C74.9,69.9,74,70.6,71.8,70.6 M71.8,83.9
	c-2.2,0-3.1-0.7-4.6-1.9c-1.8-1.4-4.2-3.4-8.7-3.4c-4.5,0-6.9,2-8.7,3.4c-1.5,1.2-2.4,1.9-4.6,1.9c-2.2,0-3.1-0.7-4.6-1.9
	c-1.8-1.4-4.2-3.4-8.7-3.4v6.6c2.2,0,3.1,0.7,4.6,1.9c1.8,1.4,4.2,3.4,8.7,3.4c4.5,0,6.9-2,8.7-3.4c1.5-1.2,2.4-1.9,4.6-1.9
	c2.2,0,3.1,0.7,4.6,1.9c1.8,1.4,4.2,3.4,8.7,3.4c4.5,0,6.9-2,8.7-3.4c1.5-1.2,2.4-1.9,4.6-1.9v-6.6c-4.5,0-6.9,1.9-8.7,3.4
	C74.9,83.2,74,83.9,71.8,83.9"/>
</svg>
