<?xml version="1.0" encoding="utf-8"?>
<!-- Generator: Adobe Illustrator 26.0.2, SVG Export Plug-In . SVG Version: 6.00 Build 0)  -->
<svg version="1.1" id="Layer_2_00000065788237500721147520000018211357908882067841_"
	 xmlns="http://www.w3.org/2000/svg" xmlns:xlink="http://www.w3.org/1999/xlink" x="0px" y="0px" viewBox="0 0 1112.3 402.9"
	 style="enable-background:new 0 0 1112.3 402.9;" xml:space="preserve">
<g>
	<polygon points="925.1,79.1 920.5,79.1 816.6,323.8 841.9,323.8 922.8,133 1003.8,323.8 1029,323.8 	"/>
	<polygon points="768.4,323.8 773,323.8 876.9,79.1 851.7,79.1 770.7,269.9 689.7,79.1 664.5,79.1 	"/>
	<polygon points="639.2,79.1 523,79.1 523,102.5 615.8,102.5 615.8,323.8 639.2,323.8 	"/>
	<polygon points="502.8,79.5 386.6,79.5 386.6,102.9 479.4,102.9 479.4,324.2 502.8,324.2 	"/>
	<polygon points="334.9,79.1 330.3,79.1 226.4,323.8 251.6,323.8 332.6,133 413.6,323.8 438.8,323.8 	"/>
	<polygon points="199.5,79.1 83.3,79.1 83.3,102.5 176.1,102.5 176.1,323.8 199.5,323.8 	"/>
</g>
</svg>
