<svg version="1.1" xmlns="http://www.w3.org/2000/svg" xmlns:xlink="http://www.w3.org/1999/xlink" x="0px" y="0px" width="1470px"
     height="630px" viewBox="-694.154 381 1470 630" enable-background="new -694.154 381 1470 630" xml:space="preserve">

    <text transform="matrix(1 0 0 1 -403.8542 423.0068)" font-family="'MyriadPro-Regular'" font-size="49.5">Bâtiment B</text>
    <text transform="matrix(1 0 0 1 276.1458 423.0068)" font-family="'MyriadPro-Regular'" font-size="49.5">Bâtiment A</text>

    <g id="Bat-B">
        <g class="floor" id="floor-B0">
            <g class="lot lot50" id="B005">
                <rect x="-378.2" y="857.637" width="70.592" height="9.427"/>
                <polygon points="-323.782,815.432 -223.197,815.432 -307.608,857.637 -408.194,857.637"/>
                <polygon points="-223.197,815.432 -307.608,857.637 -307.608,867.063 -286.505,867.063 -227.087,867.063 -227.087,857.351 -223.197,857.351"/>
            </g>
            <g class="lot lot49" id="B004">
                <polygon points="-439.804,815.432 -323.782,815.432 -408.194,857.637 -378.199,857.637 -397.053,867.063 -423.619,867.063 -435.616,873.062 -471.181,873.062 -605.296,940.119 -689.181,940.119"/>
                <rect x="-689.181" y="940.119" width="83.885" height="67"/>
                <polygon points="-378.2,857.637 -397.053,867.063 -378.2,867.063"/>
            </g>
            <g class="lot lot48" id="B003">
                <polygon points="-605.296,940.119 -471.181,873.062 -435.616,873.062 -423.619,867.063 -397.053,867.063 -286.505,867.063 -432.617,940.119"/>
                <rect x="-605.296" y="940.119" width="172.679" height="67"/>
            </g>
            <g class="lot lot47" id="B002">
                <polygon points="-286.505,867.063 -148.531,867.063 -159.957,872.775 -125.965,872.775 -260.795,940.191 -432.617,940.119"/>
                <polygon points="-260.795,1007.191 -432.617,1007.191 -432.617,940.119 -260.795,940.191"/>
            </g>
            <g class="lot lot46" id="B001">
                <polygon points="-143.105,815.359 -227.087,857.351 -204.236,857.351 -223.66,867.063 -148.531,867.063 -159.957,872.775 -125.965,872.775 -260.795,940.191 -176.813,940.191 72.85,815.359"/>
                <rect x="-260.795" y="940.191" width="83.982" height="67"/>
                <polygon points="72.85,815.359 72.85,882.359 -176.813,1007.191 -176.813,940.191"/>
                <polygon points="-227.087,857.351 -204.236,857.351 -223.66,867.063 -227.087,867.063"/>
            </g>
        </g>
        <g class="floor" id="floor-B1">
            <g class="lot lot55" id="B105">
                <rect x="-378.2" y="790.637" width="70.592" height="9.427"/>
                <polygon points="-323.782,748.432 -223.197,748.432 -307.608,790.637 -408.194,790.637"/>
                <polygon points="-223.197,748.432 -307.608,790.637 -307.608,800.063 -286.505,800.063 -227.087,800.063 -227.087,790.351 -223.197,790.351"/>
            </g>
            <g class="lot lot54" id="B104">
                <polygon points="-439.804,748.432 -323.782,748.432 -408.194,790.637 -378.199,790.637 -397.053,800.063 -423.619,800.063 -435.616,806.062 -471.181,806.062 -605.296,873.119 -689.181,873.119"/>
                <rect x="-689.181" y="873.119" width="83.885" height="67"/>
                <polygon points="-378.2,790.637 -397.053,800.063 -378.2,800.063"/>
            </g>
            <g class="lot lot53" id="B103">
                <polygon points="-605.296,873.119 -471.181,806.062 -435.616,806.062 -423.619,800.063 -397.053,800.063 -286.505,800.063 -432.617,873.119"/>
                <rect x="-605.296" y="873.119" width="172.679" height="67"/>
            </g>
            <g class="lot lot52" id="B102">
                <polygon points="-286.505,800.063 -148.531,800.063 -159.957,805.775 -125.965,805.775 -260.795,873.191 -432.617,873.119"/>
                <polygon points="-260.795,940.191 -432.617,940.191 -432.617,873.119 -260.795,873.191"/>
            </g>
            <g class="lot lot51" id="B101">
                <polygon points="-143.105,748.359 -227.087,790.351 -204.236,790.351 -223.66,800.063 -148.531,800.063 -159.957,805.775 -125.965,805.775 -260.795,873.191 -176.813,873.191 72.85,748.359"/>
                <rect x="-260.795" y="873.191" width="83.982" height="67"/>
                <polygon points="72.85,748.359 72.85,815.359 -176.813,940.191 -176.813,873.191"/>
                <polygon points="-227.087,790.351 -204.236,790.351 -223.66,800.063 -227.087,800.063"/>
            </g>
        </g>
        <g class="floor" id="floor-B2">
            <g class="lot lot60" id="B205">
                <rect x="-378.2" y="723.637" width="70.592" height="9.427"/>
                <polygon points="-323.782,681.432 -223.197,681.432 -307.608,723.637 -408.194,723.637"/>
                <polygon points="-223.197,681.432 -307.608,723.637 -307.608,733.063 -286.505,733.063 -227.087,733.063 -227.087,723.351 -223.197,723.351"/>
            </g>
            <g class="lot lot59" id="B204">
                <polygon points="-439.804,681.432 -323.782,681.432 -408.194,723.637 -378.199,723.637 -397.053,733.063 -423.619,733.063 -435.616,739.062 -471.181,739.062 -605.296,806.119 -689.181,806.119"/>
                <rect x="-689.181" y="806.119" width="83.885" height="67"/>
                <polygon points="-378.2,723.637 -397.053,733.063 -378.2,733.063"/>
            </g>
            <g class="lot lot58" id="B203">
                <polygon points="-605.296,806.119 -471.181,739.062 -435.616,739.062 -423.619,733.063 -397.053,733.063 -286.505,733.063 -432.617,806.119"/>
                <rect x="-605.296" y="806.119" width="172.679" height="67"/>
            </g>
            <g class="lot lot57" id="B202">
                <polygon points="-286.505,733.063 -148.531,733.063 -159.957,738.775 -125.965,738.775 -260.795,806.191 -432.617,806.119"/>
                <polygon points="-260.795,873.191 -432.617,873.191 -432.617,806.119 -260.795,806.191"/>
            </g>
            <g class="lot lot56" id="B201">
                <polygon points="-143.105,681.359 -227.087,723.351 -204.236,723.351 -223.66,733.063 -148.531,733.063 -159.957,738.775 -125.965,738.775 -260.795,806.191 -176.813,806.191 72.85,681.359"/>
                <rect x="-260.795" y="806.191" width="83.982" height="67"/>
                <polygon points="72.85,681.359 72.85,748.359 -176.813,873.191 -176.813,806.191"/>
                <polygon points="-227.087,723.351 -204.236,723.351 -223.66,733.063 -227.087,733.063"/>
            </g>
        </g>
        <g class="floor" id="floor-B3">
            <g class="lot lot65" id="B305">
                <polygon points="-323.782,614.432 -223.197,614.432 -307.608,656.637 -408.194,656.637"/>
                <rect x="-378.2" y="656.637" width="70.592" height="9.427"/>
                <polygon points="-223.197,614.432 -307.608,656.637 -307.608,666.063 -286.505,666.063 -227.087,666.063 -227.087,656.351 -223.197,656.351"/>
            </g>
            <g class="lot lot64" id="B304">
                <polygon points="-408.194,656.637 -323.782,614.432 -439.804,614.432 -689.181,739.119 -605.296,739.119 -543.166,739.119 -397.053,666.063 -378.199,656.637"/>
                <polygon points="-378.2,656.637 -397.053,666.063 -378.2,666.063"/>
                <rect x="-689.181" y="739.119" width="146.015" height="67"/>
            </g>
            <g class="lot lot63" id="B303">
                <polygon points="-397.053,666.063 -286.505,666.063 -432.617,739.119 -543.166,739.119"/>
                <rect x="-543.166" y="739.119" width="110.405" height="67.072"/>
            </g>
            <g class="lot lot62" id="B302">
                <polygon points="-286.79,666.063 -176.24,666.063 -322.354,739.119 -432.903,739.119"/>
                <rect x="-432.617" y="739.119" width="110.264" height="67"/>
            </g>
            <g class="lot lot61" id="B301">
                <polygon points="-143.105,614.359 -227.087,656.351 -204.236,656.351 -223.66,666.063 -176.241,666.063 -322.355,739.119 -260.652,739.119 -176.669,739.119 72.85,614.359"/>
                <polygon points="72.85,614.359 72.85,681.359 -176.813,806.191 -176.813,739.119"/>
                <polygon points="-227.087,656.351 -204.236,656.351 -223.66,666.063 -227.087,666.063"/>
                <rect x="-322.354" y="739.119" width="145.541" height="67.072"/>
            </g>
        </g>
        <g class="floor" id="floor-B4">
            <g class="lot lot70" id="B405">
                <polygon points="-323.782,547.432 -223.197,547.432 -307.608,589.637 -408.194,589.637"/>
                <rect x="-378.2" y="589.637" width="70.592" height="9.427"/>
                <polygon points="-223.197,547.432 -307.608,589.637 -307.608,599.063 -286.505,599.063 -227.087,599.063 -227.087,589.351 -223.197,589.351"/>
            </g>
            <g class="lot lot69" id="B404">
                <polygon points="-408.194,589.637 -323.782,547.432 -439.804,547.432 -689.181,672.119 -605.296,672.119 -543.166,672.119 -397.053,599.063 -378.199,589.637"/>
                <polygon points="-378.2,589.637 -397.053,599.063 -378.2,599.063"/>
                <rect x="-689.181" y="672.119" width="146.015" height="67"/>
            </g>
            <g class="lot lot68" id="B403">
                <polygon points="-397.053,599.063 -286.505,599.063 -432.617,672.119 -543.166,672.119"/>
                <rect x="-543.166" y="672.119" width="110.405" height="67.072"/>
            </g>
            <g class="lot lot67" id="B402">
                <polygon points="-286.79,599.063 -176.24,599.063 -322.354,672.119 -432.903,672.119"/>
                <rect x="-432.617" y="672.119" width="110.264" height="67"/>
            </g>
            <g class="lot lot66" id="B401">
                <polygon points="-143.105,547.359 -227.087,589.351 -204.236,589.351 -223.66,599.063 -176.241,599.063 -322.355,672.119 -260.652,672.119 -176.669,672.119 72.85,547.359"/>
                <polygon points="72.85,547.359 72.85,614.359 -176.813,739.191 -176.813,672.119"/>
                <polygon points="-227.087,589.351 -204.236,589.351 -223.66,599.063 -227.087,599.063"/>
                <rect x="-322.354" y="672.119" width="145.541" height="67.072"/>
            </g>
        </g>
    </g>

    <g id="Bat-A">
        <g class="floor" id="floor-A0">
            <g class="lot lot9" id="A009">
                <polygon points="531.115,1007.5 531.115,940.251 677.543,867.039 677.543,934.288"/>
                <rect x="414.633" y="940.251" width="116.482" height="67.249"/>
                <polygon points="561.059,867.039 677.543,867.039 531.115,940.251 414.633,940.251"/>
            </g>
            <g class="lot lot8" id="A008">
                <polygon points="546.666,867.039 677.543,867.039 772.49,819.565 641.615,819.565"/>
                <polygon points="772.49,819.565 772.49,886.813 677.543,934.288 677.543,867.039"/>
                <polygon points="546.666,867.039 561.059,867.039 546.666,874.292"/>
            </g>
            <g class="lot lot7" id="A007">
                <polygon points="447.987,867.039 546.666,867.039 649.78,815.481 551.149,815.481"/>
                <polygon points="641.615,819.565 649.78,819.572 649.78,815.481"/>
                <polygon points="546.666,874.235 546.666,867.039 447.987,867.039 447.987,885.372 496.231,885.372 496.231,899.453"/>
            </g>
            <g class="lot lot6" id="A006">
                <polygon points="347.001,867.039 447.987,867.039 551.149,815.481 450.115,815.481"/>
                <polygon points="410.069,889.455 431.446,889.455 439.612,885.372 447.987,885.372 447.987,867.039 347.001,867.039 347.001,875.525 410.069,875.525"/>
            </g>
            <g class="lot lot5" id="A005">
                <polygon points="244.91,867.039 347.001,867.039 450.115,815.481 348.025,815.481"/>
                <rect x="262.522" y="867.039" width="84.479" height="8.486"/>
            </g>
            <g class="lot lot4" id="A004">
                <polygon points="7.938,925.241 99.845,925.3 99.845,992.49 7.938,992.49"/>
                <polygon points="262.522,867.039 244.91,867.039 348.025,815.481 226.978,815.481 7.938,925.241 99.845,925.3 198.797,875.525 245.551,875.525 "/>
                <polygon points="262.522,875.525 262.522,867.039 245.551,875.525"/>
            </g>
            <g class="lot lot3" id="A003">
                <polygon points="198.797,875.525 303.432,875.525 204.001,925.241 99.845,925.3"/>
                <polygon points="99.845,925.3 204.001,925.241 204,992.49 99.845,992.49"/>
            </g>
            <g class="lot lot2" id="A002">
                <polygon points="310.637,925.241 204.001,925.241 303.432,875.525 410.069,875.525"/>
                <polygon points="410.069,875.525 382.241,889.455 410.069,889.455"/>
                <polygon points="310.637,925.241 204.001,925.241 204,992.49 280.616,992.49 280.616,940.251 310.637,925.245"/>
            </g>
            <g class="lot lot1" id="A001">
                <polygon points="496.231,885.372 386.472,940.251 386.472,1007.5 414.633,993.419 414.633,940.251 496.231,899.452"/>
                <rect x="280.616" y="940.251" width="105.855" height="67.249"/>
                <polygon points="439.612,885.372 431.446,889.455 382.241,889.455 280.616,940.251 329.851,940.251 386.472,940.251 496.231,885.372"/>
            </g>
        </g>
        <g class="floor" id="floor-A1">
            <g class="lot lot18" id="A109">
                <polygon points="531.115,940.251 531.115,873.002 677.543,799.79 677.543,867.039"/>
                <rect x="386.471" y="873.002" width="144.644" height="67.249"/>
                <polygon points="561.059,799.79 514.733,822.953 486.584,822.953 386.471,873.002 414.633,873.002 531.115,873.002 677.543,799.79"/>
            </g>
            <g class="lot lot17" id="A108">
                <polygon points="546.666,799.79 677.543,799.79 772.49,752.316 641.615,752.316"/>
                <polygon points="772.49,752.316 772.49,819.563 677.543,867.039 677.543,799.79"/>
                <polygon points="546.666,799.79 561.059,799.79 546.666,807.043"/>
            </g>
            <g class="lot lot16" id="A107">
                <polygon points="447.987,799.79 546.666,799.79 649.78,748.232 551.149,748.232"/>
                <polygon points="641.615,752.316 649.78,752.323 649.78,748.232"/>
                <polygon points="546.666,799.79 447.987,799.79 447.987,818.123 496.231,818.123 496.231,822.953 514.733,822.953 546.666,806.986"/>
            </g>
            <g class="lot lot15" id="A106">
                <polygon points="347.001,799.79 447.987,799.79 551.149,748.232 450.115,748.232"/>
                <polygon points="410.069,822.206 431.446,822.206 439.612,818.123 447.987,818.123 447.987,799.79 347.001,799.79 347.001,808.276 410.069,808.276"/>
            </g>
            <g class="lot lot14" id="A105">
                <polygon points="244.91,799.79 347.001,799.79 450.115,748.232 348.025,748.232"/>
                <rect x="262.522" y="799.79" width="84.479" height="8.486"/>
            </g>
            <g class="lot lot13" id="A104">
                <polygon points="7.938,857.992 99.845,858.051 99.845,925.241 7.938,925.241"/>
                <polygon points="262.522,799.79 244.91,799.79 348.025,748.232 226.978,748.232 7.938,857.992 99.845,858.051 198.797,808.276 245.551,808.276 "/>
                <polygon points="262.522,808.276 262.522,799.79 245.551,808.276"/>
            </g>
            <g class="lot lot12" id="A103">
                <polygon points="198.797,808.276 303.432,808.276 204.001,857.992 99.845,858.051"/>
                <polygon points="99.845,858.051 204.001,857.992 204,925.241 99.845,925.241"/>
            </g>
            <g class="lot lot11" id="A102">
                <polygon points="310.637,857.992 204.001,857.992 303.432,808.276 410.069,808.276"/>
                <polygon points="410.069,808.276 382.241,822.206 410.069,822.206"/>
                <polygon points="310.637,857.992 204.001,857.992 204,925.241 280.616,925.241 280.616,873.002 310.637,857.996"/>
            </g>
            <g class="lot lot10" id="A101">

                <rect x="280.616" y="873.002" width="105.855" height="67.249"/>
                <polygon points="439.612,818.123 431.446,822.206 382.241,822.206 280.616,873.002 329.851,873.002 386.472,873.002 496.231,818.123"/>
                <polygon points="496.231,822.953 496.231,818.123 486.584,822.953"/>
            </g>
        </g>
        <g class="floor" id="floor-A2">
            <g class="lot lot27" id="A209">
                <polygon points="531.115,873.004 531.115,805.755 677.543,732.543 677.543,799.792"/>
                <rect x="386.471" y="805.755" width="144.644" height="67.249"/>
                <polygon points="561.059,732.543 514.733,755.706 486.584,755.706 386.471,805.755 414.633,805.755 531.115,805.755 677.543,732.543"/>
            </g>
            <g class="lot lot26" id="A208">
                <polygon points="546.666,732.543 677.543,732.543 772.49,685.069 641.615,685.069"/>
                <polygon points="772.49,685.069 772.49,752.316 677.543,799.792 677.543,732.543"/>
                <polygon points="546.666,732.543 561.059,732.543 546.666,739.796"/>
            </g>
            <g class="lot lot25" id="A207">
                <polygon points="447.987,732.543 546.666,732.543 649.78,680.985 551.149,680.985"/>
                <polygon points="641.615,685.069 649.78,685.076 649.78,680.985"/>
                <polygon points="546.666,732.543 447.987,732.543 447.987,750.876 496.231,750.876 496.231,755.706 514.733,755.706 546.666,739.739"/>
            </g>
            <g class="lot lot24" id="A206">
                <polygon points="347.001,732.543 447.987,732.543 551.149,680.985 450.115,680.985"/>
                <polygon points="410.069,754.959 431.446,754.959 439.612,750.876 447.987,750.876 447.987,732.543 347.001,732.543 347.001,741.029 410.069,741.029"/>
            </g>
            <g class="lot lot23" id="A205">
                <polygon points="244.91,732.543 347.001,732.543 450.115,680.985 348.025,680.985"/>
                <rect x="262.522" y="732.543" width="84.479" height="8.486"/>
            </g>
            <g class="lot lot22" id="A204">
                <polygon points="7.938,790.745 99.845,790.804 99.845,857.994 7.938,857.994"/>
                <polygon points="262.522,732.543 244.91,732.543 348.025,680.985 226.978,680.985 7.938,790.745 99.845,790.804 198.797,741.029 245.551,741.029 "/>
                <polygon points="262.522,741.029 262.522,732.543 245.551,741.029"/>
            </g>
            <g class="lot lot21" id="A203">
                <polygon points="198.797,741.029 303.432,741.029 204.001,790.745 99.845,790.804"/>
                <polygon points="99.845,790.804 204.001,790.745 204,857.994 99.845,857.994"/>
            </g>
            <g class="lot lot20" id="A202">
                <polygon points="310.637,790.745 204.001,790.745 303.432,741.029 410.069,741.029"/>
                <polygon points="410.069,741.029 382.241,754.959 410.069,754.959"/>
                <polygon points="310.637,790.745 204.001,790.745 204,857.994 280.616,857.994 280.616,805.755 310.637,790.749"/>
            </g>
            <g class="lot lot19" id="A201">
                <rect x="280.616" y="805.755" width="105.855" height="67.249"/>
                <polygon points="439.612,750.876 431.446,754.959 382.241,754.959 280.616,805.755 329.851,805.755 386.472,805.755 496.231,750.876"/>
                <polygon points="496.231,755.706 496.231,750.876 486.584,755.706"/>
            </g>
        </g>

        <g class="floor" id="floor-A3">
            <g class="lot lot36" id="A309">
                <polygon points="531.115,805.757 531.115,738.508 677.543,665.296 677.543,732.545"/>
                <rect x="386.471" y="738.508" width="144.644" height="67.249"/>
                <polygon points="561.059,665.296 514.733,688.459 486.584,688.459 386.471,738.508 414.633,738.508 531.115,738.508 677.543,665.296"/>
            </g>
            <g class="lot lot35" id="A308">
                <polygon points="546.666,665.296 677.543,665.296 772.49,617.822 641.615,617.822"/>
                <polygon points="772.49,617.822 772.49,685.069 677.543,732.545 677.543,665.296"/>
                <polygon points="546.666,665.296 561.059,665.296 546.666,672.549"/>
            </g>
            <g class="lot lot34" id="A307">
                <polygon points="447.987,665.296 546.666,665.296 649.78,613.738 551.149,613.738"/>
                <polygon points="641.615,617.822 649.78,617.829 649.78,613.738"/>
                <polygon points="546.666,665.296 447.987,665.296 447.987,683.629 496.231,683.629 496.231,688.459 514.733,688.459 546.666,672.492"/>
            </g>
            <g class="lot lot33" id="A306">
                <polygon points="347.001,665.296 447.987,665.296 551.149,613.738 450.115,613.738"/>
                <polygon points="410.069,687.712 431.446,687.712 439.612,683.629 447.987,683.629 447.987,665.296 347.001,665.296 347.001,673.782 410.069,673.782"/>
            </g>
            <g class="lot lot32" id="A305">
                <polygon points="244.91,665.296 347.001,665.296 450.115,613.738 348.025,613.738"/>
                <rect x="262.522" y="665.296" width="84.479" height="8.486"/>
            </g>
            <g class="lot lot31" id="A303">
                <polygon points="198.797,673.782 303.432,673.782 204.001,723.498 99.845,723.557"/>
                <polygon points="99.845,723.557 204.001,723.498 204,790.747 99.845,790.747"/>
            </g>
            <g class="lot lot30" id="A304">
                <polygon points="7.938,723.498 99.845,723.557 99.845,790.747 7.938,790.747"/>
                <polygon points="262.522,665.296 244.91,665.296 348.025,613.738 226.978,613.738 7.938,723.498 99.845,723.557 198.797,673.782 245.551,673.782 "/>
                <polygon points="262.522,673.782 262.522,665.296 245.551,673.782"/>
            </g>
            <g class="lot lot29" id="A302">
                <polygon points="310.637,723.498 204.001,723.498 303.432,673.782 410.069,673.782"/>
                <polygon points="410.069,673.782 382.241,687.712 410.069,687.712"/>
                <polygon points="310.637,723.498 204.001,723.498 204,790.747 280.616,790.747 280.616,738.508 310.637,723.502"/>
            </g>
            <g class="lot lot28" id="A301">
                <rect x="280.616" y="738.508" width="105.855" height="67.249"/>
                <polygon points="439.612,683.629 431.446,687.712 382.241,687.712 280.616,738.508 329.851,738.508 386.472,738.508 496.231,683.629"/>
                <polygon points="496.231,688.459 496.231,683.629 486.584,688.459"/>
            </g>
        </g>
        <g class="floor" id="floor-A4">
            <g class="lot lot45" id="A409">
                <polygon points="531.115,738.51 531.115,671.261 677.543,598.049 677.543,665.298"/>
                <rect x="386.471" y="671.261" width="144.644" height="67.249"/>
                <polygon points="561.059,598.049 514.733,621.212 486.584,621.212 386.471,671.261 414.633,671.261 531.115,671.261 677.543,598.049"/>
            </g>
            <g class="lot lot44" id="A408">
                <polygon points="546.666,598.049 677.543,598.049 772.49,550.575 641.615,550.575"/>
                <polygon points="772.49,550.575 772.49,617.822 677.543,665.298 677.543,598.049"/>
                <polygon points="546.666,598.049 561.059,598.049 546.666,605.302"/>
            </g>
            <g class="lot lot43" id="A407">
                <polygon points="447.987,598.049 546.666,598.049 649.78,546.491 551.149,546.491"/>
                <polygon points="641.615,550.575 649.78,550.582 649.78,546.491"/>
                <polygon points="546.666,598.049 447.987,598.049 447.987,616.382 496.231,616.382 496.231,621.212 514.733,621.212 546.666,605.245"/>
            </g>
            <g class="lot lot42" id="A406">
                <polygon points="347.001,598.049 447.987,598.049 551.149,546.491 450.115,546.491"/>
                <polygon points="410.069,620.465 431.446,620.465 439.612,616.382 447.987,616.382 447.987,598.049 347.001,598.049 347.001,606.535 410.069,606.535"/>
            </g>
            <g class="lot lot41" id="A405">
                <polygon points="244.91,598.049 347.001,598.049 450.115,546.491 348.025,546.491"/>
                <rect x="262.522" y="598.049" width="84.479" height="8.486"/>
            </g>
            <g class="lot lot40" id="A404">
                <polygon points="7.938,656.251 99.845,656.31 99.845,723.5 7.938,723.5"/>
                <polygon points="262.522,598.049 244.91,598.049 348.025,546.491 226.978,546.491 7.938,656.251 99.845,656.31 198.797,606.535 245.551,606.535 "/>
                <polygon points="262.522,606.535 262.522,598.049 245.551,606.535"/>
            </g>
            <g class="lot lot39" id="A403">
                <polygon points="198.797,606.535 303.432,606.535 204.001,656.251 99.845,656.31"/>
                <polygon points="99.845,656.31 204.001,656.251 204,723.5 99.845,723.5"/>
            </g>
            <g class="lot lot38" id="A402">
                <polygon points="310.637,656.251 204.001,656.251 303.432,606.535 410.069,606.535"/>
                <polygon points="410.069,606.535 382.241,620.465 410.069,620.465"/>
                <polygon points="310.637,656.251 204.001,656.251 204,723.5 280.616,723.5 280.616,671.261 310.637,656.255"/>
            </g>
            <g class="lot lot37" id="A401">
                <rect x="280.616" y="671.261" width="105.855" height="67.249"/>
                <polygon points="439.612,616.382 431.446,620.465 382.241,620.465 280.616,671.261 329.851,671.261 386.472,671.261 496.231,616.382"/>
                <polygon points="496.231,621.212 496.231,616.382 486.584,621.212"/>
            </g>
        </g>
    </g>
</svg>
