<svg version="1.1" id="Layer_3" xmlns="http://www.w3.org/2000/svg" xmlns:xlink="http://www.w3.org/1999/xlink" x="0px" y="0px"
     width="775.461px" height="1011px" viewBox="0 0 775.461 1011" enable-background="new 0 0 775.461 1011" xml:space="preserve">
    <g class="floor-1">
        <rect x="445.883" y="864.439" width="114.026" height="33.928"/>
        <polygon points="260.418,864.539 242.806,864.539 345.921,812.981 224.874,812.981 5.834,922.501 97.741,922.501 196.693,873.025 243.447,873.025"/>
        <polygon points="242.806,864.539 344.897,864.539 448.012,812.981 345.921,812.981"/>
        <polygon points="344.897,864.539 445.931,864.539 549.044,812.981 448.012,812.981"/>
        <polygon points="445.931,864.539 544.563,864.539 647.675,812.981 549.044,812.981"/>
        <polygon points="544.563,864.539 675.439,864.539 770.387,817.065 639.511,817.065"/>
        <polygon points="412.53,937.751 529.012,937.751 675.439,864.539 558.955,864.539"/>
        <polygon points="196.693,873.025 301.329,873.025 202.137,922.621 97.501,922.621"/>
        <polygon points="308.534,922.741 201.897,922.741 301.329,873.025 407.965,873.025"/>
        <rect x="97.741" y="922.501" width="104.396" height="67.367"/>
        <rect x="202.137" y="922.621" width="106.396" height="67.369"/>

        <g class="appartement" id="a-11">
            <polygon points="384.369,1005 384.369,937.751 494.127,882.872 494.127,950.12"/>
            <rect x="278.512" y="937.751" width="105.856" height="67.249"/>
        </g>

        <rect x="412.53" y="937.751" width="116.482" height="67.249"/>
        <rect x="5.074" y="922.8" width="92.667" height="66.948"/>
        <rect x="242.806" y="864.539" width="102.091" height="8.365"/>
        <polygon points="437.507,882.872 429.341,886.955 380.106,886.955 278.512,937.751 327.748,937.751 384.369,937.751 494.127,882.872"/>
        <polygon points="407.965,873.025 380.192,886.955 407.965,886.955"/>
        <polygon points="529.012,1005 529.012,937.751 675.439,864.539 675.439,931.788"/>
        <polygon points="770.387,817.065 770.387,884.313 675.439,931.788 675.439,864.539"/>
        <polygon points="639.511,817.065 647.675,817.072 647.675,812.981"/>
        <polygon points="407.965,886.955 429.341,886.955 437.507,882.872 445.931,882.872 445.931,864.539 344.897,864.539 344.897,873.025 407.965,873.025"/>
        <polygon points="380.192,886.955 407.965,873.025 380.106,886.955"/>
    </g>
    <g class="floor-2">
        <rect x="445.883" y="662.694" width="114.026" height="33.928"/>
        <polygon points="384.369,803.255 384.369,736.006 494.127,681.126 494.127,748.375"/>
        <polygon points="260.418,662.794 242.806,662.794 345.921,611.236 224.874,611.236 5.834,720.754 97.741,720.754 196.693,671.28 243.447,671.28"/>
        <polygon points="242.806,662.794 344.897,662.794 448.012,611.236 345.921,611.236"/>
        <polygon points="344.897,662.794 445.931,662.794 549.044,611.236 448.012,611.236"/>
        <polygon points="445.931,662.794 544.563,662.794 647.675,611.236 549.044,611.236"/>
        <polygon points="544.563,662.794 675.439,662.794 770.387,615.319 639.511,615.319"/>
        <polygon points="196.693,671.28 301.329,671.28 202.137,720.875 97.501,720.875"/>
        <polygon points="308.534,720.996 201.897,720.996 301.329,671.28 407.965,671.28"/>
        <rect x="242.806" y="662.794" width="102.091" height="8.365"/>
        <rect x="5.074" y="721.055" width="92.667" height="66.948"/>
        <rect x="97.741" y="720.754" width="104.396" height="67.369"/>
        <rect x="202.137" y="720.875" width="106.396" height="67.368"/>
        <rect x="278.512" y="736.006" width="105.856" height="67.249"/>
        <rect x="384.356" y="736.006" width="144.6" height="67.249"/>
        <polygon points="437.507,681.126 429.341,685.209 380.106,685.209 278.512,736.006 327.748,736.006 384.369,736.006 494.127,681.126"/>
        <polygon points="407.965,671.28 380.192,685.209 407.965,685.209"/>
        <polygon points="529.012,803.255 529.012,736.006 675.439,662.794 675.439,730.042"/>
        <polygon points="770.387,615.319 770.387,682.567 675.439,730.042 675.439,662.794"/>
        <polygon points="639.511,615.319 647.675,615.327 647.675,611.236"/>
        <polygon points="407.965,685.209 429.341,685.209 437.507,681.126 445.931,681.126 445.931,662.794 344.897,662.794 344.897,671.28 407.965,671.28"/>
        <polygon points="380.192,685.209 407.965,671.28 380.106,685.209"/>
        <polygon points="558.955,662.794 510.64,686.951 482.569,686.951 384.369,736.006 412.53,736.006 422.135,736.006 529.012,736.006 675.439,662.794"/>
    </g>
    <g class="floor-3">
        <rect x="445.883" y="460.948" width="114.026" height="33.929"/>
        <polygon points="384.369,601.509 384.369,534.261 494.127,479.381 494.127,546.629"/>
        <polygon points="260.418,461.048 242.806,461.048 345.921,409.491 224.874,409.491 5.834,519.01 97.741,519.01 196.693,469.534 243.447,469.534"/>
        <polygon points="242.806,461.048 344.897,461.048 448.012,409.491 345.921,409.491"/>
        <polygon points="344.897,461.048 445.931,461.048 549.044,409.491 448.012,409.491"/>
        <polygon points="445.931,461.048 544.563,461.048 647.675,409.491 549.044,409.491"/>
        <polygon points="544.563,461.048 675.439,461.048 770.387,413.574 639.511,413.574"/>
        <polygon points="196.693,469.534 301.329,469.534 202.137,519.13 97.501,519.13"/>
        <polygon points="308.534,519.25 201.897,519.25 301.329,469.534 407.965,469.534"/>
        <rect x="242.806" y="461.048" width="102.091" height="8.365"/>
        <rect x="5.074" y="519.31" width="92.667" height="66.948"/>
        <rect x="97.741" y="519.01" width="104.396" height="67.368"/>
        <rect x="202.137" y="519.13" width="106.396" height="67.368"/>
        <rect x="278.512" y="534.261" width="105.856" height="67.249"/>
        <rect x="384.356" y="534.261" width="144.6" height="67.249"/>
        <polygon points="437.507,479.381 429.341,483.464 380.106,483.464 278.512,534.261 327.748,534.261 384.369,534.261 494.127,479.381"/>
        <polygon points="407.965,469.534 380.192,483.464 407.965,483.464"/>
        <polygon points="529.012,601.509 529.012,534.261 675.439,461.048 675.439,528.297"/>
        <polygon points="770.387,413.574 770.387,480.822 675.439,528.297 675.439,461.048"/>
        <polygon points="639.511,413.574 647.675,413.581 647.675,409.491"/>
        <polygon points="407.965,483.464 429.341,483.464 437.507,479.381 445.931,479.381 445.931,461.048 344.897,461.048 344.897,469.534 407.965,469.534"/>
        <polygon points="380.192,483.464 407.965,469.534 380.106,483.464"/>
        <polygon points="558.955,461.048 510.64,485.206 482.569,485.206 384.369,534.261 412.53,534.261 422.135,534.261 529.012,534.261 675.439,461.048 "/>
    </g>
    <g class="floor-4">
        <rect x="242.806" y="259.303" width="102.091" height="8.365"/>
        <polygon points="384.369,399.764 384.369,332.516 494.127,277.636 494.127,344.885"/>
        <polygon points="260.418,259.303 242.806,259.303 345.921,207.746 224.874,207.746 5.834,317.264 97.741,317.264 196.693,267.789 243.447,267.789"/>
        <polygon points="242.806,259.303 344.897,259.303 448.012,207.746 345.921,207.746"/>
        <polygon points="344.897,259.303 445.931,259.303 549.044,207.746 448.012,207.746"/>
        <polygon points="445.931,259.303 544.563,259.303 647.675,207.746 549.044,207.746"/>
        <polygon points="544.563,259.303 675.439,259.303 770.387,211.828 639.511,211.828"/>
        <polygon points="196.693,267.789 301.329,267.789 202.137,317.384 97.501,317.384"/>
        <polygon points="308.534,317.504 201.897,317.504 301.329,267.789 407.965,267.789"/>
        <rect x="445.883" y="259.203" width="114.026" height="33.928"/>
        <rect x="5.074" y="317.565" width="92.667" height="66.948"/>
        <rect x="97.741" y="317.264" width="104.396" height="67.369"/>
        <rect x="202.137" y="317.384" width="106.396" height="67.369"/>
        <rect x="278.512" y="332.516" width="105.856" height="67.249"/>
        <rect x="384.356" y="332.516" width="144.6" height="67.249"/>
        <polygon points="437.507,277.636 429.341,281.719 380.106,281.719 278.512,332.516 327.748,332.516 384.369,332.516 494.127,277.636"/>
        <polygon points="407.965,267.789 380.192,281.719 407.965,281.719"/>
        <polygon points="529.012,399.764 529.012,332.516 675.439,259.303 675.439,326.551"/>
        <polygon points="770.387,211.828 770.387,279.077 675.439,326.551 675.439,259.303"/>
        <polygon points="639.511,211.828 647.675,211.835 647.675,207.746"/>
        <polygon points="407.965,281.719 429.341,281.719 437.507,277.636 445.931,277.636 445.931,259.303 344.897,259.303 344.897,267.789 407.965,267.789"/>
        <polygon points="380.192,281.719 407.965,267.789 380.106,281.719"/>
        <polygon points="558.955,259.303 510.64,283.46 482.569,283.46 384.369,332.516 412.53,332.516 422.135,332.516 529.012,332.516 675.439,259.303"/>
    </g>
    <g class="floor-5">
        <rect x="445.883" y="57.458" width="114.026" height="33.928"/>
        <polygon points="384.369,198.018 384.369,130.77 494.127,75.891 494.127,143.139"/>
        <polygon points="260.418,57.558 242.806,57.558 345.921,6 224.874,6 5.834,115.52 97.741,115.52 196.693,66.043 243.447,66.043"/>
        <polygon points="242.806,57.558 344.897,57.558 448.012,6 345.921,6"/>
        <polygon points="344.897,57.558 445.931,57.558 549.044,6 448.012,6"/>
        <polygon points="445.931,57.558 544.563,57.558 647.675,6 549.044,6"/>
        <polygon points="544.563,57.558 675.439,57.558 770.387,10.083 639.511,10.083"/>
        <polygon points="196.693,66.043 301.329,66.043 202.137,115.639 97.501,115.639"/>
        <polygon points="308.534,115.759 201.897,115.759 301.329,66.043 407.965,66.043"/>
        <rect x="242.806" y="57.558" width="102.091" height="8.365"/>
        <rect x="5.074" y="115.82" width="92.667" height="66.948"/>
        <rect x="97.741" y="115.52" width="104.396" height="67.369"/>
        <rect x="202.137" y="115.639" width="106.396" height="67.369"/>
        <rect x="278.512" y="130.77" width="105.856" height="67.248"/>
        <rect x="384.356" y="130.77" width="144.6" height="67.248"/>
        <polygon points="437.507,75.891 429.341,79.974 380.106,79.974 278.512,130.77 327.748,130.77 384.369,130.77 494.127,75.891"/>
        <polygon points="407.965,66.043 380.192,79.974 407.965,79.974"/>
        <polygon points="529.012,198.018 529.012,130.77 675.439,57.558 675.439,124.806"/>
        <polygon points="770.387,10.083 770.387,77.332 675.439,124.806 675.439,57.558"/>
        <polygon points="639.511,10.083 647.675,10.091 647.675,6"/>
        <polygon points="407.965,79.974 429.341,79.974 437.507,75.891 445.931,75.891 445.931,57.558 344.897,57.558 344.897,66.043 407.965,66.043"/>
        <polygon points="380.192,79.974 407.965,66.043 380.106,79.974"/>
        <polygon points="558.955,57.558 510.64,81.715 482.569,81.715 384.369,130.77 412.53,130.77 422.135,130.77 529.012,130.77 675.439,57.558"/>
    </g>
</svg>
