<?xml version="1.0" encoding="utf-8"?>
<!-- Generator: Adobe Illustrator 15.1.0, SVG Export Plug-In . SVG Version: 6.00 Build 0)  -->
<!DOCTYPE svg PUBLIC "-//W3C//DTD SVG 1.1//EN" "http://www.w3.org/Graphics/SVG/1.1/DTD/svg11.dtd">
<svg version="1.1"
	 id="svg4155" inkscape:version="0.91 r13725" sodipodi:docname="Logo_Blender.svg" xmlns:dc="http://purl.org/dc/elements/1.1/" xmlns:cc="http://creativecommons.org/ns#" xmlns:rdf="http://www.w3.org/1999/02/22-rdf-syntax-ns#" xmlns:svg="http://www.w3.org/2000/svg" xmlns:sodipodi="http://sodipodi.sourceforge.net/DTD/sodipodi-0.dtd" xmlns:inkscape="http://www.inkscape.org/namespaces/inkscape"
	 xmlns="http://www.w3.org/2000/svg" xmlns:xlink="http://www.w3.org/1999/xlink" x="0px" y="0px" width="180.928px"
	 height="147.723px" viewBox="0 0 180.928 147.723" enable-background="new 0 0 180.928 147.723" xml:space="preserve">
<sodipodi:namedview  id="namedview4197" inkscape:current-layer="svg4155" inkscape:window-y="30" inkscape:window-x="0" fit-margin-bottom="2" fit-margin-right="2" inkscape:window-height="2130" inkscape:window-width="3840" inkscape:pageshadow="2" inkscape:pageopacity="0" inkscape:window-maximized="1" inkscape:cy="67.053133" inkscape:cx="242.41298" inkscape:zoom="2.8641304" pagecolor="#ffffff" guidetolerance="10" fit-margin-left="2" gridtolerance="10" objecttolerance="10" fit-margin-top="2" borderopacity="1" bordercolor="#666666" showgrid="false">
	</sodipodi:namedview>
<title  id="title4157">generated by pstoedit</title>
<ellipse fill="#FFFFFF" cx="117.964" cy="84.611" rx="42.25" ry="40.75"/>
<g id="g4161" transform="translate(-0.63683287,1.5502632)">
	<path id="path4163" inkscape:connector-curvature="0" fill="#005385" d="M94.871,81.254c0.327-5.895,3.219-11.094,7.573-14.781l0,0
		c4.278-3.621,10.033-5.828,16.31-5.832l0,0c6.276,0.004,12.031,2.211,16.31,5.832l0,0c4.354,3.688,7.246,8.887,7.577,14.781
		c0.332,6.063-2.102,11.699-6.379,15.871l0,0c-4.356,4.246-10.563,6.914-17.504,6.914l0,0c-6.944,0-13.155-2.668-17.517-6.914l0,0
		C96.969,92.953,94.535,87.317,94.871,81.254L94.871,81.254z"/>
</g>
<g id="g4165" transform="translate(-0.63683287,1.5502632)">
	<path id="path4167" inkscape:connector-curvature="0" fill="#FF7021" d="M56.828,93.192c0.039,2.301,0.781,6.785,1.883,10.297l0,0
		c2.32,7.414,6.258,14.277,11.742,20.328l0,0c5.625,6.211,12.543,11.207,20.543,14.745l0,0c8.409,3.728,17.524,5.63,26.973,5.61l0,0
		c9.453-0.016,18.562-1.949,26.972-5.699l0,0c7.993-3.578,14.912-8.586,20.532-14.813l0,0c5.476-6.074,9.406-12.949,11.73-20.367
		l0,0c1.176-3.75,1.905-7.551,2.206-11.367l0,0c0.294-3.758,0.169-7.527-0.362-11.289l0,0c-1.043-7.332-3.582-14.215-7.483-20.488
		c-3.584-5.762-8.185-10.809-13.662-15.059l0,0l0.008-0.008l0,0L102.648,2.645l0,0c-0.045-0.04-0.093-0.079-0.14-0.118l0,0
		c-3.637-2.776-9.731-2.769-13.715,0.021l0,0c-4.039,2.824-4.492,7.483-0.91,10.433l0,0l-0.012,0.008l0,0l23.051,18.751
		l-70.266,0.073l0,0c-0.031,0-0.063,0-0.098,0l0,0c-5.805,0.004-11.383,3.821-12.492,8.634l0,0
		c-1.129,4.906,2.816,8.973,8.852,8.995l0,0l-0.008,0.024l0,0l35.613-0.07L8.969,98.172l0,0c-0.078,0.063-0.164,0.121-0.242,0.183
		l0,0c-5.988,4.591-7.93,12.228-4.156,17.06l0,0c3.836,4.914,11.98,4.918,18.039,0.02l0,0l34.684-28.379
		C57.293,87.055,56.789,90.887,56.828,93.192L56.828,93.192z M145.948,106.016c-7.144,7.289-17.144,11.414-27.976,11.434l0,0
		c-10.836,0.02-20.84-4.074-27.989-11.344l0,0c-3.492-3.547-6.058-7.613-7.644-11.96l0,0c-1.547-4.267-2.152-8.79-1.754-13.356l0,0
		c0.387-4.469,1.703-8.727,3.832-12.582l0,0c2.09-3.789,4.961-7.211,8.504-10.109l0,0c6.944-5.663,15.785-8.727,25.043-8.738l0,0
		c9.258-0.012,18.095,3.027,25.043,8.668l0,0c3.539,2.883,6.41,6.293,8.496,10.075l0,0c2.129,3.851,3.449,8.101,3.84,12.569l0,0
		c0.394,4.566-0.207,9.09-1.758,13.359l0,0C152.004,98.383,149.441,102.457,145.948,106.016L145.948,106.016z"/>
</g>
</svg>
