<?xml version="1.0" encoding="utf-8"?>
<!-- Generator: Adobe Illustrator 15.1.0, SVG Export Plug-In . SVG Version: 6.00 Build 0)  -->
<!DOCTYPE svg PUBLIC "-//W3C//DTD SVG 1.1//EN" "http://www.w3.org/Graphics/SVG/1.1/DTD/svg11.dtd">
<svg version="1.1" id="Layer_1" xmlns="http://www.w3.org/2000/svg" xmlns:xlink="http://www.w3.org/1999/xlink" x="0px" y="0px"
	 width="511.106px" height="709.675px" viewBox="692.672 0 511.106 709.675" enable-background="new 692.672 0 511.106 709.675"
	 xml:space="preserve">
<g>
	<polygon fill="#61A706" points="893.937,647.442 909.494,709.675 984.212,709.675 998.73,646.402 	"/>
	<path fill="#979797" d="M932.903,603.415l2.837,8.796l1.797,3.925l18.018,0.095l2.128-1.04l2.601-6.148
		c11.113-28.61,40.291-150.712,46.345-181.875c16.456-84.555,28.799-170.716,22.793-257.066c-2.27-32.63-8.417-69.09-20.618-99.592
		c-9.316-23.408-23.313-50.222-47.951-60.626c-26.767-11.302-52.586,16.126-64.125,38.353
		c-61.24,117.987-22.132,321.475,6.479,442.11l9.647,41.378C919.189,555.699,926.377,576.98,932.903,603.415L932.903,603.415z"/>
	<path fill="#979797" d="M925.242,609.373l-10.641-8.748C787.487,481.266,613.178,79.967,887.931,5.958
		c11.208-3.026,8.891-2.317,19.72-2.837C691.773,96.14,837.426,458.804,925.242,609.373L925.242,609.373z"/>
	<path fill="#979797" d="M971.208,609.373l10.64-8.748c127.114-119.359,301.424-520.658,26.672-594.667
		c-11.208-3.026-8.891-2.317-19.721-2.837C1204.677,96.14,1059.071,458.804,971.208,609.373L971.208,609.373z"/>
	<path fill="#979797" d="M799.263,34.994c-54.052,25.158-95.572,79.777-104.51,139.031l-2.081,25.158l0.236,20.24l2.838,22.32
		l1.561,10.641c21.28,117.136,118.602,270.686,204.243,352.07C783.137,446.461,604.43,196.535,799.263,34.994L799.263,34.994z"/>
	<path fill="#979797" d="M1097.188,34.994c54.052,25.158,95.572,79.777,104.51,139.031l2.081,25.158l-0.284,20.24l-2.838,22.32
		l-1.561,10.641c-21.279,117.136-118.602,270.686-204.243,352.07C1113.313,446.461,1292.021,196.535,1097.188,34.994
		L1097.188,34.994z"/>
</g>
</svg>
