<?xml version="1.0" encoding="utf-8"?>
<!-- Generator: Adobe Illustrator 16.0.0, SVG Export Plug-In . SVG Version: 6.00 Build 0)  -->
<!DOCTYPE svg PUBLIC "-//W3C//DTD SVG 1.1//EN" "http://www.w3.org/Graphics/SVG/1.1/DTD/svg11.dtd">
<svg version="1.1" id="Layer_1" xmlns="http://www.w3.org/2000/svg" xmlns:xlink="http://www.w3.org/1999/xlink" x="0px" y="0px"
	 width="800px" height="800px" viewBox="0 0 800 800" enable-background="new 0 0 800 800" xml:space="preserve">
<rect id="XMLID_3_" fill="#FF3F94" width="800" height="800"/>
<rect id="XMLID_5_" x="35.2" y="35.2" fill="#2E0013" width="729.6" height="729.6"/>
<g id="XMLID_10_">
	<g>
		<path id="XMLID_26_" fill="#FF3F94" d="M296.372,547.4c0,3.303-0.947,4.953-4.261,4.953h-49.233c-2.839,0-3.786-1.65-3.786-4.953
			V197.352c0-3.303,1.42-3.853,3.786-3.853h49.707c2.84,0,3.788,0.55,3.788,3.853V547.4z"/>
	</g>
</g>
<g id="XMLID_6_">
	<g>
		<path id="XMLID_36_" fill="#FF3F94" d="M354.22,423.963c0-78.507,49.77-144.558,128.842-144.558
			c10.697,0,18.606,1.083,26.513,3.791v-87.802c0-2.708,0.931-3.789,2.79-3.789h50.7c1.859,0,2.325,1.081,2.325,3.247v296.787
			c0,11.368,0.932,25.987,1.396,34.649c0.466,2.707,0,3.788-2.324,5.413c-29.307,16.784-62.328,26.531-93.028,26.531
			C403.06,558.231,354.22,514.375,354.22,423.963z M509.575,334.628c-6.979-3.248-16.744-4.873-27.444-4.873
			c-41.862,0-70.234,35.734-70.234,90.958c0,61.178,30.7,85.543,66.051,85.543c11.628,0,23.256-2.168,31.628-5.415V334.628z"/>
	</g>
</g>
</svg>
