<?xml version="1.0" encoding="utf-8"?>
<!-- Generator: Adobe Illustrator 15.1.0, SVG Export Plug-In . SVG Version: 6.00 Build 0)  -->
<!DOCTYPE svg PUBLIC "-//W3C//DTD SVG 1.1//EN" "http://www.w3.org/Graphics/SVG/1.1/DTD/svg11.dtd">
<svg version="1.1" id="Layer_1" xmlns="http://www.w3.org/2000/svg" xmlns:xlink="http://www.w3.org/1999/xlink" x="0px" y="0px"
	 width="2719.062px" height="2500px" viewBox="0 0 2719.062 2500" enable-background="new 0 0 2719.062 2500" xml:space="preserve">
<polyline fill="#FFFFFF" stroke="#000000" stroke-miterlimit="10" points="1038.802,544.249 2013.899,250.22 2265.925,1247.188 
	1968.895,2257.421 1038.802,1945.39 258.724,1225.318 "/>
<path fill="#222C37" d="M1585.936,1247.264l436.324-753.422l210.835,753.422l-210.844,753.241L1585.936,1247.264L1585.936,1247.264z
	 M1373.276,1369.617l436.382,753.298l-759.99-194.696l-549.04-558.602H1373.276z M1809.563,371.394l-436.286,753.422H500.628
	l549.04-558.64L1809.563,371.394z M2432.439,990.858L2166.254,0.571l-993.538,265.396l-147.073,258.572l-298.433-2.139L0,1247.33
	l727.21,724.759h0.029l298.309-2.205l147.282,258.573l993.424,265.349l266.176-990.098l-151.169-256.435l151.169-256.396
	L2432.439,990.858z"/>
</svg>
