<?xml version="1.0" encoding="utf-8"?>
<!-- Generator: Adobe Illustrator 15.1.0, SVG Export Plug-In . SVG Version: 6.00 Build 0)  -->
<!DOCTYPE svg PUBLIC "-//W3C//DTD SVG 1.1//EN" "http://www.w3.org/Graphics/SVG/1.1/DTD/svg11.dtd">
<svg version="1.1" id="Layer_1" xmlns="http://www.w3.org/2000/svg" xmlns:xlink="http://www.w3.org/1999/xlink" x="0px" y="0px"
	 width="401.333px" height="366.5px" viewBox="-6.222 -6.08 401.333 366.5" enable-background="new -6.222 -6.08 401.333 366.5"
	 xml:space="preserve">
<g>
	<g>
		<path d="M233.098,63.233c-3.268,0-6.24-0.167-8.835-0.497c-16.19-2.055-26.484-12.243-27.536-27.253
			c-1.033-14.737,8.122-33.195,27.125-38.377C224.109-2.964,224.374-3,224.641-3H234c0.318,0,0.636,0.051,0.938,0.15
			c9.779,3.221,18.032,9.401,24.531,18.369c0.7,0.967,17.063,23.844,8.794,37.846C263.664,61.155,243.995,63.233,233.098,63.233z"/>
		<path fill="#383838" d="M234,0c9.539,3.142,17.193,9.211,23.04,17.279c4.248,5.863,14.918,23.932,8.641,34.561
			c-3.315,5.614-19.639,8.393-32.582,8.393c-3.086,0-5.978-0.158-8.458-0.473c-36.446-4.626-30.058-51.563,0-59.76
			C227.76,0,230.88,0,234,0 M234-6h-9.359c-0.533,0-1.064,0.071-1.578,0.211c-20.546,5.603-30.445,25.553-29.329,41.481
			c1.142,16.301,12.696,27.804,30.151,30.02c2.72,0.345,5.819,0.521,9.214,0.521c5.185,0,31.374-0.547,37.748-11.342
			c9.102-15.411-7.073-38.544-8.948-41.132c-6.876-9.489-15.631-16.036-26.021-19.458C235.272-5.898,234.638-6,234-6L234-6z"/>
	</g>
	<g>
		<path d="M380.161,342.84c-0.438,0-0.869-0.096-1.266-0.28c-11.599-5.395-20.871-11.867-32.97-21.226
			c-1.37-1.061-3.024-2.252-4.774-3.513c-8.742-6.297-20.714-14.92-22.274-25.046c-0.769-4.983,0.462-8.526,1.548-11.652
			c0.906-2.608,1.688-4.86,1.319-7.877c-0.646-5.265-6.722-11.795-12.458-15.932c-18.392-13.271-55.207-22.291-106.467-26.084
			c-1.788-0.133-3.726-0.291-5.76-0.458c-7.146-0.584-15.244-1.247-22.46-1.247c-6.262,0-10.889,0.518-13.751,1.538
			c-2.106,0.752-6.145,5.713-9.093,9.336c-2.001,2.458-3.892,4.779-5.632,6.521c-25.84,25.839-54.256,52.452-92.366,69.027
			c-11.985,5.216-25.004,10.042-38.994,10.043c-5.103,0-10.097-0.666-14.843-1.98c-1.365-0.379-2.28-1.66-2.194-3.075
			c0-0.006,0.001-0.012,0.001-0.018c-0.455-0.528-0.727-1.215-0.727-1.957v-7.92c0-0.371,0.069-0.739,0.203-1.086
			c0.396-1.018,0.8-2.1,1.22-3.219c1.915-5.111,4.084-10.904,6.987-15.338c14.106-21.572,36.551-41.654,68.617-61.393
			c17.186-10.579,40.064-23.854,64.64-32.67c3.164-1.134,7.119-2.021,10.944-2.878c5.206-1.167,10.589-2.373,13.839-4.136
			c2.464-1.336,5.196-5.493,7.837-9.514c1.585-2.413,3.225-4.907,4.948-7.023c11.417-14.016,22.925-25.959,38.48-39.936
			c0.383-0.345,0.809-0.714,1.251-1.098c0.701-0.608,1.882-1.633,2.745-2.505c-6.266-3.54-12.477-8.071-19.01-12.838
			c-15.62-11.397-31.772-23.182-51.073-23.182c-1.444,0-2.907,0.068-4.35,0.202c-15.725,1.457-40.359,15.426-44.975,28.268
			c-0.75,2.088-0.784,4.915-0.819,7.907c-0.042,3.614-0.087,7.351-1.341,10.818c-2.761,7.628-12.085,11.229-20.312,14.406
			c-1.556,0.601-3.025,1.168-4.389,1.74c-1.261,0.529-2.515,1.072-3.762,1.612c-6.997,3.032-13.606,5.895-20.25,5.896
			c-2.156,0-4.226-0.316-6.153-0.941c-1.206-0.391-2.036-1.497-2.074-2.764c-0.313-10.416,7.033-19.535,12.936-26.861
			c0.473-0.588,0.94-1.168,1.397-1.74c21.79-27.304,46.185-46.506,72.507-57.073c12.762-5.123,26.748-7.72,41.57-7.72
			c33.498,0,66.717,13.015,94.934,25.936c3.979-1.84,7.851-4.545,11.929-7.395c7.401-5.171,15.791-11.033,26.531-12.451
			c2.247-0.297,4.473-0.447,6.617-0.447c14.575,0,24.907,6.895,26.966,17.995c3.938,21.241-28.01,42.874-34.454,46.994
			c-10.126,6.475-22.364,10.042-34.459,10.042c-10.658,0-20.384-2.798-28.281-8.113c-11.036,8.776-21.254,21.106-30.322,32.049
			c-1.411,1.703-2.802,3.381-4.173,5.02c-1.131,1.352-2.445,2.656-3.717,3.918c-1.342,1.331-2.986,2.964-4.01,4.387
			c98.595,7.605,152.705,65.358,180.807,112.801c0.647,1.093,1.312,2.196,1.98,3.31c7.154,11.889,15.264,25.364,10.506,38.819
			c-0.424,1.198-1.557,2-2.828,2H380.161z M24.941,302.827c1.994,0.797,4.093,1.188,6.364,1.188c7.603,0,15.617-4.505,22.057-8.124
			c0.706-0.396,1.394-0.784,2.064-1.155c25.17-13.95,44.4-31.458,65.531-53.454c0.244-0.253,0.765-0.745,1.455-1.39
			c1.771-1.656,3.23-3.073,4.375-4.247c-14.31,2.817-31.324,8.491-48.517,16.211C51.278,263.973,30.132,275.498,24.941,302.827z
			 M287.171,101.437c4.701,0.843,9.45,1.305,13.641,1.305c0.001,0,0.002,0,0.003,0c7.447,0,16.504-1.394,19.519-7.665
			c-2.61-1.137-5.576-1.711-8.85-1.711C303.372,93.365,294.079,97.021,287.171,101.437z"/>
		<path fill="#383838" d="M168.615,70.976c34.307,0,68.22,13.945,94.907,26.224c12.313-5.115,22.691-18.021,38.88-20.159
			c2.132-0.281,4.215-0.421,6.225-0.421c12.434,0,22.125,5.343,24.016,15.542c3.004,16.204-18.391,34.501-33.12,43.92
			c-9.462,6.05-21.259,9.569-32.843,9.569c-10.195,0-20.227-2.725-28.357-8.849c-13.699,10.339-25.829,25.865-36.72,38.879
			c-3.688,4.408-9.948,8.723-9.359,12.961c87.354,5.547,146.621,51.604,182.159,111.6c7.376,12.455,16.939,26.307,12.239,39.6
			c-2.16,0-4.32,0-6.479,0c-11.909-5.539-21.446-12.406-32.399-20.879c-8.072-6.244-24.261-15.877-25.92-26.643
			c-1.268-8.219,3.82-11.764,2.88-19.438c-0.875-7.143-8.787-14.471-13.681-18c-22.788-16.443-67.728-23.662-108-26.643
			c-8.014-0.593-19.005-1.713-28.441-1.713c-5.895,0-11.182,0.437-14.759,1.713c-4.425,1.58-11.115,11.834-15.84,16.563
			c-27.009,27.008-54.315,52.25-91.44,68.396c-11.077,4.82-24.058,9.794-37.798,9.794c-4.61,0-9.303-0.56-14.042-1.872
			c0.063-1.021,0.119-2.037-0.72-2.158c0-2.643,0-5.281,0-7.92c2.143-5.52,4.577-12.893,7.92-18
			c16.118-24.648,41.589-44.42,67.68-60.48c20.303-12.498,41.485-24.295,64.08-32.4c7.231-2.594,19.036-3.857,25.2-7.201
			c4.811-2.607,9.034-11.574,13.681-17.279c12.766-15.672,24.623-27.437,38.159-39.599c2.515-2.26,6.875-5.599,5.761-7.2
			c-21.862-11.395-44.258-37.654-73.853-37.655c-1.523,0-3.064,0.07-4.627,0.214c-16.908,1.566-42.493,16.251-47.521,30.24
			c-1.893,5.267-0.052,12.896-2.158,18.72c-2.765,7.638-14.766,10.931-23.04,14.4c-7.977,3.345-15.688,7.274-22.852,7.274
			c-1.778,0-3.522-0.242-5.229-0.795c-0.303-10.069,7.606-19.031,13.68-26.64c18.771-23.521,42.484-44.601,71.28-56.16
			C141.426,73.156,155.052,70.976,168.615,70.976 M300.812,105.742c10.943,0,21.089-2.878,23.188-12.142
			c-3.799-2.292-8.094-3.234-12.517-3.234c-11.935,0-24.804,6.862-31.403,12.595C285.926,104.472,293.546,105.742,300.812,105.742
			 M31.305,307.015c9.254,0,18.467-5.715,25.575-9.655c26.465-14.668,46.354-33.299,66.24-54
			c1.409-1.466,13.064-11.582,8.616-11.582c-0.199,0-0.43,0.021-0.696,0.063c-16.932,2.682-36.536,9.438-54,17.279
			c-27.053,12.145-50.66,24.438-55.44,55.439C24.779,306.305,28.045,307.015,31.305,307.015 M168.615,64.976
			c-15.207,0-29.569,2.67-42.688,7.936c-26.81,10.762-51.617,30.271-73.734,57.986c-0.454,0.568-0.918,1.145-1.389,1.729
			c-6.213,7.712-13.945,17.309-13.598,28.833c0.076,2.534,1.736,4.746,4.147,5.528c2.226,0.721,4.607,1.087,7.078,1.087
			c7.266,0,14.473-3.123,21.442-6.143c1.235-0.535,2.479-1.074,3.729-1.599c1.325-0.556,2.775-1.116,4.311-1.708
			c8.387-3.239,18.826-7.271,22.051-16.183c1.427-3.945,1.477-8.121,1.521-11.804c0.031-2.613,0.063-5.315,0.643-6.928
			c3.886-10.811,26.488-24.818,42.429-26.295c1.352-0.125,2.722-0.189,4.073-0.189c18.324,0,34.074,11.492,49.306,22.606
			c5.386,3.93,10.555,7.701,15.756,10.923c-0.345,0.3-0.675,0.589-0.98,0.863c-15.677,14.086-27.281,26.13-38.8,40.272
			c-1.82,2.234-3.502,4.795-5.129,7.271c-2.093,3.186-4.958,7.547-6.759,8.522c-2.885,1.565-8.061,2.726-13.066,3.848
			c-3.914,0.877-7.961,1.784-11.3,2.981c-24.836,8.909-47.89,22.283-65.2,32.938c-32.45,19.975-55.202,40.355-69.556,62.306
			c-3.083,4.711-5.315,10.67-7.285,15.928c-0.415,1.107-0.815,2.178-1.207,3.186c-0.269,0.692-0.407,1.429-0.407,2.171v7.92
			c0,1.063,0.278,2.069,0.771,2.942c0.309,2.351,1.993,4.346,4.348,4.998c5.006,1.387,10.269,2.09,15.644,2.09
			c14.537,0,27.908-4.947,40.192-10.292c38.591-16.784,67.246-43.614,93.289-69.655c1.85-1.853,3.787-4.231,5.838-6.751
			c2.168-2.663,6.194-7.609,7.83-8.423c1.763-0.618,5.391-1.345,12.688-1.345c7.093,0,15.127,0.657,22.216,1.237
			c2.043,0.167,3.987,0.326,5.783,0.459c50.706,3.753,86.99,12.579,104.932,25.524c5.199,3.75,10.728,9.716,11.236,13.864
			c0.285,2.326-0.328,4.089-1.175,6.527c-1.142,3.285-2.563,7.374-1.68,13.095c1.752,11.368,14.313,20.416,23.485,27.023
			c1.729,1.245,3.363,2.422,4.693,3.451c12.266,9.488,21.687,16.06,33.54,21.573c0.792,0.368,1.656,0.56,2.53,0.56h6.479
			c2.543,0,4.81-1.603,5.657-4c5.229-14.789-3.268-28.909-10.764-41.366c-0.666-1.106-1.326-2.204-1.971-3.291
			c-19.337-32.646-44.076-58.95-73.53-78.185c-30.241-19.748-65.03-31.683-103.539-35.539c1.259-1.25,2.55-2.543,3.71-3.93
			c1.373-1.641,2.767-3.323,4.181-5.029c8.515-10.274,18.054-21.785,28.227-30.268c8.03,4.866,17.637,7.417,28.067,7.417
			c12.66,0,25.473-3.734,36.075-10.514c9.452-6.044,39.968-27.518,35.787-50.068c-2.338-12.612-13.801-20.448-29.915-20.448
			c-2.274,0-4.633,0.159-7.01,0.473c-11.466,1.514-20.174,7.598-27.857,12.966c-3.534,2.469-6.909,4.827-10.251,6.537
			C235.275,77.736,202.175,64.976,168.615,64.976L168.615,64.976z M297.072,99.624c4.715-1.962,9.778-3.259,14.412-3.259
			c1.255,0,2.455,0.095,3.594,0.284c-3.522,2.464-9.298,3.092-14.266,3.092C299.608,99.742,298.357,99.702,297.072,99.624
			L297.072,99.624z M28.45,300.746c5.718-24.055,24.941-34.434,51.047-46.153c13.022-5.847,25.921-10.503,37.578-13.606
			c-20.273,20.966-38.943,37.734-63.104,51.125c-0.675,0.374-1.368,0.764-2.078,1.163c-6.135,3.448-13.77,7.74-20.588,7.74
			C30.316,301.015,29.366,300.926,28.45,300.746L28.45,300.746z"/>
	</g>
</g>
</svg>
