<?xml version="1.0" encoding="utf-8"?>
<!-- Generator: Adobe Illustrator 26.0.2, SVG Export Plug-In . SVG Version: 6.00 Build 0)  -->
<svg version="1.1" id="Layer_1" xmlns="http://www.w3.org/2000/svg" xmlns:xlink="http://www.w3.org/1999/xlink" x="0px" y="0px"
	 viewBox="0 0 59.1 59.1" style="enable-background:new 0 0 59.1 59.1;" xml:space="preserve">
<style type="text/css">
	.st0{fill:#0C73B8;}
	.st1{fill:#30A9DC;}
	.st2{fill:#ECEDEE;}
	.st3{fill:#FFFFFF;}
</style>
<rect y="0" class="st0" width="59.1" height="59.1"/>
<path class="st0" d="M8.4,53.1L3.5,0h52l-4.7,53.1l-21.3,6"/>
<path class="st1" d="M29.6,54.5l17.2-4.7l4-45.5H29.6"/>
<path class="st2" d="M29.6,24H14.4l0.6,6.6h14.6V24z M29.6,10.8H13.2l0.6,6.5h15.8V10.8z M29.6,41l-14.3-3.8l0.8,6.9l13.5,3.7V41z"
	/>
<path class="st3" d="M29.6,30.6h8L36.8,39l-7.2,2v6.8l13.3-3.7l3-33.2H29.6v6.5h9.2L38.1,24h-8.5C29.6,24,29.6,30.6,29.6,30.6z"/>
</svg>
