<?xml version="1.0" encoding="utf-8"?>
<!-- Generator: Adobe Illustrator 26.0.2, SVG Export Plug-In . SVG Version: 6.00 Build 0)  -->
<svg version="1.1" id="Layer_1" xmlns="http://www.w3.org/2000/svg" xmlns:xlink="http://www.w3.org/1999/xlink" x="0px" y="0px"
	 viewBox="0 0 60 60" style="enable-background:new 0 0 60 60;" xml:space="preserve">
<style type="text/css">
	.st0{fill:#E34F26;}
	.st1{fill:#EF652A;}
	.st2{fill:#EBEBEB;}
	.st3{fill:#FFFFFF;}
</style>
<rect y="0" class="st0" width="60" height="60"/>
<path class="st0" d="M8.3,53.9L3.5,0h52.9l-4.8,53.9L29.9,60"/>
<path class="st1" d="M30,55.3l17.5-4.8l4.1-46.2H30"/>
<path class="st2" d="M30,24.4h-8.8l-0.6-6.8H30V11H13.4l0.1,1.8l1.6,18.3H30C30,31.1,30,24.4,30,24.4z M30,41.6h-0.1l-7.4-2L22,34.3
	h-6.5l0.8,10.4L30,48.5h0.1C30,48.5,30,41.6,30,41.6z"/>
<path class="st3" d="M29.9,24.4v6.7h8.2l-0.8,8.6l-7.4,2v6.9l13.6-3.8l0.1-1.2l1.5-17.5l0.2-1.8H29.9V24.4z M29.9,11v6.6H46l0.1-1.4
	l0.4-3.4l0.1-1.8C46.6,11,29.9,11,29.9,11z"/>
</svg>
