<?xml version="1.0" encoding="utf-8"?>
<!-- Generator: Adobe Illustrator 26.0.2, SVG Export Plug-In . SVG Version: 6.00 Build 0)  -->
<svg version="1.1" id="Layer_1" xmlns="http://www.w3.org/2000/svg" xmlns:xlink="http://www.w3.org/1999/xlink" x="0px" y="0px"
	 viewBox="0 0 434 285" style="enable-background:new 0 0 434 285;" xml:space="preserve">
<style type="text/css">
	.st0{fill:#131B28;}
	.st1{fill:#343F54;}
	.st2{fill:#131B28;stroke:#343F54;stroke-width:7;stroke-linecap:round;stroke-linejoin:round;stroke-miterlimit:10;}
</style>
<g>
	<g>
		<path class="st0" d="M132.6,144.7c-0.3,0-0.6,0-0.9-0.1c-1.7-0.5-2.7-2.2-2.2-3.9l3.1-10.8c0.4-1.4,1.7-2.3,3.1-2.3
			c0.3,0,0.5,0,0.8,0.1c1.7,0.4,2.7,2.2,2.3,3.9c0,0-3.1,10.9-3.1,10.9C135.3,143.8,134,144.7,132.6,144.7z"/>
		<path class="st1" d="M135.7,130.7L135.7,130.7 M135.7,130.7L135.7,130.7l-3.1,10.8L135.7,130.7 M135.7,124.4L135.7,124.4
			c-1.6,0-3,0.6-4.1,1.5c-0.6,0.5-1.2,1.2-1.5,1.9c-0.2,0.4-0.4,0.9-0.5,1.4l-3,10.7c-1,3.4,1,6.9,4.4,7.9c0.6,0.2,1.2,0.2,1.7,0.2
			c2.8,0,5.3-1.8,6.1-4.6l3-10.6c0.2-0.6,0.3-1.3,0.3-1.9C142.1,127.2,139.2,124.4,135.7,124.4L135.7,124.4z"/>
	</g>
	<g>
		<path class="st0" d="M148,157.4c-1.8,0-3.2-1.4-3.2-3.2c0-1.8,1.4-3.2,3.2-3.2c0,0,3.4,0,3.4,0c1.8,0,3.2,1.4,3.2,3.2
			c0,1.8-1.4,3.2-3.2,3.2C151.4,157.4,148,157.4,148,157.4z"/>
		<path class="st1" d="M148,154.2l3.4,0L148,154.2 M148,147.8c-3.5,0-6.3,2.8-6.4,6.3c0,3.5,2.8,6.4,6.3,6.4l3.4,0c0,0,0,0,0,0
			c3.5,0,6.3-2.8,6.4-6.3c0-3.5-2.8-6.4-6.3-6.4L148,147.8C148,147.8,148,147.8,148,147.8L148,147.8z"/>
	</g>
	<g>
		<path class="st0" d="M130.4,173.6c-1.8,0-3.2-1.4-3.2-3.2c0-1.8,1.4-3.2,3.2-3.2l20.1-0.1l0,6.4
			C150.5,173.5,130.4,173.6,130.4,173.6z"/>
		<path class="st1" d="M150.5,170.3l-20.1,0.1L150.5,170.3L150.5,170.3 M150.5,164L150.5,164l-20.2,0.1c-3.5,0-6.4,2.9-6.3,6.4
			c0,3.5,2.9,6.3,6.4,6.3c0,0,0,0,0,0l20.1-0.1c3.5,0,6.4-2.9,6.3-6.4C156.9,166.8,154,164,150.5,164L150.5,164z"/>
	</g>
	<g>
		<path class="st0" d="M151.4,157.4c-1.8,0-3.2-1.4-3.2-3.2c0-1.8,1.4-3.2,3.2-3.2c0,0,3.4,0,3.4,0c1.8,0,3.2,1.4,3.2,3.2
			c0,1.8-1.4,3.2-3.2,3.2C154.7,157.4,151.4,157.4,151.4,157.4z"/>
		<path class="st1" d="M151.4,154.2l3.4,0L151.4,154.2 M151.4,147.8c-3.5,0-6.3,2.8-6.4,6.3c0,3.5,2.8,6.4,6.3,6.4l3.4,0
			c0,0,0,0,0,0c3.5,0,6.3-2.8,6.4-6.3c0-3.5-2.8-6.4-6.3-6.4L151.4,147.8C151.4,147.8,151.4,147.8,151.4,147.8L151.4,147.8z"/>
	</g>
	<g>
		<path class="st0" d="M152.3,172.2c-0.1,0-0.3,0-0.4,0c-1.6-0.2-2.8-1.6-2.8-3.2v0c0-0.3,0-0.5,0.1-0.8l3.5-13.4
			c0.4-1.4,1.7-2.4,3.1-2.4c0.3,0,0.5,0,0.8,0.1c1.7,0.4,2.7,2.2,2.3,3.9l-3.5,13.4C155,171.2,153.7,172.2,152.3,172.2z"/>
		<path class="st1" d="M155.8,155.6l-3.5,13.4v0L155.8,155.6 M155.8,149.2c-2.8,0-5.4,1.9-6.2,4.8l-3.5,13.4
			c-0.1,0.5-0.2,1.1-0.2,1.6c0,3.2,2.4,5.9,5.6,6.3c0.3,0,0.5,0.1,0.8,0.1c2.9,0,5.4-1.9,6.2-4.8l3.5-13.4c0.9-3.4-1.1-6.9-4.5-7.8
			C156.9,149.3,156.3,149.2,155.8,149.2L155.8,149.2z"/>
	</g>
	<g>
		<path class="st0" d="M219.9,141.3c-0.2,0-0.4,0-0.7-0.1c-1.7-0.4-2.8-2.1-2.5-3.8l6.5-30.7c0.3-1.5,1.6-2.5,3.1-2.5
			c0.2,0,0.4,0,0.7,0.1c1.7,0.4,2.8,2.1,2.5,3.8l-6.5,30.7C222.7,140.2,221.4,141.3,219.9,141.3z"/>
		<path class="st1" d="M226.4,107.4l-6.5,30.7L226.4,107.4 M226.4,101c-2.9,0-5.6,2.1-6.2,5l-6.5,30.7c-0.7,3.4,1.5,6.8,4.9,7.6
			c0.4,0.1,0.9,0.1,1.3,0.1c2.9,0,5.6-2.1,6.2-5l6.5-30.7c0.7-3.4-1.5-6.8-4.9-7.6C227.3,101,226.9,101,226.4,101L226.4,101z"/>
	</g>
	<g>
		<path class="st0" d="M204.7,133.5c-0.2,0-0.4,0-0.7-0.1c-1.7-0.4-2.8-2.1-2.4-3.8l5-23c0.3-1.5,1.6-2.5,3.1-2.5c0.1,0,0.2,0,0.3,0
			c1.6,0.2,2.8,1.5,2.8,3.2c0,0.2,0,0.5-0.1,0.7l-5,22.9C207.5,132.5,206.1,133.5,204.7,133.5z"/>
		<path class="st1" d="M209.6,107.4L209.6,107.4l-5,23L209.6,107.4 M209.6,101c-3,0-5.6,2.1-6.2,5l-5,23c-0.7,3.4,1.4,6.8,4.9,7.6
			c0.5,0.1,0.9,0.1,1.4,0.1c2.9,0,5.6-2,6.2-5l5-22.9c0.1-0.4,0.1-0.9,0.1-1.3c0-3.3-2.5-6-5.7-6.3C210.1,101,209.8,101,209.6,101
			L209.6,101z"/>
	</g>
	<g>
		<path class="st0" d="M181.3,173.4c0,0-0.3,0-0.6,0c-7.7-0.2-13.4-2.6-17-7.2c-4.7-6-5.6-15.4-2.7-28.8l6.5-30.6
			c0.5-2.2,2.5-3.9,4.8-3.9h14.3c1.3,0,2.6,0.6,3.4,1.6c0.8,1,1.1,2.3,0.9,3.6l-4.5,22c-0.1,0.7-0.4,1.8-0.5,2.5l-1.2,6.3l-0.1,0.4
			c-0.9,4-2,9.4-0.7,11.1c0.7,0.9,2.7,1.1,4.2,1.1h8.7l9.7-44.8c0.5-2.2,2.6-3.9,4.8-3.9h14c1.3,0,2.6,0.6,3.4,1.6
			c0.8,1,1.1,2.3,0.8,3.6l-13.1,61.4c-0.5,2.2-2.5,3.9-4.8,3.9L181.3,173.4L181.3,173.4z"/>
		<path class="st1" d="M225.3,106c0.8,0,1.3,0.6,1.1,1.4l-6.5,30.7l-6.5,30.7c-0.2,0.8-0.9,1.4-1.7,1.4h-30.3c0,0-0.2,0-0.6,0
			c-19.3-0.5-20.2-15.9-16.7-32.2l0.3-1.4c0,0,0,0,0,0l3.1-14.6l3.1-14.6c0.2-0.8,0.9-1.4,1.7-1.4h14.3c0.8,0,1.3,0.6,1.1,1.4
			l-2.3,11l-2.3,11c-0.1,0.7-0.4,1.8-0.5,2.6l-0.5,2.6l-0.4,2.4c0,0.1,0,0.1,0,0.2l-0.2,1.2c0,0.1,0,0.2-0.1,0.3
			c-2,9.3-3.1,16,6.7,16h9.9c0.8,0,1.5-0.6,1.7-1.4l5-23l5-23c0.2-0.8,0.9-1.4,1.7-1.4H225.3 M225.3,99.6
			C225.3,99.6,225.3,99.6,225.3,99.6h-14c-3.8,0-7.1,2.7-7.9,6.4l-5,23l-4.2,19.3h-6.2c-0.8,0-1.3-0.1-1.6-0.1
			c-0.2-1.8,0.8-6.2,1.2-8.2l0.1-0.3c0,0,0-0.1,0-0.1l0.2-1.2c0,0,0,0,0-0.1l0,0l0-0.1l0.4-2.3l0.5-2.5c0.1-0.7,0.4-1.8,0.5-2.5
			l2.3-11l2.3-11c0.5-2.2-0.1-4.5-1.5-6.3c-1.4-1.7-3.6-2.7-5.8-2.7h-14.3c-3.8,0-7.2,2.7-7.9,6.5l-3.1,14.6l-3.1,14.6
			c0,0,0,0.1,0,0.1l-0.3,1.3c-3.1,14.3-2.1,24.6,3.3,31.4c4.2,5.4,10.8,8.2,19.5,8.5c0.4,0,0.7,0,0.7,0c0,0,0,0,0,0h30.3
			c3.8,0,7.1-2.7,7.9-6.4l6.5-30.7l6.5-30.7c0.5-2.3-0.1-4.6-1.5-6.3C229.7,100.6,227.6,99.6,225.3,99.6L225.3,99.6z"/>
	</g>
	<path class="st2" d="M281,154.8c0.8,0,1.3,0.6,1.1,1.4l-1.4,6.6"/>
	<g>
		<polygon class="st0" points="279.5,169.5 280.8,162.8 279.5,169.5 		"/>
		<path class="st1" d="M280.8,162.8L280.8,162.8 M280.8,162.8l-1.4,6.6c0,0,0,0,0,0L280.8,162.8 M279.5,169.5L279.5,169.5
			C279.5,169.5,279.5,169.5,279.5,169.5 M280.8,156.4c-0.5,0-1,0.1-1.5,0.2c-0.9,0.2-1.7,0.6-2.4,1.2c-0.8,0.6-1.4,1.4-1.8,2.3
			c-0.2,0.5-0.4,1-0.5,1.6l-1.3,6.5c-0.2,0.9-0.2,1.8,0,2.7c0.6,2.6,2.8,4.6,5.6,4.9c0.2,0,0.4,0,0.6,0c2,0,3.8-0.9,5-2.4
			c0.4-0.5,0.7-1.1,1-1.8c0,0,0,0,0,0c0,0,0,0,0,0c0.1-0.3,0.2-0.6,0.3-0.9l1.3-6.4c0.1-0.5,0.2-1,0.2-1.5c0-3.4-2.6-6.1-5.9-6.4
			C281.1,156.5,281,156.4,280.8,156.4L280.8,156.4z"/>
	</g>
	<g>
		<path class="st0" d="M252,174.2c-1.8,0-3.2-1.4-3.2-3.2s1.4-3.2,3.2-3.2c9.5,0,22.1-0.1,25.7-0.1l0,3.2l1.3,2.9
			c-0.4,0.2-0.9,0.3-1.3,0.3C277.2,174,263.1,174.2,252,174.2z"/>
		<path class="st1" d="M277.8,170.8L277.8,170.8 M277.8,170.8C277.8,170.8,277.8,170.8,277.8,170.8c0,0-14.4,0.1-25.6,0.1
			C261.4,171,273.7,170.9,277.8,170.8 M252.1,171c0,0-0.1,0-0.1,0C252,171,252.1,171,252.1,171 M277.8,164.5L277.8,164.5
			C277.7,164.5,277.7,164.5,277.8,164.5L277.8,164.5c-3.7,0-16.1,0.1-25.6,0.1H252c-3.5,0-6.4,2.9-6.4,6.4s2.9,6.4,6.4,6.4h0.1
			c0,0,0,0,0,0c11,0,25.1-0.1,25.7-0.1c0.3,0,0.6,0,0.8-0.1c3.1-0.4,5.5-3.1,5.5-6.3C284.1,167.3,281.3,164.5,277.8,164.5
			L277.8,164.5z"/>
	</g>
	<g>
		<path class="st0" d="M243.2,151.6c-0.9,0-1.8-0.4-2.4-1.1c-1.1-1.2-1-1.9-0.5-6.6c0.2-1.6,1.5-2.9,3.2-2.9c0,0,1.8,0,1.8,0
			c1.7,0,3.1,1.5,3.1,3.2c0,1.2-0.7,2.3-1.7,2.8C246.4,149.3,245.9,151.6,243.2,151.6C243.2,151.6,243.2,151.6,243.2,151.6z"/>
		<path class="st1" d="M243.5,144.3l1.7,0c-0.8,0-1.6,1.3-1.6,2c0,0-0.3,2.1-0.4,2.1C243.2,148.4,243.2,147.4,243.5,144.3
			 M243.5,137.9c-3.3,0-6,2.5-6.3,5.7c-0.5,5-0.7,6.8,1.3,9c1.2,1.3,2.9,2.1,4.7,2.1c2.4,0,5.4-1.4,6.3-5.3c0-0.2,0.1-0.4,0.1-0.6
			c1.2-1.1,1.9-2.8,2-4.5c0-3.5-2.8-6.4-6.3-6.4l-1.7,0C243.6,137.9,243.6,137.9,243.5,137.9L243.5,137.9z"/>
	</g>
	<g>
		<path class="st0" d="M253,174.2c-1.7,0-3.1-1.4-3.2-3.1c0-1.8,1.4-3.2,3.1-3.2l0.3,0c1.8,0,3.2,1.4,3.2,3.2s-1.4,3.2-3.2,3.2
			C253.3,174.2,253,174.2,253,174.2z"/>
		<path class="st1" d="M253.3,171L253.3,171 M253.3,171C253.3,171,253.3,171,253.3,171C253.3,171,253.3,171,253.3,171 M253.2,171
			C253.2,171,253.2,171,253.2,171C253.2,171,253.2,171,253.2,171 M253.2,171c-0.1,0-0.1,0-0.2,0C253.1,171,253.2,171,253.2,171
			 M253.1,171C253.1,171,253.1,171,253.1,171C253.1,171,253.1,171,253.1,171 M253.1,171C253.1,171,253.1,171,253.1,171
			C253.1,171,253.1,171,253.1,171 M253.1,171C253.1,171,253,171,253.1,171C253,171,253.1,171,253.1,171 M253,171
			C253,171,253,171,253,171C253,171,253,171,253,171 M253,171C253,171,253,171,253,171C253,171,253,171,253,171 M253,171
			C253,171,253,171,253,171C253,171,253,171,253,171 M253,171C253,171,253,171,253,171C253,171,253,171,253,171 M253,171L253,171
			L253,171 M253,171C253,171,253,171,253,171C253,171,253,171,253,171 M253,171C253,171,253,171,253,171C253,171,253,171,253,171
			 M253,171C253,171,253,171,253,171C253,171,253,171,253,171 M253.2,164.6C253.2,164.6,253.2,164.6,253.2,164.6L253.2,164.6
			C253.2,164.6,253.2,164.6,253.2,164.6l-0.2,0c0,0,0,0,0,0c0,0,0,0,0,0c0,0,0,0-0.1,0c0,0,0,0,0,0c0,0,0,0,0,0c0,0,0,0,0,0
			c0,0,0,0,0,0c-3.5,0.1-6.3,3-6.2,6.5c0.1,3.5,2.9,6.2,6.4,6.2c0,0,0.1,0,0.1,0c0,0,0,0,0,0c0,0,0,0,0,0c0,0,0,0,0,0h0.1h0h0h0
			c0,0,0,0,0,0c0,0,0,0,0,0c3.5,0,6.4-2.9,6.4-6.4C259.7,167.5,256.8,164.6,253.2,164.6L253.2,164.6L253.2,164.6L253.2,164.6
			L253.2,164.6L253.2,164.6z"/>
	</g>
	<path class="st2" d="M281,154.8c0.8,0,1.3,0.6,1.1,1.4l-1.4,6.6l-0.2,1.1"/>
	<g>
		<path class="st0" d="M259.8,174.1c-1.8,0-3.2-1.4-3.2-3.2s1.4-3.2,3.2-3.2s3.2,1.4,3.2,3.2S261.7,174.1,259.8,174.1L259.8,174.1z"
			/>
		<path class="st1" d="M259.9,171L259.9,171L259.9,171 M259.9,164.6L259.9,164.6c-3.6,0-6.4,2.9-6.4,6.4s2.9,6.4,6.4,6.4h0.1
			c3.5,0,6.4-2.9,6.4-6.4S263.4,164.6,259.9,164.6L259.9,164.6z"/>
	</g>
	<g>
		<path class="st0" d="M256.3,174.1c-1.8,0-3.2-1.4-3.2-3.2s1.4-3.2,3.2-3.2h0.2c1.8,0,3.2,1.4,3.2,3.2s-1.4,3.2-3.2,3.2H256.3z"/>
		<path class="st1" d="M256.5,171h-0.2H256.5 M256.5,164.6h-0.2c-3.5,0-6.4,2.9-6.4,6.4s2.9,6.4,6.4,6.4h0.2c3.5,0,6.4-2.9,6.4-6.4
			S260,164.6,256.5,164.6L256.5,164.6z"/>
	</g>
	<g>
		<path class="st0" d="M255.1,174.2c-1.7,0-3.2-1.4-3.2-3.1c0-1.8,1.4-3.2,3.1-3.2l0.4,0c1.8,0,3.2,1.4,3.2,3.2
			c0,1.8-1.4,3.2-3.2,3.2C255.4,174.2,255.1,174.2,255.1,174.2z"/>
		<path class="st1" d="M255.4,171c-0.1,0-0.2,0-0.3,0C255.2,171,255.3,171,255.4,171 M255.4,164.6c-0.1,0-0.3,0-0.4,0
			c-3.5,0.1-6.3,3-6.3,6.5c0.1,3.5,2.9,6.3,6.4,6.3c0,0,0.1,0,0.1,0l0.2,0c3.5,0,6.4-2.9,6.4-6.4
			C261.8,167.5,258.9,164.6,255.4,164.6L255.4,164.6z"/>
	</g>
	<g>
		<path class="st0" d="M254.1,174.2c-1.8,0-3.2-1.4-3.2-3.2s1.4-3.2,3.2-3.2h0.3c1.8,0,3.2,1.4,3.2,3.2s-1.4,3.2-3.2,3.2H254.1z"/>
		<path class="st1" d="M254.4,171h-0.3H254.4 M254.4,164.6h-0.3c-3.5,0-6.4,2.9-6.4,6.4s2.9,6.4,6.4,6.4h0.3c3.5,0,6.4-2.9,6.4-6.4
			S257.9,164.6,254.4,164.6L254.4,164.6z"/>
	</g>
	<g>
		<path class="st0" d="M255.4,174.2c-1.8,0-3.2-1.4-3.2-3.2s1.4-3.2,3.2-3.2l0.8,0c1.8,0,3.2,1.4,3.2,3.2s-1.4,3.2-3.2,3.2
			L255.4,174.2z"/>
		<path class="st1" d="M256.3,171c-0.3,0-0.6,0-0.8,0C255.7,171,256,171,256.3,171 M256.3,164.6l-0.4,0l-0.4,0
			c-3.5,0-6.4,2.9-6.4,6.4s2.9,6.4,6.4,6.4l0.4,0l0.4,0c3.5,0,6.4-2.9,6.4-6.4S259.8,164.6,256.3,164.6L256.3,164.6z"/>
	</g>
	<g>
		<path class="st0" d="M256.5,174.2c-1.8,0-3.2-1.4-3.2-3.2c0-1.8,1.4-3.2,3.2-3.2c0,0,3.4,0,3.4,0c1.8,0,3.2,1.4,3.2,3.2
			c0,1.8-1.4,3.2-3.2,3.2C259.9,174.1,256.5,174.2,256.5,174.2z"/>
		<path class="st1" d="M259.8,171L259.8,171 M259.8,171c-1.1,0-2.3,0-3.4,0C257.6,171,258.7,171,259.8,171 M259.8,164.6
			C259.8,164.6,259.8,164.6,259.8,164.6c-1.1,0-2.2,0-3.3,0h-0.1c-3.5,0-6.4,2.9-6.3,6.4c0,3.5,2.9,6.3,6.4,6.3c0,0,0,0,0,0h0.1
			c1.1,0,2.2,0,3.3,0c0,0,0,0,0,0c3.5,0,6.3-2.9,6.3-6.4C266.2,167.4,263.4,164.6,259.8,164.6C259.9,164.6,259.8,164.6,259.8,164.6
			L259.8,164.6z"/>
	</g>
	<g>
		<path class="st0" d="M259.9,174.1c-1.8,0-3.2-1.4-3.2-3.2c0-1.8,1.4-3.2,3.2-3.2c7.4,0,14.9-0.1,17.9-0.1c0,0,0,0,0,0
			c1.7,0,3.2,1.4,3.2,3.2c0,1.8-1.4,3.2-3.2,3.2C274.8,174.1,267.3,174.1,259.9,174.1C259.9,174.1,259.9,174.1,259.9,174.1z"/>
		<path class="st1" d="M277.8,170.8L277.8,170.8 M277.8,170.8c-3,0-10.5,0.1-17.9,0.1C267.3,170.9,274.8,170.9,277.8,170.8
			 M277.8,164.5C277.8,164.5,277.7,164.5,277.8,164.5c-2.9,0-10.4,0.1-17.9,0.1c-3.5,0-6.4,2.9-6.3,6.4c0,3.5,2.9,6.3,6.4,6.3
			c0,0,0,0,0,0c5.2,0,11.2-0.1,17.9-0.1c3.5,0,6.3-2.9,6.3-6.4C284.1,167.3,281.3,164.5,277.8,164.5
			C277.8,164.5,277.8,164.5,277.8,164.5L277.8,164.5z"/>
	</g>
	<g>
		<path class="st0" d="M279.5,172.6c-0.3,0-0.6,0-0.9-0.1c-1.6-0.5-2.5-2.1-2.2-3.7l1.1-5.6c0.3-1.5,1.6-2.5,3.1-2.5
			c0.2,0,0.4,0,0.6,0.1c1.7,0.4,2.8,2,2.5,3.8l-1.1,5.6c0,0.1-0.1,0.3-0.1,0.4c0,0.1-0.1,0.2-0.1,0.3
			C281.8,171.9,280.7,172.6,279.5,172.6z"/>
		<path class="st1" d="M280.6,163.9l-1.1,5.6l0,0L280.6,163.9 M279.5,169.5C279.5,169.5,279.5,169.5,279.5,169.5L279.5,169.5
			 M279.5,169.5L279.5,169.5C279.5,169.5,279.5,169.5,279.5,169.5 M280.6,157.5c-3,0-5.6,2.1-6.2,5.1l-1.1,5.6c0,0,0,0,0,0
			c-0.1,0.7-0.2,1.5-0.1,2.2c0.4,2.8,2.7,5.1,5.7,5.4c0.2,0,0.4,0,0.7,0c3,0,5.6-2.1,6.2-5.1c0,0,0,0,0-0.1l1.1-5.5
			c0.7-3.4-1.5-6.8-5-7.5C281.4,157.6,281,157.5,280.6,157.5L280.6,157.5z"/>
	</g>
	<g>
		<path class="st0" d="M254.4,174.2c-1.8,0-3.2-1.4-3.2-3.2s1.4-3.2,3.2-3.2h0.7c1.8,0,3.2,1.4,3.2,3.2s-1.4,3.2-3.2,3.2H254.4z"/>
		<path class="st1" d="M255.1,171h-0.7H255.1 M255.1,164.6h-0.7c-3.5,0-6.4,2.9-6.4,6.4s2.9,6.4,6.4,6.4h0.7c3.5,0,6.4-2.9,6.4-6.4
			S258.6,164.6,255.1,164.6L255.1,164.6z"/>
	</g>
	<g>
		<path class="st0" d="M252,174.2c-1.8,0-3.2-1.4-3.2-3.2s1.4-3.2,3.2-3.2h1c1.8,0,3.2,1.4,3.2,3.2s-1.4,3.2-3.2,3.2H252z"/>
		<path class="st1" d="M253,171h-1H253 M253,164.6h-1c-3.5,0-6.4,2.9-6.4,6.4s2.9,6.4,6.4,6.4h1c3.5,0,6.4-2.9,6.4-6.4
			S256.5,164.6,253,164.6L253,164.6z"/>
	</g>
	<g>
		<path class="st0" d="M253.3,174.2c-1.8,0-3.2-1.4-3.2-3.2s1.4-3.2,3.2-3.2h0.8c1.8,0,3.2,1.4,3.2,3.2s-1.4,3.2-3.2,3.2H253.3z"/>
		<path class="st1" d="M254.1,171h-0.8H254.1 M254.1,164.6h-0.8c-3.5,0-6.4,2.9-6.4,6.4s2.9,6.4,6.4,6.4h0.8c3.5,0,6.4-2.9,6.4-6.4
			S257.6,164.6,254.1,164.6L254.1,164.6z"/>
	</g>
	<g>
		<path class="st0" d="M47,162.2c-0.2,0-0.4,0-0.7-0.1c-1.7-0.4-2.8-2.1-2.5-3.8l2.4-11.2l2.5-11c0.3-1.5,1.6-2.5,3.1-2.5
			c0.2,0,0.5,0,0.7,0.1c1.7,0.4,2.8,2.1,2.4,3.8l-2.2,9.6c-0.2,0.7-0.4,2-0.6,2.7l-2.1,9.8C49.8,161.2,48.4,162.2,47,162.2z"/>
		<path class="st1" d="M51.8,136.8L51.8,136.8 M51.8,136.8l-2.2,9.6c-0.2,0.8-0.4,2-0.6,2.8L47,159l2.4-11.2L51.8,136.8 M51.8,130.4
			c-0.5,0-1,0.1-1.5,0.2c-0.9,0.2-1.8,0.6-2.5,1.2c-0.7,0.6-1.3,1.3-1.8,2.2c-0.2,0.5-0.4,1-0.5,1.5l-2.5,10.9c0,0,0,0.1,0,0.1
			l-2.4,11.2c-0.7,3.4,1.5,6.8,4.9,7.6c0.4,0.1,0.9,0.1,1.3,0.1c2.9,0,5.6-2.1,6.2-5l2.1-9.8c0.2-0.7,0.4-1.9,0.6-2.7l2.1-9.4
			c0.1-0.5,0.2-1.1,0.2-1.6c0-3.3-2.6-6.1-5.8-6.3C52.2,130.4,52,130.4,51.8,130.4L51.8,130.4z"/>
	</g>
	<g>
		<path class="st0" d="M56.8,124.6c-1.3,0-2.6-0.6-3.4-1.6c-0.8-1-1.1-2.4-0.8-3.7l2.9-12.8c0.5-2.2,2.6-3.9,4.8-3.9h15.3
			c1.3,0,2.6,0.6,3.4,1.6c0.8,1,1.1,2.3,0.8,3.7L77,120.7c-0.5,2.2-2.6,3.9-4.8,3.9C72.2,124.6,56.8,124.6,56.8,124.6z"/>
		<path class="st1" d="M75.6,105.8c0.8,0,1.3,0.6,1.1,1.4v0l-1.4,6.4l-1.4,6.4c-0.2,0.8-0.9,1.4-1.7,1.4H56.8
			c-0.8,0-1.3-0.6-1.1-1.4l1.5-6.4l1.5-6.4c0.2-0.8,0.9-1.4,1.7-1.4H75.6 M75.6,99.5H60.3c-3.8,0-7.1,2.7-7.9,6.3l-1.5,6.4l-1.5,6.4
			c-0.5,2.3,0,4.6,1.4,6.4c1.4,1.8,3.6,2.8,5.9,2.8h15.5c3.8,0,7.1-2.7,7.9-6.4l1.4-6.4l1.4-6.4c0,0,0-0.1,0-0.1
			c0.4-2.2-0.1-4.5-1.5-6.2C80.1,100.5,78,99.5,75.6,99.5L75.6,99.5z"/>
	</g>
	<g>
		<path class="st0" d="M67.8,151.2c-0.2,0-0.4,0-0.7-0.1c-1.7-0.4-2.8-2.1-2.4-3.8l4.5-20.8c0.3-1.5,1.6-2.5,3.1-2.5
			c0.2,0,0.4,0,0.7,0.1c1.7,0.4,2.8,2.1,2.4,3.8l-4.5,20.8C70.6,150.2,69.3,151.2,67.8,151.2z"/>
		<path class="st1" d="M72.3,127.2L72.3,127.2L67.8,148L72.3,127.2 M72.3,120.8c-3,0-5.6,2.1-6.2,5l-4.5,20.8
			c-0.7,3.4,1.4,6.8,4.9,7.6c0.5,0.1,0.9,0.1,1.4,0.1c2.9,0,5.6-2,6.2-5l4.5-20.8c0.1-0.4,0.1-0.9,0.1-1.3c0-3.3-2.5-6-5.7-6.3
			C72.8,120.8,72.5,120.8,72.3,120.8L72.3,120.8z"/>
	</g>
	<g>
		<path class="st0" d="M40.3,199.5c-4.9,0-12.6-0.1-12.6-0.1c-0.4,0-0.9-0.1-1.2-0.3c-1.1-0.5-1.9-1.6-1.9-3c0-1.7,1.4-3.1,3.2-3.1
			c0,0,0,0,0,0c2.5,0,8.7,0.1,12.6,0.1c0,0,0.1,0,0.1,0c1.7,0,3.1,1.4,3.1,3.2C43.5,198,42.1,199.5,40.3,199.5L40.3,199.5
			L40.3,199.5z"/>
		<path class="st1" d="M27.7,196.2c2.7,0,8.9,0.1,12.6,0.1C35.4,196.3,27.7,196.2,27.7,196.2C27.7,196.2,27.7,196.2,27.7,196.2
			 M40.3,196.3C40.3,196.3,40.4,196.3,40.3,196.3C40.4,196.3,40.3,196.3,40.3,196.3"/>
	</g>
	<g>
		<path class="st0" d="M51.8,140c-0.2,0-0.5,0-0.7-0.1c-1.7-0.4-2.8-2.1-2.4-3.8l2.2-9.6c0.3-1.5,1.6-2.5,3.1-2.5
			c0.2,0,0.5,0,0.7,0.1c1.7,0.4,2.8,2.1,2.4,3.8l-2.2,9.6C54.6,139,53.3,140,51.8,140z"/>
		<path class="st1" d="M54,127.2l-2.2,9.6L54,127.2 M54,120.8c-2.9,0-5.5,2-6.2,5l-2.2,9.6c-0.8,3.4,1.4,6.8,4.8,7.6
			c0.5,0.1,0.9,0.2,1.4,0.2c2.9,0,5.5-2,6.2-5l2.2-9.6c0.8-3.4-1.4-6.8-4.8-7.6C54.9,120.9,54.5,120.8,54,120.8L54,120.8z"/>
	</g>
	<g>
		<path class="st0" d="M40.4,199.5c-3.9,0-10.2-0.1-12.7-0.1c-1.3,0-2.6-0.6-3.4-1.6c-0.8-1-1.1-2.4-0.8-3.7l3.2-13.5
			c0.5-2.2,2.6-3.8,4.8-3.8l4.9,0.1c1.5,0,3.7-3.3,4.7-6.3c0.2-0.6,0.5-1.7,0.6-2.4l4.2-19.6c0.2-0.8,0.4-2,0.6-2.8l4.3-19.2
			c0.5-2.2,2.6-3.9,4.8-3.9h15.5c1.3,0,2.6,0.6,3.4,1.6c0.8,1,1.1,2.3,0.8,3.6l-9.3,43C61.8,191.2,54.4,199.5,40.4,199.5z"/>
		<path class="st1" d="M71.2,125.8c0.8,0,1.3,0.6,1.1,1.4L67.8,148L63,170.2c-4.1,19.3-10.5,26.1-22.6,26.1c-3.7,0-9.9-0.1-12.7-0.1
			c-0.8,0-1.3-0.6-1.1-1.4l1.6-6.7l1.6-6.7c0.2-0.7,0.9-1.3,1.7-1.3c0,0,0,0,0,0h0c0,0,1.8,0,4.2,0.1c0.2,0,0.4,0,0.6,0
			c0,0,0.1,0,0.1,0c4.8,0,7.7-8.5,7.7-8.5c0.2-0.7,0.6-2,0.7-2.7L47,159l2.1-9.8c0.2-0.8,0.4-2,0.6-2.8l2.2-9.6l2.2-9.6
			c0.2-0.8,0.9-1.4,1.7-1.4L71.2,125.8 M71.2,119.4H55.7c-3.8,0-7.1,2.7-7.9,6.3l-2.2,9.6l-2.2,9.6c-0.2,0.8-0.5,2.1-0.6,2.8
			l-2.1,9.8l-2.1,9.8c-0.1,0.5-0.4,1.5-0.5,2c-0.5,1.5-1.6,3.4-2.3,4.2l-4.1-0.1c0,0-0.1,0-0.1,0c0,0,0,0-0.1,0
			c-3.7,0-7,2.6-7.9,6.2l-1.6,6.8l-1.6,6.7c-0.5,2.3,0,4.6,1.4,6.4c1.4,1.8,3.5,2.8,5.8,2.9c2.6,0,8.9,0.1,12.8,0.1
			c19.6,0,25.6-15.7,28.9-31.1l4.8-22.2l4.5-20.8c0.5-2.3-0.1-4.6-1.5-6.3C75.6,120.4,73.5,119.4,71.2,119.4L71.2,119.4z"/>
	</g>
	<path class="st2" d="M290.9,170.2c-0.8,0-1.3-0.6-1.1-1.4l11.6-54.5"/>
	<g>
		<path class="st0" d="M307.1,172c-0.2,0-0.4,0-0.6-0.1c-1.7-0.3-2.8-2-2.5-3.8l4.7-23.3c0.3-1.5,1.6-2.6,3.1-2.6
			c0.2,0,0.4,0,0.6,0.1c1.7,0.3,2.8,2,2.5,3.8l-4.7,23.3C309.9,170.9,308.6,172,307.1,172z"/>
		<path class="st1" d="M311.8,145.5l-4.7,23.3L311.8,145.5 M311.8,139.2c-3,0-5.6,2.1-6.2,5.1l-4.7,23.3c-0.7,3.4,1.5,6.8,5,7.5
			c0.4,0.1,0.9,0.1,1.3,0.1c3,0,5.6-2.1,6.2-5.1l4.7-23.3c0.7-3.4-1.5-6.8-5-7.5C312.6,139.2,312.2,139.2,311.8,139.2L311.8,139.2z"
			/>
	</g>
	<g>
		<path class="st0" d="M290.9,173.4c-1.3,0-2.6-0.6-3.4-1.6c-0.8-1-1.1-2.3-0.8-3.6l5.8-27.2c0.3-1.5,1.6-2.5,3.1-2.5
			c0.2,0,0.4,0,0.7,0.1c1.7,0.4,2.8,2.1,2.4,3.8l-5.3,25c1.2,0.5,2.1,1.6,2.1,3c0,1.8-1.4,3.2-3.2,3.2L290.9,173.4L290.9,173.4z"/>
		<path class="st1" d="M295.6,141.6L295.6,141.6 M295.6,141.6l-5.5,25.9c-0.2,0.8-0.2,1.7-0.1,2.1c0.1,0.4,1.6,0.7,2.4,0.7h-1.4
			c-0.8,0-1.3-0.6-1.1-1.4L295.6,141.6 M295.6,135.2c-0.5,0-1,0.1-1.5,0.2c-0.9,0.2-1.7,0.6-2.4,1.2c-0.7,0.6-1.4,1.4-1.8,2.2
			c-0.2,0.5-0.4,1-0.5,1.5l-5.8,27.1c-0.5,2.2,0.1,4.5,1.5,6.3c1.4,1.8,3.6,2.8,5.9,2.8h1.4c3.5,0,6.4-2.9,6.4-6.4
			c0-1.7-0.7-3.2-1.7-4.4l4.8-22.7c0.1-0.5,0.2-1,0.2-1.5c0-3.3-2.6-6.1-5.9-6.3C295.9,135.2,295.8,135.2,295.6,135.2L295.6,135.2z"
			/>
	</g>
	<g>
		<path class="st0" d="M304,173.4c-1.8,0-3.2-1.4-3.2-3.2s1.4-3.2,3.2-3.2c0.1,0,0.1,0,0.2,0c0-0.1,0.1-0.2,0.1-0.2
			c0.3-1.5,1.6-2.5,3.1-2.5c0.2,0,0.4,0,0.6,0.1c1.7,0.4,2.8,2,2.5,3.7l-0.3,1.4c-0.5,2.2-2.5,3.9-4.8,3.9L304,173.4L304,173.4z"/>
		<path class="st1" d="M307.4,167.4L307.4,167.4 M307.4,167.4l-0.3,1.4c-0.2,0.8-0.9,1.4-1.7,1.4H304c0.8,0,1.8-0.1,2.2-0.3
			S307.2,168.2,307.4,167.4 M307.3,161c-0.5,0-1,0.1-1.5,0.2c-0.9,0.2-1.7,0.6-2.4,1.2c-0.6,0.5-1.1,1.1-1.5,1.7
			c-2.5,0.9-4.3,3.2-4.3,6c0,3.5,2.9,6.4,6.4,6.4h1.4c3.8,0,7.2-2.7,7.9-6.5l0.2-1.2c0.1-0.5,0.2-1,0.2-1.5c0-3.4-2.6-6.1-5.9-6.4
			C307.7,161.1,307.5,161,307.3,161L307.3,161z"/>
	</g>
	<g>
		<path class="st0" d="M309.4,160.4c-0.2,0-0.4,0-0.6-0.1c-1.7-0.3-2.8-2-2.5-3.8l2.1-10.3c0.3-1.5,1.6-2.6,3.1-2.6
			c0.2,0,0.4,0,0.5,0c1.7,0.3,2.9,1.9,2.6,3.6c0,0.1,0,0.1,0,0.2l-2.1,10.2C312.2,159.3,310.9,160.4,309.4,160.4z"/>
		<path class="st1" d="M311.5,146.9C311.5,146.9,311.5,146.9,311.5,146.9l-2.1,10.3L311.5,146.9 M311.5,140.5c-3,0-5.6,2.1-6.2,5.1
			l-2.1,10.3c-0.7,3.4,1.5,6.8,5,7.5c0.4,0.1,0.9,0.1,1.3,0.1c3,0,5.6-2.1,6.2-5.1l2.1-10.2l0,0c0-0.1,0.1-0.3,0.1-0.4
			c0.5-3.4-1.8-6.6-5.2-7.1C312.2,140.6,311.9,140.5,311.5,140.5L311.5,140.5z"/>
	</g>
	<path class="st2" d="M355.3,118l0.6,2.6c0.2,0.8-0.3,1.4-1.1,1.4"/>
	<g>
		<path class="st0" d="M307.4,170.6c-0.2,0-0.4,0-0.6-0.1c-1.7-0.3-2.8-2-2.5-3.8l2.1-10.2c0.3-1.5,1.6-2.6,3.1-2.6
			c0.2,0,0.4,0,0.6,0.1c1.7,0.3,2.8,2,2.5,3.8l-2.1,10.2C310.2,169.6,308.8,170.6,307.4,170.6z"/>
		<path class="st1" d="M309.4,157.2l-2.1,10.2L309.4,157.2 M309.4,150.8c-3,0-5.6,2.1-6.2,5.1l-2.1,10.2c-0.7,3.4,1.5,6.8,5,7.5
			c0.4,0.1,0.9,0.1,1.3,0.1c3,0,5.6-2.1,6.2-5.1l2.1-10.2c0.7-3.4-1.5-6.8-5-7.5C310.3,150.8,309.8,150.8,309.4,150.8L309.4,150.8z"
			/>
	</g>
	<g>
		<path class="st0" d="M355.3,121.1c-1.4,0-2.8-1-3.1-2.5l-0.6-2.7c-0.4-1.7,0.7-3.4,2.4-3.8c0.2-0.1,0.5-0.1,0.7-0.1
			c1.4,0,2.8,1,3.1,2.5l0.6,2.7c0.4,1.7-0.7,3.4-2.4,3.8C355.8,121.1,355.6,121.1,355.3,121.1z"/>
		<path class="st1" d="M354.7,115.2l0.6,2.7L354.7,115.2 M354.7,108.9c-0.5,0-1,0.1-1.5,0.2c-3.4,0.8-5.6,4.2-4.8,7.7l0.6,2.7
			c0.7,2.9,3.3,4.9,6.2,4.9c0.5,0,1-0.1,1.5-0.2c3.4-0.8,5.6-4.2,4.8-7.7l-0.6-2.7C360.2,110.9,357.6,108.9,354.7,108.9L354.7,108.9
			z"/>
	</g>
	<g>
		<path class="st0" d="M311.5,150.1c-0.2,0-0.4,0-0.6-0.1c-1.7-0.3-2.8-2-2.5-3.8l0.3-1.4l2.5-11.8c0.3-1.5,1.6-2.5,3.1-2.5
			c0.2,0,0.4,0,0.7,0.1c1.7,0.4,2.8,2.1,2.4,3.8l-2.2,10.4c-0.2,0.8-0.4,2-0.6,2.7C314.3,149,313,150.1,311.5,150.1z"/>
		<path class="st1" d="M314.3,133.8L314.3,133.8 M314.3,133.8l-2.2,10.4c-0.2,0.8-0.4,2-0.6,2.7l0.3-1.4L314.3,133.8 M314.3,127.4
			c-0.5,0-1,0.1-1.5,0.2c-0.9,0.2-1.8,0.6-2.5,1.2c-0.7,0.6-1.4,1.3-1.8,2.2c-0.2,0.5-0.4,1-0.5,1.5l-2.5,11.7c0,0,0,0,0,0.1
			l-0.3,1.4c-0.7,3.4,1.5,6.8,5,7.5c0.4,0.1,0.9,0.1,1.3,0.1c3,0,5.6-2.1,6.2-5.1c0.2-0.7,0.4-1.9,0.6-2.7l2.2-10.2
			c0.1-0.5,0.2-1,0.2-1.5c0-3.3-2.6-6.1-5.9-6.3C314.6,127.4,314.5,127.4,314.3,127.4L314.3,127.4z"/>
	</g>
	<g>
		<path class="st0" d="M295.6,144.7c-0.2,0-0.4,0-0.7-0.1c-1.7-0.4-2.8-2.1-2.4-3.8l6-28.1c0.3-1.5,1.6-2.5,3.1-2.5
			c0.2,0,0.4,0,0.7,0.1c1.7,0.4,2.8,2,2.5,3.8l-0.2,0.9l-5.8,27.3C298.4,143.7,297.1,144.7,295.6,144.7z"/>
		<path class="st1" d="M301.6,113.4L301.6,113.4 M301.6,113.4l-0.2,0.9l-5.8,27.2l5.5-25.9C301.3,115.1,301.5,114.1,301.6,113.4
			 M301.6,107c-0.5,0-1,0.1-1.5,0.2c-0.9,0.2-1.8,0.6-2.5,1.2c-0.7,0.6-1.3,1.3-1.8,2.2c-0.2,0.5-0.4,1-0.5,1.5l-0.3,1.6l-0.1,0.6
			l-5.5,25.9c-0.7,3.4,1.5,6.8,4.9,7.6c0.4,0.1,0.9,0.1,1.3,0.1c2.9,0,5.6-2,6.2-5l5.8-27.2l0.1-0.7c0.1-0.5,0.2-1,0.2-1.5
			c0-3.3-2.6-6.1-5.9-6.4C301.9,107,301.8,107,301.6,107L301.6,107z"/>
	</g>
	<g>
		<path class="st0" d="M292.3,173.4c-0.8,0-4.7-0.2-5.4-3.1c-0.3-1.4,0-3.2,0.1-3.5l11.3-53.1l1.4-6.8c0.5-2.2,2.5-3.9,4.8-3.9h12.9
			l24,0c8.9,0,14.3,3.4,16,10.1l1,4.2l0.6,2.6c0.3,1.3,0,2.7-0.8,3.7c-0.8,1-2,1.6-3.4,1.6l-35.5,0l-4.5,21l-4.4,21.8
			c-0.1,0.6-0.9,3.9-3.1,4.8c-1,0.4-2.4,0.5-3.4,0.5L292.3,173.4L292.3,173.4z"/>
		<path class="st1" d="M317.5,106.1l11.5,0l12.5,0c8,0,11.7,2.8,13,7.7l0.3,1.4l0.6,2.7l0.6,2.6c0.2,0.8-0.3,1.4-1.1,1.4l-36.7,0
			c-0.8,0-1.5,0.6-1.7,1.4l-2.2,10.4l-2.5,11.8l-0.3,1.4c0,0,0,0,0,0l-2.1,10.2l-2.1,10.2c-0.2,0.8-0.8,2.3-1.2,2.5
			c-0.4,0.2-1.4,0.3-2.2,0.3h-11.7c-0.8,0-2.3-0.3-2.4-0.7c-0.1-0.4,0-1.3,0.1-2.1l5.5-25.9l5.8-27.2l0.2-0.9l0.7-3.2l0.6-2.7
			c0.2-0.8,0.9-1.4,1.7-1.4L317.5,106.1 M317.5,99.8C317.5,99.8,317.5,99.8,317.5,99.8h-12.9c-3.8,0-7.1,2.7-7.9,6.4l-0.6,2.7
			l-0.7,3.2l-0.2,0.9l-5.8,27.2l-5.5,25.9c-0.2,0.8-0.6,3-0.1,4.9c1,4.1,5.1,5.5,8.5,5.5H304c0.6,0,2.8-0.1,4.6-0.8
			c3.7-1.5,4.8-5.8,5.1-7.1l2.1-10.3l2.1-10.2c0,0,0,0,0-0.1l0.3-1.3l2.5-11.7l1.4-6.7l32.9,0c2.3,0,4.5-1,5.9-2.8
			c1.4-1.8,1.9-4.1,1.4-6.4c0,0,0,0,0,0l-0.6-2.6l-0.6-2.7l-0.3-1.4c0,0,0-0.1,0-0.1c-1.5-5.7-6-12.5-19.1-12.5l-12.5,0L317.5,99.8
			L317.5,99.8z"/>
	</g>
	<g>
		<path class="st0" d="M343.3,173.4c-1.4,0-2.6-0.6-3.4-1.6c-0.8-1-1.1-2.4-0.7-3.7l3.3-12.7c0.1-0.2,0-0.8,0-1.1l-7.5-26.2
			c-0.4-1.3-0.1-2.7,0.7-3.8c0.8-1.1,2-1.7,3.4-1.7h16.7c2.3,0,4.3,1.7,4.8,3.9l0.6,2.6L383.8,96c1-1.5,3-2.6,4.8-2.6h11.7
			c0.8,0,2,0,2.8,0l4.4,0c1.6,0,3,0.8,3.6,2.1c0.7,1.3,0.5,2.9-0.5,4.1l-42.1,55.9c-0.2,0.3-0.6,1-0.7,1.4l-3.3,12.7
			c-0.5,2.1-2.6,3.8-4.8,3.8L343.3,173.4L343.3,173.4z"/>
		<path class="st1" d="M407.6,96.6c0.8,0,1,0.5,0.5,1.1L366,153.7c-0.5,0.6-1,1.7-1.2,2.5l-3.3,12.7c-0.2,0.8-1,1.4-1.8,1.4h-16.5
			c-0.8,0-1.3-0.6-1.1-1.4l3.3-12.7c0.2-0.7,0.2-2,0-2.7l-7.5-26.2c-0.2-0.7,0.2-1.4,1-1.4h16.7c0.8,0,1.6,0.6,1.7,1.4l1.9,8.4
			c0.1,0.4,0.3,0.6,0.5,0.6c0.2,0,0.4-0.1,0.6-0.4l26-38c0.4-0.6,1.4-1.2,2.2-1.2h11.7c0.8,0,2,0,2.8,0L407.6,96.6
			C407.6,96.6,407.6,96.6,407.6,96.6 M407.6,90.3C407.6,90.3,407.6,90.3,407.6,90.3l-4.5,0c-0.8,0-2,0-2.8,0h-11.7
			c-2.9,0-5.8,1.5-7.5,3.9l-19.2,28.2c-1.5-1.8-3.8-2.9-6.2-2.9H339c-2.4,0-4.6,1.1-6,2.9s-1.8,4.2-1.2,6.5l7.4,25.9l-3.2,12.4
			c-0.6,2.3-0.1,4.6,1.3,6.5c1.4,1.8,3.6,2.9,5.9,2.9h16.5c3.7,0,7-2.6,7.9-6.2l3.2-12.6c0-0.1,0.1-0.3,0.2-0.4l42.1-55.9
			c1.7-2.2,2-5.1,0.8-7.5C412.9,91.7,410.4,90.3,407.6,90.3L407.6,90.3z"/>
	</g>
	<g>
		<path class="st0" d="M252,174.2c-12.2,0-20.4-2.8-25.1-8.7c-6.1-7.6-4.9-18.4-2.8-28c4-18.5,11.7-35.6,40.3-35.6c0,0,0.1,0,0.1,0
			c11.2,0,18.7,2.8,23.1,8.5c6.6,8.6,4.2,22.2,1.3,33.2c-0.1,0.3-0.1,0.6-0.3,0.9c-0.7,1.7-2.3,2.9-4.2,3.1c-0.1,0-0.2,0-0.3,0
			c-0.1,0-0.1,0-0.2,0h-37.2c0,1.1,0.3,1.9,0.7,2.4c1,1.1,3.8,1.7,8.2,1.7H281c1.3,0,2.6,0.6,3.4,1.6c0.8,1,1.1,2.3,0.9,3.6
			l-2.7,13.3c-0.5,2.2-2.5,3.9-4.8,3.9c-3,0-10.5,0.1-17.9,0.1l-4.7,0c0,0-2.1,0-2.2,0L252,174.2L252,174.2z M267.5,127.7
			c0-1.1-0.3-1.9-0.8-2.5c-0.9-1.1-3-1.6-6-1.6c-4.5,0-7.5,1.3-9.5,4.1H267.5z"/>
		<path class="st1" d="M264.4,105L264.4,105 M264.4,105L264.4,105c25.7,0,27.4,15.2,21.4,37.8l0,0c0,0.1-0.1,0.2-0.1,0.4
			c-0.2,0.6-0.8,1-1.5,1c0,0,0,0,0,0l0,0h-40.4c-1.1,7.8,1.9,10.5,11.9,10.5H281c0.8,0,1.3,0.6,1.1,1.4l-1.4,6.6l-0.2,1.1l-1.1,5.6
			c-0.2,0.8-0.9,1.4-1.7,1.4c-3,0-10.5,0.1-17.9,0.1h-0.1c-1.1,0-2.3,0-3.4,0h-0.2c-0.3,0-0.6,0-0.8,0c-0.1,0-0.2,0-0.3,0h-1.8
			c-0.1,0-0.2,0-0.3,0h-1c-28.1,0-28.4-15.9-24.8-32.8C230.8,121.5,237.3,105,264.4,105 M246.8,129.8
			C246.8,129.7,246.8,129.7,246.8,129.8C246.8,129.8,246.8,129.8,246.8,129.8c-0.1,0.7,0.3,1.2,1,1.2H269c0.8,0,1.6-0.6,1.6-1.5l0,0
			c0.6-4.8-1.1-9-9.8-9c-7.7,0-11.8,3.5-13.9,8.9C246.9,129.5,246.8,129.7,246.8,129.8C246.8,129.7,246.8,129.7,246.8,129.8
			 M264.4,98.7L264.4,98.7c-31,0-39.3,19.3-43.4,38.1c-2.2,10.4-3.5,22.1,3.5,30.7c5.4,6.6,14.4,9.8,27.6,9.8h1c0,0,0.1,0,0.1,0
			l0.1,0h1.8c0.1,0,0.1,0,0.2,0l0.2,0l0.4,0l0.4,0h0.2c0.7,0,1.5,0,2.2,0l1.1,0h0c8.7,0,17-0.1,17.9-0.1c3.8-0.1,7.1-2.8,7.9-6.4
			l1.1-5.6l0.2-1.1l1.4-6.6c0.5-2.2-0.1-4.5-1.5-6.3c-0.2-0.3-0.5-0.5-0.7-0.8c2.4-0.6,4.5-2.4,5.5-4.8c0,0,0,0,0-0.1
			c0.2-0.4,0.3-0.9,0.4-1.3c3.1-11.6,5.6-26.1-1.9-35.8c-5-6.5-13.4-9.7-25.6-9.7C264.5,98.7,264.5,98.7,264.4,98.7L264.4,98.7z"/>
	</g>
	<g>
		<path class="st0" d="M108.5,173.7c-12,0-20.9-3.5-26.5-10.4c-6.3-7.8-8-19.5-5-33.9c6.1-28.7,22.3-43.8,47.1-43.8
			c15.5,0,24,6.2,28.5,11.5c6.1,7.2,8.7,17.3,7.1,27.2c-1.4,8.4-6.1,21-8.3,26.8l3.5,0c1.4,0,2.6,0.6,3.4,1.6c0.8,1,1.1,2.4,0.7,3.7
			l-3.5,13.4c-0.6,2.2-2.6,3.7-4.8,3.7L108.5,173.7z M122.6,108.8c-0.7,0-1.4,0-2.1,0.1c-9.6,0.7-15,7.2-18,21.8
			c-1.7,8-1.3,13.8,1.3,16.9c1.6,2,4.2,3,7.9,3h15.1l6.2-22c2.1-7,1.9-12.7-0.6-16C130.5,110,127.2,108.8,122.6,108.8z"/>
		<path class="st1" d="M124.1,88.7c27.6,0,34.8,20.7,32.4,35c-1.7,10.7-9.3,29.1-9.3,29.1h0c0,0.1-0.1,0.2-0.1,0.3
			c-0.1,0.6,0.3,1,1,1l3.4,0l3.4,0c0.8,0,1.2,0.6,1.1,1.4l-3.5,13.4c-0.2,0.7-1,1.4-1.8,1.4l-20.1,0.1l-21.5,0.1c-0.1,0-0.2,0-0.3,0
			c-27,0-32.9-18.9-28.4-40.5C84.7,108.5,96.6,88.7,124.1,88.7 M111.7,153.7h16.1c0.8,0,1.6-0.6,1.8-1.4l3-10.8l3-10.8c0,0,0,0,0,0
			l0.4-1.4c3.8-12.7,1-23.8-13.4-23.8c-0.7,0-1.5,0-2.3,0.1c-12,0.9-17.9,9.9-20.9,24.3C96.4,144.1,99.4,153.7,111.7,153.7
			 M147.1,152.9L147.1,152.9 M124.1,82.4c-14.5,0-26.4,4.9-35.3,14.6c-7.1,7.7-12.1,18.4-14.9,31.7c-3.2,15.4-1.3,28,5.6,36.6
			c6.3,7.7,16,11.6,29,11.6l0.4,0l21.5-0.1l20.1-0.1c3.7,0,7-2.6,7.9-6.1l3.5-13.4c0.6-2.3,0.1-4.6-1.3-6.5
			c-1.2-1.5-2.9-2.5-4.8-2.8c2.5-6.6,5.8-16.3,6.9-23.2c1.8-10.8-1.1-21.9-7.8-29.8C150.1,89.2,140.8,82.4,124.1,82.4L124.1,82.4z
			 M111.7,147.3c-4,0-5-1.3-5.4-1.8c-0.9-1.1-2.7-4.6-0.6-14.2c3.3-16.2,9.2-18.9,15.1-19.3c0.6,0,1.3-0.1,1.9-0.1c0,0,0,0,0,0
			c3.5,0,6,0.8,7.2,2.5c1.8,2.4,1.9,7.3,0.1,13.1c0,0,0,0.1,0,0.1l-0.4,1.4c0,0,0,0,0,0.1l-3,10.7l-2.1,7.5L111.7,147.3L111.7,147.3
			z"/>
	</g>
</g>
</svg>
