<?xml version="1.0" encoding="utf-8"?>
<!-- Generator: Adobe Illustrator 26.0.2, SVG Export Plug-In . SVG Version: 6.00 Build 0)  -->
<svg version="1.1" id="Layer_1" xmlns="http://www.w3.org/2000/svg" xmlns:xlink="http://www.w3.org/1999/xlink" x="0px" y="0px"
	 viewBox="0 0 91.2 91.2" style="enable-background:new 0 0 91.2 91.2;" xml:space="preserve">
<style type="text/css">
	.st0{fill:#D5A238;}
	.st1{fill:#E4BD38;}
	.st2{fill:#FFFFFF;}
	.st3{fill:#EAEAEA;}
</style>
<rect class="st0" width="91.3" height="91.2"/>
<path class="st0" d="M85.9,0H5.3l7.5,81.9l32.8,9.3l32.7-9.3L85.9,0z"/>
<path class="st1" d="M45.6,6.7v77.5l26.5-7.5l6.4-70L45.6,6.7z"/>
<path class="st2" d="M66.7,16.7H25.9l-2.8,30.7v-0.2h34.7l-1.2,13l-11,3.1l-11.2-3.2l-0.7-7.8H23.5L25,67.9l20.6,5.9l20.6-5.9
	L69,37.2H32.3l0.5-10.3h25.5l0.3,5.9h10.3L66.7,16.7z"/>
<path class="st3" d="M45.6,16.7H25.9l-2.8,30.7l0.1-0.2h22.5v-10h-12l0.5-10.3h11.4C45.6,26.9,45.6,16.7,45.6,16.7z M33.7,52.3H23.5
	L25,68l20.6,5.8V63.3l-11.2-3.2C34.4,60.1,33.7,52.3,33.7,52.3z"/>
</svg>
