<?xml version="1.0" encoding="utf-8"?>
<!-- Generator: Adobe Illustrator 15.1.0, SVG Export Plug-In . SVG Version: 6.00 Build 0)  -->
<!DOCTYPE svg PUBLIC "-//W3C//DTD SVG 1.1//EN" "http://www.w3.org/Graphics/SVG/1.1/DTD/svg11.dtd">
<svg version="1.1" id="Layer_1" xmlns="http://www.w3.org/2000/svg" xmlns:xlink="http://www.w3.org/1999/xlink" x="0px" y="0px"
	 width="729px" height="726.497px" viewBox="595.5 175.5 729 726.497" enable-background="new 595.5 175.5 729 726.497"
	 xml:space="preserve">
<circle fill="#FFFFFF" stroke="#000000" stroke-miterlimit="10" cx="965.5" cy="539.5" r="349"/>
<g id="Social">
	<g id="GitHub">
	</g>
	<g id="Soundcloud_3_">
	</g>
	<g id="Dropbox_2_">
	</g>
	<g id="Instagram_7_">
	</g>
	<g id="WordPress_3_">
		<path fill="#3498D8" d="M717,432l126.9,348.3C754.8,737.1,692.7,645.3,692.7,540C692.7,502.199,700.8,464.4,717,432z
			 M1140.9,526.5c0-32.4-10.801-56.7-21.601-72.9c-13.5-21.601-27-40.5-27-62.101c0-24.3,18.9-48.6,45.9-48.6h2.7
			c-48.601-43.2-110.7-70.2-180.9-70.2c-91.8,0-175.5,48.601-221.4,118.8c5.4,0,10.801,0,16.2,0c27,0,70.2-2.699,70.2-2.699
			c13.5,0,16.2,21.6,2.7,21.6c0,0-13.5,2.7-29.7,2.7l97.2,288.899l59.399-175.5L914.1,413.1c-13.5,0-27-2.7-27-2.7
			c-13.5,0-13.5-21.6,2.7-21.6c0,0,43.2,2.699,70.2,2.699s70.2-2.699,70.2-2.699c13.5,0,16.2,21.6,2.7,21.6c0,0-13.5,2.7-29.7,2.7
			l89.1,288.9l27-89.101C1130.1,575.1,1140.9,548.1,1140.9,526.5z M965.4,564.3l-81,232.2c24.3,8.1,48.6,10.8,75.6,10.8
			c29.7,0,62.1-5.4,89.1-16.2l-2.699-2.7L965.4,564.3z M1194.9,413.1c0,8.1,2.699,18.9,2.699,27c0,27-5.399,56.7-21.6,94.5
			l-81,234.9c78.3-45.9,132.3-132.301,132.3-229.5C1227.3,494.1,1213.8,450.9,1194.9,413.1z"/>
		<path fill="#2980B9" d="M960,175.5c-199.8,0-364.5,164.699-364.5,364.5c0,199.8,164.7,364.5,364.5,364.5s364.5-164.7,364.5-364.5
			C1324.5,340.199,1159.8,175.5,960,175.5z M960,861.3c-175.5,0-321.3-143.101-321.3-321.3c0-175.5,143.1-321.3,321.3-321.3
			s321.3,145.8,321.3,321.3S1135.5,861.3,960,861.3z"/>
	</g>
	<g id="PlayStation">
	</g>
	<g id="XBox_2_">
	</g>
	<g id="Windows_2_">
	</g>
	<g id="iOS_1_">
	</g>
	<g id="Apple_2_">
	</g>
	<g id="Android_2_">
	</g>
	<g id="Deviantart_2_">
	</g>
	<g id="Yelp_2_">
	</g>
	<g id="Picassa_6_">
	</g>
	<g id="LastFM_2_">
	</g>
	<g id="Amazon_3_">
	</g>
	<g id="AIM_2_">
	</g>
	<g id="fffound_1_">
	</g>
	<g id="Forrst_3_">
	</g>
	<g id="Yahoo_3_">
	</g>
	<g id="YouTube_3_">
	</g>
	<g id="Behance_2_">
	</g>
	<g id="Tumblr_2_">
	</g>
	<g id="Vimeo_2_">
	</g>
	<g id="Skype_3_">
	</g>
	<g id="Pinterest_2_">
	</g>
	<g id="LinkedIn_1_">
	</g>
	<g id="Dribbble_3_">
	</g>
	<g id="Flickr_3_">
	</g>
	<g id="Google_Plus_2_">
	</g>
	<g id="RSS_2_">
	</g>
	<g id="Twitter_2_">
	</g>
	<g id="Facebook_2_">
	</g>
</g>
<g id="Lockup">
</g>
</svg>
